%TF.GenerationSoftware,KiCad,Pcbnew,8.0.5*%
%TF.CreationDate,2025-02-27T20:43:24-05:00*%
%TF.ProjectId,Z+,5a2b2e6b-6963-4616-945f-706362585858,rev?*%
%TF.SameCoordinates,Original*%
%TF.FileFunction,Paste,Bot*%
%TF.FilePolarity,Positive*%
%FSLAX46Y46*%
G04 Gerber Fmt 4.6, Leading zero omitted, Abs format (unit mm)*
G04 Created by KiCad (PCBNEW 8.0.5) date 2025-02-27 20:43:24*
%MOMM*%
%LPD*%
G01*
G04 APERTURE LIST*
G04 Aperture macros list*
%AMRoundRect*
0 Rectangle with rounded corners*
0 $1 Rounding radius*
0 $2 $3 $4 $5 $6 $7 $8 $9 X,Y pos of 4 corners*
0 Add a 4 corners polygon primitive as box body*
4,1,4,$2,$3,$4,$5,$6,$7,$8,$9,$2,$3,0*
0 Add four circle primitives for the rounded corners*
1,1,$1+$1,$2,$3*
1,1,$1+$1,$4,$5*
1,1,$1+$1,$6,$7*
1,1,$1+$1,$8,$9*
0 Add four rect primitives between the rounded corners*
20,1,$1+$1,$2,$3,$4,$5,0*
20,1,$1+$1,$4,$5,$6,$7,0*
20,1,$1+$1,$6,$7,$8,$9,0*
20,1,$1+$1,$8,$9,$2,$3,0*%
%AMFreePoly0*
4,1,11,1.015000,1.170000,0.435000,0.575000,0.435000,-0.575000,1.015000,-1.170000,1.015000,-1.945000,0.125000,-1.945000,-0.435000,-1.395000,-0.435000,1.395000,0.125000,1.945000,1.015000,1.945000,1.015000,1.170000,1.015000,1.170000,$1*%
%AMFreePoly1*
4,1,11,0.435000,1.395000,0.435000,-1.395000,-0.125000,-1.945000,-1.015000,-1.945000,-1.015000,-1.170000,-0.435000,-0.575000,-0.435000,0.575000,-1.015000,1.170000,-1.015000,1.945000,-0.125000,1.945000,0.435000,1.395000,0.435000,1.395000,$1*%
G04 Aperture macros list end*
%ADD10RoundRect,0.225000X0.250000X-0.225000X0.250000X0.225000X-0.250000X0.225000X-0.250000X-0.225000X0*%
%ADD11RoundRect,0.100000X0.225000X0.100000X-0.225000X0.100000X-0.225000X-0.100000X0.225000X-0.100000X0*%
%ADD12RoundRect,0.200000X0.200000X0.275000X-0.200000X0.275000X-0.200000X-0.275000X0.200000X-0.275000X0*%
%ADD13RoundRect,0.225000X-0.250000X0.225000X-0.250000X-0.225000X0.250000X-0.225000X0.250000X0.225000X0*%
%ADD14RoundRect,0.200000X-0.275000X0.200000X-0.275000X-0.200000X0.275000X-0.200000X0.275000X0.200000X0*%
%ADD15RoundRect,0.250000X0.325000X1.100000X-0.325000X1.100000X-0.325000X-1.100000X0.325000X-1.100000X0*%
%ADD16RoundRect,0.100000X-0.225000X-0.100000X0.225000X-0.100000X0.225000X0.100000X-0.225000X0.100000X0*%
%ADD17RoundRect,0.250000X0.950000X0.500000X-0.950000X0.500000X-0.950000X-0.500000X0.950000X-0.500000X0*%
%ADD18RoundRect,0.250000X0.275000X0.500000X-0.275000X0.500000X-0.275000X-0.500000X0.275000X-0.500000X0*%
%ADD19R,0.400000X1.000000*%
%ADD20R,2.000000X1.300000*%
%ADD21RoundRect,0.218750X0.218750X0.256250X-0.218750X0.256250X-0.218750X-0.256250X0.218750X-0.256250X0*%
%ADD22RoundRect,0.200000X-0.200000X-0.275000X0.200000X-0.275000X0.200000X0.275000X-0.200000X0.275000X0*%
%ADD23RoundRect,0.167500X0.167500X0.367500X-0.167500X0.367500X-0.167500X-0.367500X0.167500X-0.367500X0*%
%ADD24RoundRect,0.062500X0.362500X0.062500X-0.362500X0.062500X-0.362500X-0.062500X0.362500X-0.062500X0*%
%ADD25RoundRect,0.062500X0.062500X0.362500X-0.062500X0.362500X-0.062500X-0.362500X0.062500X-0.362500X0*%
%ADD26RoundRect,0.218750X-0.218750X-0.256250X0.218750X-0.256250X0.218750X0.256250X-0.218750X0.256250X0*%
%ADD27RoundRect,0.200000X0.275000X-0.200000X0.275000X0.200000X-0.275000X0.200000X-0.275000X-0.200000X0*%
%ADD28RoundRect,0.250000X-0.300000X-0.300000X0.300000X-0.300000X0.300000X0.300000X-0.300000X0.300000X0*%
%ADD29RoundRect,0.167500X-0.167500X-0.312500X0.167500X-0.312500X0.167500X0.312500X-0.167500X0.312500X0*%
%ADD30RoundRect,0.062500X-0.362500X-0.062500X0.362500X-0.062500X0.362500X0.062500X-0.362500X0.062500X0*%
%ADD31R,0.812800X0.254000*%
%ADD32R,0.254000X0.812800*%
%ADD33R,1.752600X1.752600*%
%ADD34RoundRect,0.150000X0.512500X0.150000X-0.512500X0.150000X-0.512500X-0.150000X0.512500X-0.150000X0*%
%ADD35RoundRect,0.250000X-0.325000X-1.100000X0.325000X-1.100000X0.325000X1.100000X-0.325000X1.100000X0*%
%ADD36RoundRect,0.093750X-0.093750X0.156250X-0.093750X-0.156250X0.093750X-0.156250X0.093750X0.156250X0*%
%ADD37RoundRect,0.075000X-0.075000X0.250000X-0.075000X-0.250000X0.075000X-0.250000X0.075000X0.250000X0*%
%ADD38RoundRect,0.250000X-0.250000X-0.475000X0.250000X-0.475000X0.250000X0.475000X-0.250000X0.475000X0*%
%ADD39RoundRect,0.075000X0.390000X0.275000X-0.390000X0.275000X-0.390000X-0.275000X0.390000X-0.275000X0*%
%ADD40RoundRect,0.075000X0.075000X0.275000X-0.075000X0.275000X-0.075000X-0.275000X0.075000X-0.275000X0*%
%ADD41RoundRect,0.250000X1.100000X-0.325000X1.100000X0.325000X-1.100000X0.325000X-1.100000X-0.325000X0*%
%ADD42R,0.610000X1.270000*%
%ADD43R,0.610000X1.020000*%
%ADD44R,3.910000X3.810000*%
%ADD45RoundRect,0.225000X-0.225000X-0.250000X0.225000X-0.250000X0.225000X0.250000X-0.225000X0.250000X0*%
%ADD46RoundRect,0.150000X0.587500X0.150000X-0.587500X0.150000X-0.587500X-0.150000X0.587500X-0.150000X0*%
%ADD47FreePoly0,180.000000*%
%ADD48FreePoly1,180.000000*%
%ADD49RoundRect,0.225000X0.225000X0.250000X-0.225000X0.250000X-0.225000X-0.250000X0.225000X-0.250000X0*%
%ADD50RoundRect,0.218750X0.256250X-0.218750X0.256250X0.218750X-0.256250X0.218750X-0.256250X-0.218750X0*%
%ADD51RoundRect,0.250000X0.475000X-0.250000X0.475000X0.250000X-0.475000X0.250000X-0.475000X-0.250000X0*%
%ADD52RoundRect,0.087500X0.087500X-0.725000X0.087500X0.725000X-0.087500X0.725000X-0.087500X-0.725000X0*%
%ADD53RoundRect,0.250000X0.250000X0.475000X-0.250000X0.475000X-0.250000X-0.475000X0.250000X-0.475000X0*%
%ADD54R,1.000000X2.500000*%
%ADD55RoundRect,0.250000X-0.362500X-1.425000X0.362500X-1.425000X0.362500X1.425000X-0.362500X1.425000X0*%
G04 APERTURE END LIST*
D10*
%TO.C,C12*%
X154178000Y-123203000D03*
X154178000Y-121653000D03*
%TD*%
D11*
%TO.C,Q14*%
X139888000Y-88250000D03*
X139888000Y-88900000D03*
X139888000Y-89550000D03*
X137988000Y-89550000D03*
X137988000Y-88900000D03*
X137988000Y-88250000D03*
%TD*%
D12*
%TO.C,R123*%
X162369000Y-78740000D03*
X160719000Y-78740000D03*
%TD*%
D13*
%TO.C,C2*%
X175641000Y-83299000D03*
X175641000Y-84849000D03*
%TD*%
D11*
%TO.C,Q13*%
X138872000Y-103490000D03*
X138872000Y-104140000D03*
X138872000Y-104790000D03*
X136972000Y-104790000D03*
X136972000Y-104140000D03*
X136972000Y-103490000D03*
%TD*%
D14*
%TO.C,R90*%
X131318000Y-118555000D03*
X131318000Y-120205000D03*
%TD*%
%TO.C,R34*%
X147965074Y-114999000D03*
X147965074Y-116649000D03*
%TD*%
%TO.C,R29*%
X146050000Y-119571000D03*
X146050000Y-121221000D03*
%TD*%
D12*
%TO.C,R23*%
X157988000Y-113284000D03*
X156338000Y-113284000D03*
%TD*%
D15*
%TO.C,C26*%
X152605000Y-103378000D03*
X149655000Y-103378000D03*
%TD*%
D11*
%TO.C,Q21*%
X134808000Y-118730000D03*
X134808000Y-119380000D03*
X134808000Y-120030000D03*
X132908000Y-120030000D03*
X132908000Y-119380000D03*
X132908000Y-118730000D03*
%TD*%
D12*
%TO.C,R64*%
X139763000Y-86614000D03*
X138113000Y-86614000D03*
%TD*%
D16*
%TO.C,Q24*%
X176596000Y-100218000D03*
X176596000Y-99568000D03*
X176596000Y-98918000D03*
X178496000Y-98918000D03*
X178496000Y-99568000D03*
X178496000Y-100218000D03*
%TD*%
D14*
%TO.C,R73*%
X143256000Y-80455000D03*
X143256000Y-82105000D03*
%TD*%
D17*
%TO.C,D7*%
X164504000Y-97282000D03*
D18*
X166879000Y-97282000D03*
%TD*%
D19*
%TO.C,J1*%
X168611160Y-77110000D03*
X169611160Y-77110000D03*
X170611160Y-77110000D03*
X171611160Y-77110000D03*
X172611160Y-77110000D03*
X173611160Y-77110000D03*
X174611160Y-77110000D03*
X175611160Y-77110000D03*
X176611160Y-77110000D03*
X177611160Y-77110000D03*
D20*
X165811160Y-74410000D03*
X180411160Y-74410000D03*
%TD*%
D12*
%TO.C,R1*%
X134682999Y-91186000D03*
X133032999Y-91186000D03*
%TD*%
D16*
%TO.C,Q12*%
X136972000Y-100218000D03*
X136972000Y-99568000D03*
X136972000Y-98918000D03*
X138872000Y-98918000D03*
X138872000Y-99568000D03*
X138872000Y-100218000D03*
%TD*%
D11*
%TO.C,Q2*%
X134807999Y-88250000D03*
X134807999Y-88900000D03*
X134807999Y-89550000D03*
X132907999Y-89550000D03*
X132907999Y-88900000D03*
X132907999Y-88250000D03*
%TD*%
D14*
%TO.C,R54*%
X157734000Y-108141000D03*
X157734000Y-109791000D03*
%TD*%
%TO.C,R75*%
X125222000Y-95695000D03*
X125222000Y-97345000D03*
%TD*%
D10*
%TO.C,C17*%
X147828000Y-86627000D03*
X147828000Y-85077000D03*
%TD*%
D14*
%TO.C,R2*%
X131318000Y-80455000D03*
X131318000Y-82105000D03*
%TD*%
D12*
%TO.C,R38*%
X133667000Y-101854000D03*
X132017000Y-101854000D03*
%TD*%
D16*
%TO.C,Q27*%
X171516000Y-100218000D03*
X171516000Y-99568000D03*
X171516000Y-98918000D03*
X173416000Y-98918000D03*
X173416000Y-99568000D03*
X173416000Y-100218000D03*
%TD*%
D21*
%TO.C,F9*%
X153695500Y-93218000D03*
X152120500Y-93218000D03*
%TD*%
D16*
%TO.C,Q15*%
X137988000Y-84978000D03*
X137988000Y-84328000D03*
X137988000Y-83678000D03*
X139888000Y-83678000D03*
X139888000Y-84328000D03*
X139888000Y-84978000D03*
%TD*%
D22*
%TO.C,R19*%
X167069000Y-114808000D03*
X168719000Y-114808000D03*
%TD*%
D16*
%TO.C,Q23*%
X127828000Y-115458000D03*
X127828000Y-114808000D03*
X127828000Y-114158000D03*
X129728000Y-114158000D03*
X129728000Y-114808000D03*
X129728000Y-115458000D03*
%TD*%
D23*
%TO.C,U9*%
X156366000Y-105308000D03*
X156366000Y-103988000D03*
X155546000Y-105308000D03*
X155546000Y-103988000D03*
D24*
X157406000Y-103398000D03*
X157406000Y-103898000D03*
X157406000Y-104398000D03*
X157406000Y-104898000D03*
X157406000Y-105398000D03*
X157406000Y-105898000D03*
D25*
X156706000Y-106598000D03*
X156206000Y-106598000D03*
X155706000Y-106598000D03*
X155206000Y-106598000D03*
D24*
X154506000Y-105898000D03*
X154506000Y-105398000D03*
X154506000Y-104898000D03*
X154506000Y-104398000D03*
X154506000Y-103898000D03*
X154506000Y-103398000D03*
D25*
X155206000Y-102698000D03*
X155706000Y-102698000D03*
X156206000Y-102698000D03*
X156706000Y-102698000D03*
%TD*%
D26*
%TO.C,F8*%
X156184500Y-93218000D03*
X157759500Y-93218000D03*
%TD*%
D19*
%TO.C,J2*%
X148868000Y-73808000D03*
X149868000Y-73808000D03*
X150868000Y-73808000D03*
X151868000Y-73808000D03*
D20*
X146068000Y-71108000D03*
X154668000Y-71108000D03*
%TD*%
D16*
%TO.C,Q6*%
X121732000Y-100218000D03*
X121732000Y-99568000D03*
X121732000Y-98918000D03*
X123632000Y-98918000D03*
X123632000Y-99568000D03*
X123632000Y-100218000D03*
%TD*%
D14*
%TO.C,R102*%
X175006000Y-103315000D03*
X175006000Y-104965000D03*
%TD*%
D27*
%TO.C,R91*%
X129539999Y-123253000D03*
X129539999Y-121603000D03*
%TD*%
%TO.C,R110*%
X154940000Y-86677000D03*
X154940000Y-85027000D03*
%TD*%
D12*
%TO.C,R22*%
X168719000Y-113030000D03*
X167069000Y-113030000D03*
%TD*%
D14*
%TO.C,R30*%
X144526000Y-121349000D03*
X144526000Y-122999000D03*
%TD*%
D12*
%TO.C,R122*%
X162369000Y-80264000D03*
X160719000Y-80264000D03*
%TD*%
D22*
%TO.C,R120*%
X159195000Y-85852000D03*
X160845000Y-85852000D03*
%TD*%
D12*
%TO.C,R4*%
X134682999Y-92710000D03*
X133032999Y-92710000D03*
%TD*%
D17*
%TO.C,D8*%
X138596000Y-111252000D03*
D18*
X140971000Y-111252000D03*
%TD*%
D22*
%TO.C,R39*%
X132017000Y-95758000D03*
X133667000Y-95758000D03*
%TD*%
%TO.C,R61*%
X149797000Y-108204000D03*
X151447000Y-108204000D03*
%TD*%
D28*
%TO.C,D2*%
X143634000Y-105664000D03*
X146434000Y-105664000D03*
%TD*%
D14*
%TO.C,R21*%
X151892000Y-125413000D03*
X151892000Y-127063000D03*
%TD*%
D12*
%TO.C,R95*%
X178371000Y-107950000D03*
X176721000Y-107950000D03*
%TD*%
%TO.C,R100*%
X173291000Y-101854000D03*
X171641000Y-101854000D03*
%TD*%
D27*
%TO.C,R108*%
X153416000Y-86677000D03*
X153416000Y-85027000D03*
%TD*%
D22*
%TO.C,R44*%
X137097000Y-101854000D03*
X138747000Y-101854000D03*
%TD*%
%TO.C,R50*%
X159449000Y-109728000D03*
X161099000Y-109728000D03*
%TD*%
%TO.C,R3*%
X133032999Y-86614000D03*
X134682999Y-86614000D03*
%TD*%
%TO.C,R86*%
X127953000Y-112522000D03*
X129603000Y-112522000D03*
%TD*%
D27*
%TO.C,R32*%
X154061074Y-116649000D03*
X154061074Y-114999000D03*
%TD*%
D22*
%TO.C,R76*%
X126937000Y-101854000D03*
X128587000Y-101854000D03*
%TD*%
D27*
%TO.C,R87*%
X131317999Y-123253000D03*
X131317999Y-121603000D03*
%TD*%
D12*
%TO.C,R88*%
X129603000Y-117094000D03*
X127953000Y-117094000D03*
%TD*%
D29*
%TO.C,U11*%
X161134000Y-82463000D03*
X161134000Y-83653000D03*
X161954000Y-82463000D03*
X161954000Y-83653000D03*
D30*
X160094000Y-84058000D03*
X160094000Y-83558000D03*
X160094000Y-83058000D03*
X160094000Y-82558000D03*
X160094000Y-82058000D03*
X162994000Y-82058000D03*
X162994000Y-82558000D03*
X162994000Y-83058000D03*
X162994000Y-83558000D03*
X162994000Y-84058000D03*
%TD*%
D16*
%TO.C,Q11*%
X131892000Y-100218000D03*
X131892000Y-99568000D03*
X131892000Y-98918000D03*
X133792000Y-98918000D03*
X133792000Y-99568000D03*
X133792000Y-100218000D03*
%TD*%
D22*
%TO.C,R119*%
X162243000Y-85852000D03*
X163893000Y-85852000D03*
%TD*%
D11*
%TO.C,Q22*%
X129728000Y-118730000D03*
X129728000Y-119380000D03*
X129728000Y-120030000D03*
X127828000Y-120030000D03*
X127828000Y-119380000D03*
X127828000Y-118730000D03*
%TD*%
D31*
%TO.C,U7*%
X151587200Y-119899999D03*
X151587200Y-120400000D03*
X151587200Y-120900000D03*
X151587200Y-121400001D03*
D32*
X150864001Y-122123200D03*
X150364000Y-122123200D03*
X149864000Y-122123200D03*
X149363999Y-122123200D03*
D31*
X148640800Y-121400001D03*
X148640800Y-120900000D03*
X148640800Y-120400000D03*
X148640800Y-119899999D03*
D32*
X149363999Y-119176800D03*
X149864000Y-119176800D03*
X150364000Y-119176800D03*
X150864001Y-119176800D03*
D33*
X150114000Y-120650000D03*
%TD*%
D12*
%TO.C,R77*%
X128587000Y-107950000D03*
X126937000Y-107950000D03*
%TD*%
D34*
%TO.C,U6*%
X146171500Y-107762000D03*
X146171500Y-108712000D03*
X146171500Y-109662000D03*
X143896500Y-109662000D03*
X143896500Y-108712000D03*
X143896500Y-107762000D03*
%TD*%
D14*
%TO.C,R11*%
X131318000Y-88075000D03*
X131318000Y-89725000D03*
%TD*%
D22*
%TO.C,R118*%
X159195000Y-87376000D03*
X160845000Y-87376000D03*
%TD*%
D35*
%TO.C,C18*%
X162609000Y-104394000D03*
X165559000Y-104394000D03*
%TD*%
D27*
%TO.C,R12*%
X129540000Y-92773000D03*
X129540000Y-91123000D03*
%TD*%
D14*
%TO.C,R56*%
X147828000Y-81979000D03*
X147828000Y-83629000D03*
%TD*%
%TO.C,R81*%
X131318000Y-110935000D03*
X131318000Y-112585000D03*
%TD*%
D12*
%TO.C,R42*%
X138747000Y-106426000D03*
X137097000Y-106426000D03*
%TD*%
D11*
%TO.C,Q19*%
X128712000Y-103490000D03*
X128712000Y-104140000D03*
X128712000Y-104790000D03*
X126812000Y-104790000D03*
X126812000Y-104140000D03*
X126812000Y-103490000D03*
%TD*%
D10*
%TO.C,C28*%
X144780000Y-82055000D03*
X144780000Y-80505000D03*
%TD*%
D14*
%TO.C,R17*%
X125222000Y-103315000D03*
X125222000Y-104965000D03*
%TD*%
D22*
%TO.C,R35*%
X149426074Y-116586000D03*
X151076074Y-116586000D03*
%TD*%
D36*
%TO.C,U10*%
X168626500Y-79922000D03*
D37*
X169164000Y-79847000D03*
D36*
X169701500Y-79922000D03*
X169701500Y-81622000D03*
D37*
X169164000Y-81697000D03*
D36*
X168626500Y-81622000D03*
%TD*%
D11*
%TO.C,Q3*%
X129728000Y-88250000D03*
X129728000Y-88900000D03*
X129728000Y-89550000D03*
X127828000Y-89550000D03*
X127828000Y-88900000D03*
X127828000Y-88250000D03*
%TD*%
D38*
%TO.C,C21*%
X161864000Y-101600000D03*
X163764000Y-101600000D03*
%TD*%
D22*
%TO.C,R10*%
X127953000Y-80518000D03*
X129603000Y-80518000D03*
%TD*%
D16*
%TO.C,Q18*%
X126812000Y-100218000D03*
X126812000Y-99568000D03*
X126812000Y-98918000D03*
X128712000Y-98918000D03*
X128712000Y-99568000D03*
X128712000Y-100218000D03*
%TD*%
D14*
%TO.C,R43*%
X135382000Y-95695000D03*
X135382000Y-97345000D03*
%TD*%
D13*
%TO.C,C31*%
X128016000Y-121653000D03*
X128016000Y-123203000D03*
%TD*%
D14*
%TO.C,R47*%
X137160000Y-95695000D03*
X137160000Y-97345000D03*
%TD*%
D27*
%TO.C,R67*%
X139700000Y-92773000D03*
X139700000Y-91123000D03*
%TD*%
D13*
%TO.C,C15*%
X132080000Y-106413000D03*
X132080000Y-107963000D03*
%TD*%
D14*
%TO.C,R6*%
X133096000Y-80455000D03*
X133096000Y-82105000D03*
%TD*%
D39*
%TO.C,D4*%
X157511000Y-123444000D03*
D40*
X156626000Y-123444000D03*
%TD*%
D41*
%TO.C,C11*%
X157226000Y-121871000D03*
X157226000Y-118921000D03*
%TD*%
D42*
%TO.C,Q7*%
X143637000Y-103436000D03*
D43*
X147447000Y-98086000D03*
X146177000Y-98086000D03*
X144907000Y-98086000D03*
X143637000Y-98086000D03*
D44*
X145542000Y-100076000D03*
D42*
X147447000Y-103436000D03*
X146177000Y-103436000D03*
X144907000Y-103436000D03*
%TD*%
D12*
%TO.C,R48*%
X161099000Y-103632000D03*
X159449000Y-103632000D03*
%TD*%
D45*
%TO.C,C22*%
X156705000Y-100838000D03*
X158255000Y-100838000D03*
%TD*%
D27*
%TO.C,R41*%
X133604000Y-108013000D03*
X133604000Y-106363000D03*
%TD*%
D46*
%TO.C,Q8*%
X158163500Y-115128000D03*
X158163500Y-117028000D03*
X156288500Y-116078000D03*
%TD*%
D14*
%TO.C,R28*%
X146050000Y-121349000D03*
X146050000Y-122999000D03*
%TD*%
D47*
%TO.C,L1*%
X157721000Y-97790000D03*
D48*
X154191000Y-97790000D03*
%TD*%
D10*
%TO.C,C13*%
X152537074Y-116599000D03*
X152537074Y-115049000D03*
%TD*%
D49*
%TO.C,C23*%
X155207000Y-100838000D03*
X153657000Y-100838000D03*
%TD*%
D13*
%TO.C,C27*%
X138176000Y-91173000D03*
X138176000Y-92723000D03*
%TD*%
D12*
%TO.C,R52*%
X151447000Y-106680000D03*
X149797000Y-106680000D03*
%TD*%
D11*
%TO.C,Q5*%
X123632000Y-103490000D03*
X123632000Y-104140000D03*
X123632000Y-104790000D03*
X121732000Y-104790000D03*
X121732000Y-104140000D03*
X121732000Y-103490000D03*
%TD*%
D12*
%TO.C,R33*%
X146113000Y-117856000D03*
X144463000Y-117856000D03*
%TD*%
D45*
%TO.C,C14*%
X149476074Y-115062000D03*
X151026074Y-115062000D03*
%TD*%
D26*
%TO.C,F7*%
X162534500Y-110109000D03*
X164109500Y-110109000D03*
%TD*%
D27*
%TO.C,R78*%
X125222000Y-100393000D03*
X125222000Y-98743000D03*
%TD*%
D12*
%TO.C,R92*%
X178371000Y-106426000D03*
X176721000Y-106426000D03*
%TD*%
D14*
%TO.C,R85*%
X133096000Y-110935000D03*
X133096000Y-112585000D03*
%TD*%
D50*
%TO.C,F10*%
X157734000Y-85369500D03*
X157734000Y-83794500D03*
%TD*%
D27*
%TO.C,R37*%
X135382000Y-108013000D03*
X135382000Y-106363000D03*
%TD*%
D22*
%TO.C,R98*%
X171641000Y-97282000D03*
X173291000Y-97282000D03*
%TD*%
D10*
%TO.C,C29*%
X128524000Y-97295000D03*
X128524000Y-95745000D03*
%TD*%
D27*
%TO.C,R109*%
X154940000Y-83629000D03*
X154940000Y-81979000D03*
%TD*%
D22*
%TO.C,R94*%
X176721000Y-101854000D03*
X178371000Y-101854000D03*
%TD*%
D12*
%TO.C,R49*%
X161099000Y-108204000D03*
X159449000Y-108204000D03*
%TD*%
D13*
%TO.C,C9*%
X121920000Y-106413000D03*
X121920000Y-107963000D03*
%TD*%
D26*
%TO.C,D3*%
X167106500Y-116840000D03*
X168681500Y-116840000D03*
%TD*%
D14*
%TO.C,R93*%
X175006000Y-95695000D03*
X175006000Y-97345000D03*
%TD*%
D13*
%TO.C,C1*%
X169164000Y-83299000D03*
X169164000Y-84849000D03*
%TD*%
D12*
%TO.C,R24*%
X163893000Y-115062000D03*
X162243000Y-115062000D03*
%TD*%
D14*
%TO.C,R79*%
X127000000Y-95695000D03*
X127000000Y-97345000D03*
%TD*%
D16*
%TO.C,Q20*%
X132908000Y-115458000D03*
X132908000Y-114808000D03*
X132908000Y-114158000D03*
X134808000Y-114158000D03*
X134808000Y-114808000D03*
X134808000Y-115458000D03*
%TD*%
D11*
%TO.C,Q17*%
X144968000Y-88250000D03*
X144968000Y-88900000D03*
X144968000Y-89550000D03*
X143068000Y-89550000D03*
X143068000Y-88900000D03*
X143068000Y-88250000D03*
%TD*%
D14*
%TO.C,R26*%
X148844000Y-125413000D03*
X148844000Y-127063000D03*
%TD*%
D22*
%TO.C,R16*%
X121857000Y-95758000D03*
X123507000Y-95758000D03*
%TD*%
D14*
%TO.C,R27*%
X154178000Y-118301000D03*
X154178000Y-119951000D03*
%TD*%
D22*
%TO.C,R7*%
X127953000Y-82042000D03*
X129603000Y-82042000D03*
%TD*%
D14*
%TO.C,R25*%
X148844000Y-127191000D03*
X148844000Y-128841000D03*
%TD*%
D10*
%TO.C,C3*%
X134619999Y-82055000D03*
X134619999Y-80505000D03*
%TD*%
D22*
%TO.C,R51*%
X159449000Y-105156000D03*
X161099000Y-105156000D03*
%TD*%
D14*
%TO.C,R69*%
X141478000Y-80455000D03*
X141478000Y-82105000D03*
%TD*%
%TO.C,R20*%
X151892000Y-127191000D03*
X151892000Y-128841000D03*
%TD*%
D16*
%TO.C,Q16*%
X143068000Y-84978000D03*
X143068000Y-84328000D03*
X143068000Y-83678000D03*
X144968000Y-83678000D03*
X144968000Y-84328000D03*
X144968000Y-84978000D03*
%TD*%
D13*
%TO.C,C4*%
X128016000Y-91173000D03*
X128016000Y-92723000D03*
%TD*%
D27*
%TO.C,R18*%
X123444000Y-108013000D03*
X123444000Y-106363000D03*
%TD*%
D22*
%TO.C,R65*%
X138113000Y-80518000D03*
X139763000Y-80518000D03*
%TD*%
D14*
%TO.C,R115*%
X173990000Y-81471000D03*
X173990000Y-83121000D03*
%TD*%
D11*
%TO.C,Q25*%
X178496000Y-103490000D03*
X178496000Y-104140000D03*
X178496000Y-104790000D03*
X176596000Y-104790000D03*
X176596000Y-104140000D03*
X176596000Y-103490000D03*
%TD*%
D27*
%TO.C,R57*%
X153416000Y-83629000D03*
X153416000Y-81979000D03*
%TD*%
%TO.C,R113*%
X172212000Y-84899000D03*
X172212000Y-83249000D03*
%TD*%
D12*
%TO.C,R60*%
X151447000Y-109728000D03*
X149797000Y-109728000D03*
%TD*%
D51*
%TO.C,C20*%
X160020000Y-102042000D03*
X160020000Y-100142000D03*
%TD*%
D10*
%TO.C,C30*%
X134619999Y-112535000D03*
X134619999Y-110985000D03*
%TD*%
D52*
%TO.C,U8*%
X151622000Y-86440500D03*
X151122000Y-86440500D03*
X150622000Y-86440500D03*
X150122000Y-86440500D03*
X149622000Y-86440500D03*
X149622000Y-82215500D03*
X150122000Y-82215500D03*
X150622000Y-82215500D03*
X151122000Y-82215500D03*
X151622000Y-82215500D03*
%TD*%
D27*
%TO.C,R14*%
X125222000Y-108013000D03*
X125222000Y-106363000D03*
%TD*%
%TO.C,R121*%
X159258000Y-80327000D03*
X159258000Y-78677000D03*
%TD*%
%TO.C,R53*%
X156210000Y-109791000D03*
X156210000Y-108141000D03*
%TD*%
%TO.C,R63*%
X141478000Y-92773000D03*
X141478000Y-91123000D03*
%TD*%
%TO.C,R8*%
X131318000Y-92773000D03*
X131318000Y-91123000D03*
%TD*%
D22*
%TO.C,R62*%
X138113000Y-82042000D03*
X139763000Y-82042000D03*
%TD*%
D13*
%TO.C,C10*%
X148091428Y-108191000D03*
X148091428Y-109741000D03*
%TD*%
D10*
%TO.C,C32*%
X178308000Y-97295000D03*
X178308000Y-95745000D03*
%TD*%
D22*
%TO.C,R117*%
X162243000Y-87376000D03*
X163893000Y-87376000D03*
%TD*%
D53*
%TO.C,C25*%
X151760000Y-100584000D03*
X149860000Y-100584000D03*
%TD*%
D27*
%TO.C,R84*%
X131318000Y-115633000D03*
X131318000Y-113983000D03*
%TD*%
D12*
%TO.C,R45*%
X138747000Y-107950000D03*
X137097000Y-107950000D03*
%TD*%
D16*
%TO.C,Q1*%
X132907999Y-84978000D03*
X132907999Y-84328000D03*
X132907999Y-83678000D03*
X134807999Y-83678000D03*
X134807999Y-84328000D03*
X134807999Y-84978000D03*
%TD*%
D42*
%TO.C,Q9*%
X163957000Y-117021500D03*
D43*
X160147000Y-122371500D03*
X161417000Y-122371500D03*
X162687000Y-122371500D03*
X163957000Y-122371500D03*
D44*
X162052000Y-120381500D03*
D42*
X160147000Y-117021500D03*
X161417000Y-117021500D03*
X162687000Y-117021500D03*
%TD*%
D14*
%TO.C,R58*%
X154686000Y-108141000D03*
X154686000Y-109791000D03*
%TD*%
D12*
%TO.C,R15*%
X123507000Y-101854000D03*
X121857000Y-101854000D03*
%TD*%
D27*
%TO.C,R96*%
X175006000Y-100393000D03*
X175006000Y-98743000D03*
%TD*%
D14*
%TO.C,R126*%
X165354000Y-84011000D03*
X165354000Y-85661000D03*
%TD*%
D12*
%TO.C,R74*%
X128587000Y-106426000D03*
X126937000Y-106426000D03*
%TD*%
D14*
%TO.C,R40*%
X135382000Y-103315000D03*
X135382000Y-104965000D03*
%TD*%
D22*
%TO.C,R36*%
X132017000Y-97282000D03*
X133667000Y-97282000D03*
%TD*%
D16*
%TO.C,Q4*%
X127828000Y-84978000D03*
X127828000Y-84328000D03*
X127828000Y-83678000D03*
X129728000Y-83678000D03*
X129728000Y-84328000D03*
X129728000Y-84978000D03*
%TD*%
D11*
%TO.C,Q26*%
X173416000Y-103490000D03*
X173416000Y-104140000D03*
X173416000Y-104790000D03*
X171516000Y-104790000D03*
X171516000Y-104140000D03*
X171516000Y-103490000D03*
%TD*%
D14*
%TO.C,R124*%
X166878000Y-84011000D03*
X166878000Y-85661000D03*
%TD*%
D12*
%TO.C,R71*%
X144843000Y-92710000D03*
X143193000Y-92710000D03*
%TD*%
D50*
%TO.C,F5*%
X148082000Y-106705500D03*
X148082000Y-105130500D03*
%TD*%
D54*
%TO.C,J5*%
X140208000Y-75570000D03*
X137668000Y-75570000D03*
X135128000Y-75570000D03*
X132588000Y-75570000D03*
X130048000Y-75570000D03*
X127508000Y-75570000D03*
%TD*%
D11*
%TO.C,Q10*%
X133792000Y-103490000D03*
X133792000Y-104140000D03*
X133792000Y-104790000D03*
X131892000Y-104790000D03*
X131892000Y-104140000D03*
X131892000Y-103490000D03*
%TD*%
D27*
%TO.C,R125*%
X166878000Y-82613000D03*
X166878000Y-80963000D03*
%TD*%
D13*
%TO.C,C33*%
X171704000Y-106413000D03*
X171704000Y-107963000D03*
%TD*%
D12*
%TO.C,R83*%
X134683000Y-123190000D03*
X133033000Y-123190000D03*
%TD*%
%TO.C,R68*%
X144843000Y-91186000D03*
X143193000Y-91186000D03*
%TD*%
D10*
%TO.C,C35*%
X157734000Y-82309000D03*
X157734000Y-80759000D03*
%TD*%
D27*
%TO.C,R116*%
X173990000Y-84899000D03*
X173990000Y-83249000D03*
%TD*%
D22*
%TO.C,R70*%
X143193000Y-86614000D03*
X144843000Y-86614000D03*
%TD*%
D27*
%TO.C,R46*%
X135382000Y-100393000D03*
X135382000Y-98743000D03*
%TD*%
%TO.C,R5*%
X131317999Y-85153000D03*
X131317999Y-83503000D03*
%TD*%
D22*
%TO.C,R89*%
X127953000Y-110998000D03*
X129603000Y-110998000D03*
%TD*%
D21*
%TO.C,F6*%
X162077500Y-113284000D03*
X160502500Y-113284000D03*
%TD*%
D27*
%TO.C,R72*%
X141478000Y-85153000D03*
X141478000Y-83503000D03*
%TD*%
D35*
%TO.C,C19*%
X162609000Y-107696000D03*
X165559000Y-107696000D03*
%TD*%
D12*
%TO.C,R9*%
X129603000Y-86614000D03*
X127953000Y-86614000D03*
%TD*%
D14*
%TO.C,R66*%
X141478000Y-88075000D03*
X141478000Y-89725000D03*
%TD*%
%TO.C,R114*%
X172212000Y-81471000D03*
X172212000Y-83121000D03*
%TD*%
D27*
%TO.C,R127*%
X165354000Y-82613000D03*
X165354000Y-80963000D03*
%TD*%
D14*
%TO.C,R97*%
X176784000Y-95695000D03*
X176784000Y-97345000D03*
%TD*%
%TO.C,R59*%
X153162000Y-108141000D03*
X153162000Y-109791000D03*
%TD*%
D22*
%TO.C,R82*%
X133033000Y-117094000D03*
X134683000Y-117094000D03*
%TD*%
D27*
%TO.C,R103*%
X173228000Y-108013000D03*
X173228000Y-106363000D03*
%TD*%
D22*
%TO.C,R13*%
X121857000Y-97282000D03*
X123507000Y-97282000D03*
%TD*%
D12*
%TO.C,R80*%
X134683000Y-121666000D03*
X133033000Y-121666000D03*
%TD*%
D27*
%TO.C,R99*%
X175006000Y-108013000D03*
X175006000Y-106363000D03*
%TD*%
D10*
%TO.C,C16*%
X138684000Y-97295000D03*
X138684000Y-95745000D03*
%TD*%
D45*
%TO.C,C24*%
X159499000Y-106680000D03*
X161049000Y-106680000D03*
%TD*%
D14*
%TO.C,R31*%
X144526000Y-119571000D03*
X144526000Y-121221000D03*
%TD*%
D22*
%TO.C,R101*%
X171641000Y-95758000D03*
X173291000Y-95758000D03*
%TD*%
D55*
%TO.C,R55*%
X151977500Y-90424000D03*
X157902500Y-90424000D03*
%TD*%
M02*
