%TF.GenerationSoftware,KiCad,Pcbnew,8.0.5*%
%TF.CreationDate,2025-02-27T20:43:24-05:00*%
%TF.ProjectId,Z+,5a2b2e6b-6963-4616-945f-706362585858,rev?*%
%TF.SameCoordinates,Original*%
%TF.FileFunction,Paste,Top*%
%TF.FilePolarity,Positive*%
%FSLAX46Y46*%
G04 Gerber Fmt 4.6, Leading zero omitted, Abs format (unit mm)*
G04 Created by KiCad (PCBNEW 8.0.5) date 2025-02-27 20:43:24*
%MOMM*%
%LPD*%
G01*
G04 APERTURE LIST*
G04 Aperture macros list*
%AMRoundRect*
0 Rectangle with rounded corners*
0 $1 Rounding radius*
0 $2 $3 $4 $5 $6 $7 $8 $9 X,Y pos of 4 corners*
0 Add a 4 corners polygon primitive as box body*
4,1,4,$2,$3,$4,$5,$6,$7,$8,$9,$2,$3,0*
0 Add four circle primitives for the rounded corners*
1,1,$1+$1,$2,$3*
1,1,$1+$1,$4,$5*
1,1,$1+$1,$6,$7*
1,1,$1+$1,$8,$9*
0 Add four rect primitives between the rounded corners*
20,1,$1+$1,$2,$3,$4,$5,0*
20,1,$1+$1,$4,$5,$6,$7,0*
20,1,$1+$1,$6,$7,$8,$9,0*
20,1,$1+$1,$8,$9,$2,$3,0*%
G04 Aperture macros list end*
%ADD10RoundRect,0.250000X-0.950000X-0.500000X0.950000X-0.500000X0.950000X0.500000X-0.950000X0.500000X0*%
%ADD11RoundRect,0.250000X-0.275000X-0.500000X0.275000X-0.500000X0.275000X0.500000X-0.275000X0.500000X0*%
%ADD12RoundRect,0.200000X-0.200000X-0.275000X0.200000X-0.275000X0.200000X0.275000X-0.200000X0.275000X0*%
%ADD13RoundRect,0.218750X0.218750X0.256250X-0.218750X0.256250X-0.218750X-0.256250X0.218750X-0.256250X0*%
%ADD14R,3.000000X1.500000*%
%ADD15RoundRect,0.200000X0.200000X0.275000X-0.200000X0.275000X-0.200000X-0.275000X0.200000X-0.275000X0*%
%ADD16R,1.000000X2.500000*%
%ADD17RoundRect,0.218750X-0.218750X-0.256250X0.218750X-0.256250X0.218750X0.256250X-0.218750X0.256250X0*%
%ADD18C,3.500000*%
%ADD19RoundRect,0.225000X0.225000X0.250000X-0.225000X0.250000X-0.225000X-0.250000X0.225000X-0.250000X0*%
%ADD20R,1.500000X3.000000*%
%ADD21RoundRect,0.200000X-0.275000X0.200000X-0.275000X-0.200000X0.275000X-0.200000X0.275000X0.200000X0*%
%ADD22RoundRect,0.225000X-0.225000X-0.250000X0.225000X-0.250000X0.225000X0.250000X-0.225000X0.250000X0*%
%ADD23R,0.600000X1.150000*%
%ADD24R,0.300000X1.150000*%
%ADD25R,2.180000X2.000000*%
%ADD26RoundRect,0.093750X0.093750X-0.156250X0.093750X0.156250X-0.093750X0.156250X-0.093750X-0.156250X0*%
%ADD27RoundRect,0.075000X0.075000X-0.250000X0.075000X0.250000X-0.075000X0.250000X-0.075000X-0.250000X0*%
%ADD28RoundRect,0.218750X0.256250X-0.218750X0.256250X0.218750X-0.256250X0.218750X-0.256250X-0.218750X0*%
%ADD29RoundRect,0.225000X0.250000X-0.225000X0.250000X0.225000X-0.250000X0.225000X-0.250000X-0.225000X0*%
%ADD30RoundRect,0.225000X-0.250000X0.225000X-0.250000X-0.225000X0.250000X-0.225000X0.250000X0.225000X0*%
%ADD31RoundRect,0.200000X0.275000X-0.200000X0.275000X0.200000X-0.275000X0.200000X-0.275000X-0.200000X0*%
%ADD32RoundRect,0.218750X-0.256250X0.218750X-0.256250X-0.218750X0.256250X-0.218750X0.256250X0.218750X0*%
G04 APERTURE END LIST*
D10*
%TO.C,D9*%
X129120000Y-138684000D03*
D11*
X126745000Y-138684000D03*
%TD*%
D12*
%TO.C,R104*%
X161227000Y-54102000D03*
X162877000Y-54102000D03*
%TD*%
D13*
%TO.C,F3*%
X165633500Y-149352000D03*
X164058500Y-149352000D03*
%TD*%
D14*
%TO.C,U3*%
X104140000Y-109854000D03*
X104140000Y-105854000D03*
X104140000Y-101854000D03*
X104140000Y-97854000D03*
X104140000Y-93854000D03*
%TD*%
D15*
%TO.C,R112*%
X179133000Y-62484000D03*
X177483000Y-62484000D03*
%TD*%
D16*
%TO.C,J4*%
X110744000Y-63632000D03*
X113284000Y-63632000D03*
X115824000Y-63632000D03*
X118364000Y-63632000D03*
X120904000Y-63632000D03*
X123444000Y-63632000D03*
%TD*%
D10*
%TO.C,D10*%
X173062000Y-138430000D03*
D11*
X170687000Y-138430000D03*
%TD*%
D17*
%TO.C,F1*%
X134594500Y-54102000D03*
X136169500Y-54102000D03*
%TD*%
D18*
%TO.C,SC5*%
X143449274Y-125222000D03*
X147093274Y-125222000D03*
X111093274Y-125222000D03*
X114853274Y-125222000D03*
%TD*%
D12*
%TO.C,R111*%
X187643000Y-62484000D03*
X189293000Y-62484000D03*
%TD*%
D19*
%TO.C,C8*%
X139459000Y-54102000D03*
X137909000Y-54102000D03*
%TD*%
D18*
%TO.C,SC3*%
X157053674Y-101854000D03*
X153409674Y-101854000D03*
X189409674Y-101854000D03*
X185649674Y-101854000D03*
%TD*%
%TO.C,SC1*%
X143449274Y-78486000D03*
X147093274Y-78486000D03*
X111093274Y-78486000D03*
X114853274Y-78486000D03*
%TD*%
D15*
%TO.C,R106*%
X139255000Y-149352000D03*
X137605000Y-149352000D03*
%TD*%
D14*
%TO.C,U5*%
X196596000Y-93854000D03*
X196596000Y-97854000D03*
X196596000Y-101854000D03*
X196596000Y-105854000D03*
X196596000Y-109854000D03*
%TD*%
D20*
%TO.C,U2*%
X142368000Y-55626000D03*
X146368000Y-55626000D03*
X150368000Y-55626000D03*
X154368000Y-55626000D03*
X158368000Y-55626000D03*
%TD*%
D21*
%TO.C,R107*%
X198120000Y-112713000D03*
X198120000Y-114363000D03*
%TD*%
D20*
%TO.C,U4*%
X158368000Y-147828000D03*
X154368000Y-147828000D03*
X150368000Y-147828000D03*
X146368000Y-147828000D03*
X142368000Y-147828000D03*
%TD*%
D18*
%TO.C,SC4*%
X114737274Y-101854000D03*
X111093274Y-101854000D03*
X147093274Y-101854000D03*
X143333274Y-101854000D03*
%TD*%
%TO.C,SC2*%
X185765674Y-78486000D03*
X189409674Y-78486000D03*
X153409674Y-78486000D03*
X157169674Y-78486000D03*
%TD*%
D10*
%TO.C,D6*%
X168998000Y-65024000D03*
D11*
X166623000Y-65024000D03*
%TD*%
D18*
%TO.C,SC6*%
X185765674Y-125222000D03*
X189409674Y-125222000D03*
X153409674Y-125222000D03*
X157169674Y-125222000D03*
%TD*%
D22*
%TO.C,C6*%
X160769000Y-149352000D03*
X162319000Y-149352000D03*
%TD*%
D23*
%TO.C,J3*%
X186588000Y-60541500D03*
X185788000Y-60541500D03*
D24*
X184638000Y-60541500D03*
X183638000Y-60541500D03*
X183138000Y-60541500D03*
X182138000Y-60541500D03*
D23*
X180188000Y-60541500D03*
X180988000Y-60541500D03*
D24*
X181638000Y-60541500D03*
X182638000Y-60541500D03*
X184138000Y-60541500D03*
X185138000Y-60541500D03*
D25*
X188498000Y-59966500D03*
X178278000Y-59966500D03*
X188498000Y-56036500D03*
X178278000Y-56036500D03*
%TD*%
D26*
%TO.C,U1*%
X182850500Y-65366000D03*
D27*
X183388000Y-65441000D03*
D26*
X183925500Y-65366000D03*
X183925500Y-63666000D03*
D27*
X183388000Y-63591000D03*
D26*
X182850500Y-63666000D03*
%TD*%
D28*
%TO.C,F2*%
X102616000Y-117373500D03*
X102616000Y-115798500D03*
%TD*%
D29*
%TO.C,C7*%
X197866000Y-91199000D03*
X197866000Y-89649000D03*
%TD*%
D10*
%TO.C,D5*%
X163664000Y-65024000D03*
D11*
X161289000Y-65024000D03*
%TD*%
D30*
%TO.C,C5*%
X102616000Y-112509000D03*
X102616000Y-114059000D03*
%TD*%
D22*
%TO.C,C34*%
X185407000Y-65278000D03*
X186957000Y-65278000D03*
%TD*%
D31*
%TO.C,R105*%
X102616000Y-90995000D03*
X102616000Y-89345000D03*
%TD*%
D32*
%TO.C,F4*%
X197866000Y-86334500D03*
X197866000Y-87909500D03*
%TD*%
M02*
