%TF.GenerationSoftware,KiCad,Pcbnew,8.0.5*%
%TF.CreationDate,2025-02-27T20:43:24-05:00*%
%TF.ProjectId,Z+,5a2b2e6b-6963-4616-945f-706362585858,rev?*%
%TF.SameCoordinates,Original*%
%TF.FileFunction,Legend,Top*%
%TF.FilePolarity,Positive*%
%FSLAX46Y46*%
G04 Gerber Fmt 4.6, Leading zero omitted, Abs format (unit mm)*
G04 Created by KiCad (PCBNEW 8.0.5) date 2025-02-27 20:43:24*
%MOMM*%
%LPD*%
G01*
G04 APERTURE LIST*
%ADD10C,0.101600*%
%ADD11C,0.120000*%
%ADD12C,0.200000*%
%ADD13C,0.250000*%
%ADD14C,0.150000*%
G04 APERTURE END LIST*
D10*
X114110747Y-65138586D02*
X114074461Y-65211158D01*
X114074461Y-65211158D02*
X114074461Y-65320015D01*
X114074461Y-65320015D02*
X114110747Y-65428872D01*
X114110747Y-65428872D02*
X114183318Y-65501443D01*
X114183318Y-65501443D02*
X114255890Y-65537729D01*
X114255890Y-65537729D02*
X114401033Y-65574015D01*
X114401033Y-65574015D02*
X114509890Y-65574015D01*
X114509890Y-65574015D02*
X114655033Y-65537729D01*
X114655033Y-65537729D02*
X114727604Y-65501443D01*
X114727604Y-65501443D02*
X114800176Y-65428872D01*
X114800176Y-65428872D02*
X114836461Y-65320015D01*
X114836461Y-65320015D02*
X114836461Y-65247443D01*
X114836461Y-65247443D02*
X114800176Y-65138586D01*
X114800176Y-65138586D02*
X114763890Y-65102300D01*
X114763890Y-65102300D02*
X114509890Y-65102300D01*
X114509890Y-65102300D02*
X114509890Y-65247443D01*
X114836461Y-64340300D02*
X114473604Y-64594300D01*
X114836461Y-64775729D02*
X114074461Y-64775729D01*
X114074461Y-64775729D02*
X114074461Y-64485443D01*
X114074461Y-64485443D02*
X114110747Y-64412872D01*
X114110747Y-64412872D02*
X114147033Y-64376586D01*
X114147033Y-64376586D02*
X114219604Y-64340300D01*
X114219604Y-64340300D02*
X114328461Y-64340300D01*
X114328461Y-64340300D02*
X114401033Y-64376586D01*
X114401033Y-64376586D02*
X114437318Y-64412872D01*
X114437318Y-64412872D02*
X114473604Y-64485443D01*
X114473604Y-64485443D02*
X114473604Y-64775729D01*
X114437318Y-64013729D02*
X114437318Y-63759729D01*
X114836461Y-63650872D02*
X114836461Y-64013729D01*
X114836461Y-64013729D02*
X114074461Y-64013729D01*
X114074461Y-64013729D02*
X114074461Y-63650872D01*
X114437318Y-63070300D02*
X114437318Y-63324300D01*
X114836461Y-63324300D02*
X114074461Y-63324300D01*
X114074461Y-63324300D02*
X114074461Y-62961443D01*
X119154461Y-65646586D02*
X119916461Y-65392586D01*
X119916461Y-65392586D02*
X119154461Y-65138586D01*
X119880176Y-64920872D02*
X119916461Y-64812015D01*
X119916461Y-64812015D02*
X119916461Y-64630586D01*
X119916461Y-64630586D02*
X119880176Y-64558015D01*
X119880176Y-64558015D02*
X119843890Y-64521729D01*
X119843890Y-64521729D02*
X119771318Y-64485443D01*
X119771318Y-64485443D02*
X119698747Y-64485443D01*
X119698747Y-64485443D02*
X119626176Y-64521729D01*
X119626176Y-64521729D02*
X119589890Y-64558015D01*
X119589890Y-64558015D02*
X119553604Y-64630586D01*
X119553604Y-64630586D02*
X119517318Y-64775729D01*
X119517318Y-64775729D02*
X119481033Y-64848300D01*
X119481033Y-64848300D02*
X119444747Y-64884586D01*
X119444747Y-64884586D02*
X119372176Y-64920872D01*
X119372176Y-64920872D02*
X119299604Y-64920872D01*
X119299604Y-64920872D02*
X119227033Y-64884586D01*
X119227033Y-64884586D02*
X119190747Y-64848300D01*
X119190747Y-64848300D02*
X119154461Y-64775729D01*
X119154461Y-64775729D02*
X119154461Y-64594300D01*
X119154461Y-64594300D02*
X119190747Y-64485443D01*
X119553604Y-64013729D02*
X119916461Y-64013729D01*
X119154461Y-64267729D02*
X119553604Y-64013729D01*
X119553604Y-64013729D02*
X119154461Y-63759729D01*
X119880176Y-63542015D02*
X119916461Y-63433158D01*
X119916461Y-63433158D02*
X119916461Y-63251729D01*
X119916461Y-63251729D02*
X119880176Y-63179158D01*
X119880176Y-63179158D02*
X119843890Y-63142872D01*
X119843890Y-63142872D02*
X119771318Y-63106586D01*
X119771318Y-63106586D02*
X119698747Y-63106586D01*
X119698747Y-63106586D02*
X119626176Y-63142872D01*
X119626176Y-63142872D02*
X119589890Y-63179158D01*
X119589890Y-63179158D02*
X119553604Y-63251729D01*
X119553604Y-63251729D02*
X119517318Y-63396872D01*
X119517318Y-63396872D02*
X119481033Y-63469443D01*
X119481033Y-63469443D02*
X119444747Y-63505729D01*
X119444747Y-63505729D02*
X119372176Y-63542015D01*
X119372176Y-63542015D02*
X119299604Y-63542015D01*
X119299604Y-63542015D02*
X119227033Y-63505729D01*
X119227033Y-63505729D02*
X119190747Y-63469443D01*
X119190747Y-63469443D02*
X119154461Y-63396872D01*
X119154461Y-63396872D02*
X119154461Y-63215443D01*
X119154461Y-63215443D02*
X119190747Y-63106586D01*
X124234461Y-65646586D02*
X124996461Y-65392586D01*
X124996461Y-65392586D02*
X124234461Y-65138586D01*
X124597318Y-64630586D02*
X124633604Y-64521729D01*
X124633604Y-64521729D02*
X124669890Y-64485443D01*
X124669890Y-64485443D02*
X124742461Y-64449157D01*
X124742461Y-64449157D02*
X124851318Y-64449157D01*
X124851318Y-64449157D02*
X124923890Y-64485443D01*
X124923890Y-64485443D02*
X124960176Y-64521729D01*
X124960176Y-64521729D02*
X124996461Y-64594300D01*
X124996461Y-64594300D02*
X124996461Y-64884586D01*
X124996461Y-64884586D02*
X124234461Y-64884586D01*
X124234461Y-64884586D02*
X124234461Y-64630586D01*
X124234461Y-64630586D02*
X124270747Y-64558015D01*
X124270747Y-64558015D02*
X124307033Y-64521729D01*
X124307033Y-64521729D02*
X124379604Y-64485443D01*
X124379604Y-64485443D02*
X124452176Y-64485443D01*
X124452176Y-64485443D02*
X124524747Y-64521729D01*
X124524747Y-64521729D02*
X124561033Y-64558015D01*
X124561033Y-64558015D02*
X124597318Y-64630586D01*
X124597318Y-64630586D02*
X124597318Y-64884586D01*
X124778747Y-64158872D02*
X124778747Y-63796015D01*
X124996461Y-64231443D02*
X124234461Y-63977443D01*
X124234461Y-63977443D02*
X124996461Y-63723443D01*
X124234461Y-63578300D02*
X124234461Y-63142872D01*
X124996461Y-63360586D02*
X124234461Y-63360586D01*
X111443747Y-65138586D02*
X111407461Y-65211158D01*
X111407461Y-65211158D02*
X111407461Y-65320015D01*
X111407461Y-65320015D02*
X111443747Y-65428872D01*
X111443747Y-65428872D02*
X111516318Y-65501443D01*
X111516318Y-65501443D02*
X111588890Y-65537729D01*
X111588890Y-65537729D02*
X111734033Y-65574015D01*
X111734033Y-65574015D02*
X111842890Y-65574015D01*
X111842890Y-65574015D02*
X111988033Y-65537729D01*
X111988033Y-65537729D02*
X112060604Y-65501443D01*
X112060604Y-65501443D02*
X112133176Y-65428872D01*
X112133176Y-65428872D02*
X112169461Y-65320015D01*
X112169461Y-65320015D02*
X112169461Y-65247443D01*
X112169461Y-65247443D02*
X112133176Y-65138586D01*
X112133176Y-65138586D02*
X112096890Y-65102300D01*
X112096890Y-65102300D02*
X111842890Y-65102300D01*
X111842890Y-65102300D02*
X111842890Y-65247443D01*
X112169461Y-64775729D02*
X111407461Y-64775729D01*
X111407461Y-64775729D02*
X112169461Y-64340300D01*
X112169461Y-64340300D02*
X111407461Y-64340300D01*
X112169461Y-63977443D02*
X111407461Y-63977443D01*
X111407461Y-63977443D02*
X111407461Y-63796014D01*
X111407461Y-63796014D02*
X111443747Y-63687157D01*
X111443747Y-63687157D02*
X111516318Y-63614586D01*
X111516318Y-63614586D02*
X111588890Y-63578300D01*
X111588890Y-63578300D02*
X111734033Y-63542014D01*
X111734033Y-63542014D02*
X111842890Y-63542014D01*
X111842890Y-63542014D02*
X111988033Y-63578300D01*
X111988033Y-63578300D02*
X112060604Y-63614586D01*
X112060604Y-63614586D02*
X112133176Y-63687157D01*
X112133176Y-63687157D02*
X112169461Y-63796014D01*
X112169461Y-63796014D02*
X112169461Y-63977443D01*
X122057318Y-65283729D02*
X122093604Y-65174872D01*
X122093604Y-65174872D02*
X122129890Y-65138586D01*
X122129890Y-65138586D02*
X122202461Y-65102300D01*
X122202461Y-65102300D02*
X122311318Y-65102300D01*
X122311318Y-65102300D02*
X122383890Y-65138586D01*
X122383890Y-65138586D02*
X122420176Y-65174872D01*
X122420176Y-65174872D02*
X122456461Y-65247443D01*
X122456461Y-65247443D02*
X122456461Y-65537729D01*
X122456461Y-65537729D02*
X121694461Y-65537729D01*
X121694461Y-65537729D02*
X121694461Y-65283729D01*
X121694461Y-65283729D02*
X121730747Y-65211158D01*
X121730747Y-65211158D02*
X121767033Y-65174872D01*
X121767033Y-65174872D02*
X121839604Y-65138586D01*
X121839604Y-65138586D02*
X121912176Y-65138586D01*
X121912176Y-65138586D02*
X121984747Y-65174872D01*
X121984747Y-65174872D02*
X122021033Y-65211158D01*
X122021033Y-65211158D02*
X122057318Y-65283729D01*
X122057318Y-65283729D02*
X122057318Y-65537729D01*
X122238747Y-64812015D02*
X122238747Y-64449158D01*
X122456461Y-64884586D02*
X121694461Y-64630586D01*
X121694461Y-64630586D02*
X122456461Y-64376586D01*
X121694461Y-64231443D02*
X121694461Y-63796015D01*
X122456461Y-64013729D02*
X121694461Y-64013729D01*
X117340176Y-65574015D02*
X117376461Y-65465158D01*
X117376461Y-65465158D02*
X117376461Y-65283729D01*
X117376461Y-65283729D02*
X117340176Y-65211158D01*
X117340176Y-65211158D02*
X117303890Y-65174872D01*
X117303890Y-65174872D02*
X117231318Y-65138586D01*
X117231318Y-65138586D02*
X117158747Y-65138586D01*
X117158747Y-65138586D02*
X117086176Y-65174872D01*
X117086176Y-65174872D02*
X117049890Y-65211158D01*
X117049890Y-65211158D02*
X117013604Y-65283729D01*
X117013604Y-65283729D02*
X116977318Y-65428872D01*
X116977318Y-65428872D02*
X116941033Y-65501443D01*
X116941033Y-65501443D02*
X116904747Y-65537729D01*
X116904747Y-65537729D02*
X116832176Y-65574015D01*
X116832176Y-65574015D02*
X116759604Y-65574015D01*
X116759604Y-65574015D02*
X116687033Y-65537729D01*
X116687033Y-65537729D02*
X116650747Y-65501443D01*
X116650747Y-65501443D02*
X116614461Y-65428872D01*
X116614461Y-65428872D02*
X116614461Y-65247443D01*
X116614461Y-65247443D02*
X116650747Y-65138586D01*
X117013604Y-64666872D02*
X117376461Y-64666872D01*
X116614461Y-64920872D02*
X117013604Y-64666872D01*
X117013604Y-64666872D02*
X116614461Y-64412872D01*
X117340176Y-64195158D02*
X117376461Y-64086301D01*
X117376461Y-64086301D02*
X117376461Y-63904872D01*
X117376461Y-63904872D02*
X117340176Y-63832301D01*
X117340176Y-63832301D02*
X117303890Y-63796015D01*
X117303890Y-63796015D02*
X117231318Y-63759729D01*
X117231318Y-63759729D02*
X117158747Y-63759729D01*
X117158747Y-63759729D02*
X117086176Y-63796015D01*
X117086176Y-63796015D02*
X117049890Y-63832301D01*
X117049890Y-63832301D02*
X117013604Y-63904872D01*
X117013604Y-63904872D02*
X116977318Y-64050015D01*
X116977318Y-64050015D02*
X116941033Y-64122586D01*
X116941033Y-64122586D02*
X116904747Y-64158872D01*
X116904747Y-64158872D02*
X116832176Y-64195158D01*
X116832176Y-64195158D02*
X116759604Y-64195158D01*
X116759604Y-64195158D02*
X116687033Y-64158872D01*
X116687033Y-64158872D02*
X116650747Y-64122586D01*
X116650747Y-64122586D02*
X116614461Y-64050015D01*
X116614461Y-64050015D02*
X116614461Y-63868586D01*
X116614461Y-63868586D02*
X116650747Y-63759729D01*
X127707571Y-141031231D02*
X127707571Y-140269231D01*
X127707571Y-140269231D02*
X127889000Y-140269231D01*
X127889000Y-140269231D02*
X127997857Y-140305517D01*
X127997857Y-140305517D02*
X128070428Y-140378088D01*
X128070428Y-140378088D02*
X128106714Y-140450660D01*
X128106714Y-140450660D02*
X128143000Y-140595803D01*
X128143000Y-140595803D02*
X128143000Y-140704660D01*
X128143000Y-140704660D02*
X128106714Y-140849803D01*
X128106714Y-140849803D02*
X128070428Y-140922374D01*
X128070428Y-140922374D02*
X127997857Y-140994946D01*
X127997857Y-140994946D02*
X127889000Y-141031231D01*
X127889000Y-141031231D02*
X127707571Y-141031231D01*
X128505857Y-141031231D02*
X128651000Y-141031231D01*
X128651000Y-141031231D02*
X128723571Y-140994946D01*
X128723571Y-140994946D02*
X128759857Y-140958660D01*
X128759857Y-140958660D02*
X128832428Y-140849803D01*
X128832428Y-140849803D02*
X128868714Y-140704660D01*
X128868714Y-140704660D02*
X128868714Y-140414374D01*
X128868714Y-140414374D02*
X128832428Y-140341803D01*
X128832428Y-140341803D02*
X128796143Y-140305517D01*
X128796143Y-140305517D02*
X128723571Y-140269231D01*
X128723571Y-140269231D02*
X128578428Y-140269231D01*
X128578428Y-140269231D02*
X128505857Y-140305517D01*
X128505857Y-140305517D02*
X128469571Y-140341803D01*
X128469571Y-140341803D02*
X128433285Y-140414374D01*
X128433285Y-140414374D02*
X128433285Y-140595803D01*
X128433285Y-140595803D02*
X128469571Y-140668374D01*
X128469571Y-140668374D02*
X128505857Y-140704660D01*
X128505857Y-140704660D02*
X128578428Y-140740946D01*
X128578428Y-140740946D02*
X128723571Y-140740946D01*
X128723571Y-140740946D02*
X128796143Y-140704660D01*
X128796143Y-140704660D02*
X128832428Y-140668374D01*
X128832428Y-140668374D02*
X128868714Y-140595803D01*
X161199286Y-55973231D02*
X160945286Y-55610374D01*
X160763857Y-55973231D02*
X160763857Y-55211231D01*
X160763857Y-55211231D02*
X161054143Y-55211231D01*
X161054143Y-55211231D02*
X161126714Y-55247517D01*
X161126714Y-55247517D02*
X161163000Y-55283803D01*
X161163000Y-55283803D02*
X161199286Y-55356374D01*
X161199286Y-55356374D02*
X161199286Y-55465231D01*
X161199286Y-55465231D02*
X161163000Y-55537803D01*
X161163000Y-55537803D02*
X161126714Y-55574088D01*
X161126714Y-55574088D02*
X161054143Y-55610374D01*
X161054143Y-55610374D02*
X160763857Y-55610374D01*
X161925000Y-55973231D02*
X161489571Y-55973231D01*
X161707286Y-55973231D02*
X161707286Y-55211231D01*
X161707286Y-55211231D02*
X161634714Y-55320088D01*
X161634714Y-55320088D02*
X161562143Y-55392660D01*
X161562143Y-55392660D02*
X161489571Y-55428946D01*
X162396714Y-55211231D02*
X162469285Y-55211231D01*
X162469285Y-55211231D02*
X162541857Y-55247517D01*
X162541857Y-55247517D02*
X162578143Y-55283803D01*
X162578143Y-55283803D02*
X162614428Y-55356374D01*
X162614428Y-55356374D02*
X162650714Y-55501517D01*
X162650714Y-55501517D02*
X162650714Y-55682946D01*
X162650714Y-55682946D02*
X162614428Y-55828088D01*
X162614428Y-55828088D02*
X162578143Y-55900660D01*
X162578143Y-55900660D02*
X162541857Y-55936946D01*
X162541857Y-55936946D02*
X162469285Y-55973231D01*
X162469285Y-55973231D02*
X162396714Y-55973231D01*
X162396714Y-55973231D02*
X162324143Y-55936946D01*
X162324143Y-55936946D02*
X162287857Y-55900660D01*
X162287857Y-55900660D02*
X162251571Y-55828088D01*
X162251571Y-55828088D02*
X162215285Y-55682946D01*
X162215285Y-55682946D02*
X162215285Y-55501517D01*
X162215285Y-55501517D02*
X162251571Y-55356374D01*
X162251571Y-55356374D02*
X162287857Y-55283803D01*
X162287857Y-55283803D02*
X162324143Y-55247517D01*
X162324143Y-55247517D02*
X162396714Y-55211231D01*
X163303857Y-55465231D02*
X163303857Y-55973231D01*
X163122428Y-55174946D02*
X162940999Y-55719231D01*
X162940999Y-55719231D02*
X163412714Y-55719231D01*
X164592000Y-147903088D02*
X164338000Y-147903088D01*
X164338000Y-148302231D02*
X164338000Y-147540231D01*
X164338000Y-147540231D02*
X164700857Y-147540231D01*
X164918572Y-147540231D02*
X165390286Y-147540231D01*
X165390286Y-147540231D02*
X165136286Y-147830517D01*
X165136286Y-147830517D02*
X165245143Y-147830517D01*
X165245143Y-147830517D02*
X165317715Y-147866803D01*
X165317715Y-147866803D02*
X165354000Y-147903088D01*
X165354000Y-147903088D02*
X165390286Y-147975660D01*
X165390286Y-147975660D02*
X165390286Y-148157088D01*
X165390286Y-148157088D02*
X165354000Y-148229660D01*
X165354000Y-148229660D02*
X165317715Y-148265946D01*
X165317715Y-148265946D02*
X165245143Y-148302231D01*
X165245143Y-148302231D02*
X165027429Y-148302231D01*
X165027429Y-148302231D02*
X164954857Y-148265946D01*
X164954857Y-148265946D02*
X164918572Y-148229660D01*
X177455286Y-64261231D02*
X177201286Y-63898374D01*
X177019857Y-64261231D02*
X177019857Y-63499231D01*
X177019857Y-63499231D02*
X177310143Y-63499231D01*
X177310143Y-63499231D02*
X177382714Y-63535517D01*
X177382714Y-63535517D02*
X177419000Y-63571803D01*
X177419000Y-63571803D02*
X177455286Y-63644374D01*
X177455286Y-63644374D02*
X177455286Y-63753231D01*
X177455286Y-63753231D02*
X177419000Y-63825803D01*
X177419000Y-63825803D02*
X177382714Y-63862088D01*
X177382714Y-63862088D02*
X177310143Y-63898374D01*
X177310143Y-63898374D02*
X177019857Y-63898374D01*
X178181000Y-64261231D02*
X177745571Y-64261231D01*
X177963286Y-64261231D02*
X177963286Y-63499231D01*
X177963286Y-63499231D02*
X177890714Y-63608088D01*
X177890714Y-63608088D02*
X177818143Y-63680660D01*
X177818143Y-63680660D02*
X177745571Y-63716946D01*
X178906714Y-64261231D02*
X178471285Y-64261231D01*
X178689000Y-64261231D02*
X178689000Y-63499231D01*
X178689000Y-63499231D02*
X178616428Y-63608088D01*
X178616428Y-63608088D02*
X178543857Y-63680660D01*
X178543857Y-63680660D02*
X178471285Y-63716946D01*
X179196999Y-63571803D02*
X179233285Y-63535517D01*
X179233285Y-63535517D02*
X179305857Y-63499231D01*
X179305857Y-63499231D02*
X179487285Y-63499231D01*
X179487285Y-63499231D02*
X179559857Y-63535517D01*
X179559857Y-63535517D02*
X179596142Y-63571803D01*
X179596142Y-63571803D02*
X179632428Y-63644374D01*
X179632428Y-63644374D02*
X179632428Y-63716946D01*
X179632428Y-63716946D02*
X179596142Y-63825803D01*
X179596142Y-63825803D02*
X179160714Y-64261231D01*
X179160714Y-64261231D02*
X179632428Y-64261231D01*
X116840000Y-59783231D02*
X116840000Y-60327517D01*
X116840000Y-60327517D02*
X116803715Y-60436374D01*
X116803715Y-60436374D02*
X116731143Y-60508946D01*
X116731143Y-60508946D02*
X116622286Y-60545231D01*
X116622286Y-60545231D02*
X116549715Y-60545231D01*
X117529429Y-60037231D02*
X117529429Y-60545231D01*
X117348000Y-59746946D02*
X117166571Y-60291231D01*
X117166571Y-60291231D02*
X117638286Y-60291231D01*
X171286714Y-140777231D02*
X171286714Y-140015231D01*
X171286714Y-140015231D02*
X171468143Y-140015231D01*
X171468143Y-140015231D02*
X171577000Y-140051517D01*
X171577000Y-140051517D02*
X171649571Y-140124088D01*
X171649571Y-140124088D02*
X171685857Y-140196660D01*
X171685857Y-140196660D02*
X171722143Y-140341803D01*
X171722143Y-140341803D02*
X171722143Y-140450660D01*
X171722143Y-140450660D02*
X171685857Y-140595803D01*
X171685857Y-140595803D02*
X171649571Y-140668374D01*
X171649571Y-140668374D02*
X171577000Y-140740946D01*
X171577000Y-140740946D02*
X171468143Y-140777231D01*
X171468143Y-140777231D02*
X171286714Y-140777231D01*
X172447857Y-140777231D02*
X172012428Y-140777231D01*
X172230143Y-140777231D02*
X172230143Y-140015231D01*
X172230143Y-140015231D02*
X172157571Y-140124088D01*
X172157571Y-140124088D02*
X172085000Y-140196660D01*
X172085000Y-140196660D02*
X172012428Y-140232946D01*
X172919571Y-140015231D02*
X172992142Y-140015231D01*
X172992142Y-140015231D02*
X173064714Y-140051517D01*
X173064714Y-140051517D02*
X173101000Y-140087803D01*
X173101000Y-140087803D02*
X173137285Y-140160374D01*
X173137285Y-140160374D02*
X173173571Y-140305517D01*
X173173571Y-140305517D02*
X173173571Y-140486946D01*
X173173571Y-140486946D02*
X173137285Y-140632088D01*
X173137285Y-140632088D02*
X173101000Y-140704660D01*
X173101000Y-140704660D02*
X173064714Y-140740946D01*
X173064714Y-140740946D02*
X172992142Y-140777231D01*
X172992142Y-140777231D02*
X172919571Y-140777231D01*
X172919571Y-140777231D02*
X172847000Y-140740946D01*
X172847000Y-140740946D02*
X172810714Y-140704660D01*
X172810714Y-140704660D02*
X172774428Y-140632088D01*
X172774428Y-140632088D02*
X172738142Y-140486946D01*
X172738142Y-140486946D02*
X172738142Y-140305517D01*
X172738142Y-140305517D02*
X172774428Y-140160374D01*
X172774428Y-140160374D02*
X172810714Y-140087803D01*
X172810714Y-140087803D02*
X172847000Y-140051517D01*
X172847000Y-140051517D02*
X172919571Y-140015231D01*
X135128000Y-55574088D02*
X134874000Y-55574088D01*
X134874000Y-55973231D02*
X134874000Y-55211231D01*
X134874000Y-55211231D02*
X135236857Y-55211231D01*
X135926286Y-55973231D02*
X135490857Y-55973231D01*
X135708572Y-55973231D02*
X135708572Y-55211231D01*
X135708572Y-55211231D02*
X135636000Y-55320088D01*
X135636000Y-55320088D02*
X135563429Y-55392660D01*
X135563429Y-55392660D02*
X135490857Y-55428946D01*
X187615286Y-61401231D02*
X187361286Y-61038374D01*
X187179857Y-61401231D02*
X187179857Y-60639231D01*
X187179857Y-60639231D02*
X187470143Y-60639231D01*
X187470143Y-60639231D02*
X187542714Y-60675517D01*
X187542714Y-60675517D02*
X187579000Y-60711803D01*
X187579000Y-60711803D02*
X187615286Y-60784374D01*
X187615286Y-60784374D02*
X187615286Y-60893231D01*
X187615286Y-60893231D02*
X187579000Y-60965803D01*
X187579000Y-60965803D02*
X187542714Y-61002088D01*
X187542714Y-61002088D02*
X187470143Y-61038374D01*
X187470143Y-61038374D02*
X187179857Y-61038374D01*
X188341000Y-61401231D02*
X187905571Y-61401231D01*
X188123286Y-61401231D02*
X188123286Y-60639231D01*
X188123286Y-60639231D02*
X188050714Y-60748088D01*
X188050714Y-60748088D02*
X187978143Y-60820660D01*
X187978143Y-60820660D02*
X187905571Y-60856946D01*
X189066714Y-61401231D02*
X188631285Y-61401231D01*
X188849000Y-61401231D02*
X188849000Y-60639231D01*
X188849000Y-60639231D02*
X188776428Y-60748088D01*
X188776428Y-60748088D02*
X188703857Y-60820660D01*
X188703857Y-60820660D02*
X188631285Y-60856946D01*
X189792428Y-61401231D02*
X189356999Y-61401231D01*
X189574714Y-61401231D02*
X189574714Y-60639231D01*
X189574714Y-60639231D02*
X189502142Y-60748088D01*
X189502142Y-60748088D02*
X189429571Y-60820660D01*
X189429571Y-60820660D02*
X189356999Y-60856946D01*
X138557000Y-55806660D02*
X138520714Y-55842946D01*
X138520714Y-55842946D02*
X138411857Y-55879231D01*
X138411857Y-55879231D02*
X138339285Y-55879231D01*
X138339285Y-55879231D02*
X138230428Y-55842946D01*
X138230428Y-55842946D02*
X138157857Y-55770374D01*
X138157857Y-55770374D02*
X138121571Y-55697803D01*
X138121571Y-55697803D02*
X138085285Y-55552660D01*
X138085285Y-55552660D02*
X138085285Y-55443803D01*
X138085285Y-55443803D02*
X138121571Y-55298660D01*
X138121571Y-55298660D02*
X138157857Y-55226088D01*
X138157857Y-55226088D02*
X138230428Y-55153517D01*
X138230428Y-55153517D02*
X138339285Y-55117231D01*
X138339285Y-55117231D02*
X138411857Y-55117231D01*
X138411857Y-55117231D02*
X138520714Y-55153517D01*
X138520714Y-55153517D02*
X138557000Y-55189803D01*
X138992428Y-55443803D02*
X138919857Y-55407517D01*
X138919857Y-55407517D02*
X138883571Y-55371231D01*
X138883571Y-55371231D02*
X138847285Y-55298660D01*
X138847285Y-55298660D02*
X138847285Y-55262374D01*
X138847285Y-55262374D02*
X138883571Y-55189803D01*
X138883571Y-55189803D02*
X138919857Y-55153517D01*
X138919857Y-55153517D02*
X138992428Y-55117231D01*
X138992428Y-55117231D02*
X139137571Y-55117231D01*
X139137571Y-55117231D02*
X139210143Y-55153517D01*
X139210143Y-55153517D02*
X139246428Y-55189803D01*
X139246428Y-55189803D02*
X139282714Y-55262374D01*
X139282714Y-55262374D02*
X139282714Y-55298660D01*
X139282714Y-55298660D02*
X139246428Y-55371231D01*
X139246428Y-55371231D02*
X139210143Y-55407517D01*
X139210143Y-55407517D02*
X139137571Y-55443803D01*
X139137571Y-55443803D02*
X138992428Y-55443803D01*
X138992428Y-55443803D02*
X138919857Y-55480088D01*
X138919857Y-55480088D02*
X138883571Y-55516374D01*
X138883571Y-55516374D02*
X138847285Y-55588946D01*
X138847285Y-55588946D02*
X138847285Y-55734088D01*
X138847285Y-55734088D02*
X138883571Y-55806660D01*
X138883571Y-55806660D02*
X138919857Y-55842946D01*
X138919857Y-55842946D02*
X138992428Y-55879231D01*
X138992428Y-55879231D02*
X139137571Y-55879231D01*
X139137571Y-55879231D02*
X139210143Y-55842946D01*
X139210143Y-55842946D02*
X139246428Y-55806660D01*
X139246428Y-55806660D02*
X139282714Y-55734088D01*
X139282714Y-55734088D02*
X139282714Y-55588946D01*
X139282714Y-55588946D02*
X139246428Y-55516374D01*
X139246428Y-55516374D02*
X139210143Y-55480088D01*
X139210143Y-55480088D02*
X139137571Y-55443803D01*
X137577286Y-148048231D02*
X137323286Y-147685374D01*
X137141857Y-148048231D02*
X137141857Y-147286231D01*
X137141857Y-147286231D02*
X137432143Y-147286231D01*
X137432143Y-147286231D02*
X137504714Y-147322517D01*
X137504714Y-147322517D02*
X137541000Y-147358803D01*
X137541000Y-147358803D02*
X137577286Y-147431374D01*
X137577286Y-147431374D02*
X137577286Y-147540231D01*
X137577286Y-147540231D02*
X137541000Y-147612803D01*
X137541000Y-147612803D02*
X137504714Y-147649088D01*
X137504714Y-147649088D02*
X137432143Y-147685374D01*
X137432143Y-147685374D02*
X137141857Y-147685374D01*
X138303000Y-148048231D02*
X137867571Y-148048231D01*
X138085286Y-148048231D02*
X138085286Y-147286231D01*
X138085286Y-147286231D02*
X138012714Y-147395088D01*
X138012714Y-147395088D02*
X137940143Y-147467660D01*
X137940143Y-147467660D02*
X137867571Y-147503946D01*
X138774714Y-147286231D02*
X138847285Y-147286231D01*
X138847285Y-147286231D02*
X138919857Y-147322517D01*
X138919857Y-147322517D02*
X138956143Y-147358803D01*
X138956143Y-147358803D02*
X138992428Y-147431374D01*
X138992428Y-147431374D02*
X139028714Y-147576517D01*
X139028714Y-147576517D02*
X139028714Y-147757946D01*
X139028714Y-147757946D02*
X138992428Y-147903088D01*
X138992428Y-147903088D02*
X138956143Y-147975660D01*
X138956143Y-147975660D02*
X138919857Y-148011946D01*
X138919857Y-148011946D02*
X138847285Y-148048231D01*
X138847285Y-148048231D02*
X138774714Y-148048231D01*
X138774714Y-148048231D02*
X138702143Y-148011946D01*
X138702143Y-148011946D02*
X138665857Y-147975660D01*
X138665857Y-147975660D02*
X138629571Y-147903088D01*
X138629571Y-147903088D02*
X138593285Y-147757946D01*
X138593285Y-147757946D02*
X138593285Y-147576517D01*
X138593285Y-147576517D02*
X138629571Y-147431374D01*
X138629571Y-147431374D02*
X138665857Y-147358803D01*
X138665857Y-147358803D02*
X138702143Y-147322517D01*
X138702143Y-147322517D02*
X138774714Y-147286231D01*
X139681857Y-147286231D02*
X139536714Y-147286231D01*
X139536714Y-147286231D02*
X139464142Y-147322517D01*
X139464142Y-147322517D02*
X139427857Y-147358803D01*
X139427857Y-147358803D02*
X139355285Y-147467660D01*
X139355285Y-147467660D02*
X139318999Y-147612803D01*
X139318999Y-147612803D02*
X139318999Y-147903088D01*
X139318999Y-147903088D02*
X139355285Y-147975660D01*
X139355285Y-147975660D02*
X139391571Y-148011946D01*
X139391571Y-148011946D02*
X139464142Y-148048231D01*
X139464142Y-148048231D02*
X139609285Y-148048231D01*
X139609285Y-148048231D02*
X139681857Y-148011946D01*
X139681857Y-148011946D02*
X139718142Y-147975660D01*
X139718142Y-147975660D02*
X139754428Y-147903088D01*
X139754428Y-147903088D02*
X139754428Y-147721660D01*
X139754428Y-147721660D02*
X139718142Y-147649088D01*
X139718142Y-147649088D02*
X139681857Y-147612803D01*
X139681857Y-147612803D02*
X139609285Y-147576517D01*
X139609285Y-147576517D02*
X139464142Y-147576517D01*
X139464142Y-147576517D02*
X139391571Y-147612803D01*
X139391571Y-147612803D02*
X139355285Y-147649088D01*
X139355285Y-147649088D02*
X139318999Y-147721660D01*
X196943231Y-114390713D02*
X196580374Y-114644713D01*
X196943231Y-114826142D02*
X196181231Y-114826142D01*
X196181231Y-114826142D02*
X196181231Y-114535856D01*
X196181231Y-114535856D02*
X196217517Y-114463285D01*
X196217517Y-114463285D02*
X196253803Y-114426999D01*
X196253803Y-114426999D02*
X196326374Y-114390713D01*
X196326374Y-114390713D02*
X196435231Y-114390713D01*
X196435231Y-114390713D02*
X196507803Y-114426999D01*
X196507803Y-114426999D02*
X196544088Y-114463285D01*
X196544088Y-114463285D02*
X196580374Y-114535856D01*
X196580374Y-114535856D02*
X196580374Y-114826142D01*
X196943231Y-113664999D02*
X196943231Y-114100428D01*
X196943231Y-113882713D02*
X196181231Y-113882713D01*
X196181231Y-113882713D02*
X196290088Y-113955285D01*
X196290088Y-113955285D02*
X196362660Y-114027856D01*
X196362660Y-114027856D02*
X196398946Y-114100428D01*
X196181231Y-113193285D02*
X196181231Y-113120714D01*
X196181231Y-113120714D02*
X196217517Y-113048142D01*
X196217517Y-113048142D02*
X196253803Y-113011857D01*
X196253803Y-113011857D02*
X196326374Y-112975571D01*
X196326374Y-112975571D02*
X196471517Y-112939285D01*
X196471517Y-112939285D02*
X196652946Y-112939285D01*
X196652946Y-112939285D02*
X196798088Y-112975571D01*
X196798088Y-112975571D02*
X196870660Y-113011857D01*
X196870660Y-113011857D02*
X196906946Y-113048142D01*
X196906946Y-113048142D02*
X196943231Y-113120714D01*
X196943231Y-113120714D02*
X196943231Y-113193285D01*
X196943231Y-113193285D02*
X196906946Y-113265857D01*
X196906946Y-113265857D02*
X196870660Y-113302142D01*
X196870660Y-113302142D02*
X196798088Y-113338428D01*
X196798088Y-113338428D02*
X196652946Y-113374714D01*
X196652946Y-113374714D02*
X196471517Y-113374714D01*
X196471517Y-113374714D02*
X196326374Y-113338428D01*
X196326374Y-113338428D02*
X196253803Y-113302142D01*
X196253803Y-113302142D02*
X196217517Y-113265857D01*
X196217517Y-113265857D02*
X196181231Y-113193285D01*
X196181231Y-112685285D02*
X196181231Y-112177285D01*
X196181231Y-112177285D02*
X196943231Y-112503857D01*
X167585571Y-63466231D02*
X167585571Y-62704231D01*
X167585571Y-62704231D02*
X167767000Y-62704231D01*
X167767000Y-62704231D02*
X167875857Y-62740517D01*
X167875857Y-62740517D02*
X167948428Y-62813088D01*
X167948428Y-62813088D02*
X167984714Y-62885660D01*
X167984714Y-62885660D02*
X168021000Y-63030803D01*
X168021000Y-63030803D02*
X168021000Y-63139660D01*
X168021000Y-63139660D02*
X167984714Y-63284803D01*
X167984714Y-63284803D02*
X167948428Y-63357374D01*
X167948428Y-63357374D02*
X167875857Y-63429946D01*
X167875857Y-63429946D02*
X167767000Y-63466231D01*
X167767000Y-63466231D02*
X167585571Y-63466231D01*
X168674143Y-62704231D02*
X168529000Y-62704231D01*
X168529000Y-62704231D02*
X168456428Y-62740517D01*
X168456428Y-62740517D02*
X168420143Y-62776803D01*
X168420143Y-62776803D02*
X168347571Y-62885660D01*
X168347571Y-62885660D02*
X168311285Y-63030803D01*
X168311285Y-63030803D02*
X168311285Y-63321088D01*
X168311285Y-63321088D02*
X168347571Y-63393660D01*
X168347571Y-63393660D02*
X168383857Y-63429946D01*
X168383857Y-63429946D02*
X168456428Y-63466231D01*
X168456428Y-63466231D02*
X168601571Y-63466231D01*
X168601571Y-63466231D02*
X168674143Y-63429946D01*
X168674143Y-63429946D02*
X168710428Y-63393660D01*
X168710428Y-63393660D02*
X168746714Y-63321088D01*
X168746714Y-63321088D02*
X168746714Y-63139660D01*
X168746714Y-63139660D02*
X168710428Y-63067088D01*
X168710428Y-63067088D02*
X168674143Y-63030803D01*
X168674143Y-63030803D02*
X168601571Y-62994517D01*
X168601571Y-62994517D02*
X168456428Y-62994517D01*
X168456428Y-62994517D02*
X168383857Y-63030803D01*
X168383857Y-63030803D02*
X168347571Y-63067088D01*
X168347571Y-63067088D02*
X168311285Y-63139660D01*
X161417000Y-148196660D02*
X161380714Y-148232946D01*
X161380714Y-148232946D02*
X161271857Y-148269231D01*
X161271857Y-148269231D02*
X161199285Y-148269231D01*
X161199285Y-148269231D02*
X161090428Y-148232946D01*
X161090428Y-148232946D02*
X161017857Y-148160374D01*
X161017857Y-148160374D02*
X160981571Y-148087803D01*
X160981571Y-148087803D02*
X160945285Y-147942660D01*
X160945285Y-147942660D02*
X160945285Y-147833803D01*
X160945285Y-147833803D02*
X160981571Y-147688660D01*
X160981571Y-147688660D02*
X161017857Y-147616088D01*
X161017857Y-147616088D02*
X161090428Y-147543517D01*
X161090428Y-147543517D02*
X161199285Y-147507231D01*
X161199285Y-147507231D02*
X161271857Y-147507231D01*
X161271857Y-147507231D02*
X161380714Y-147543517D01*
X161380714Y-147543517D02*
X161417000Y-147579803D01*
X162070143Y-147507231D02*
X161925000Y-147507231D01*
X161925000Y-147507231D02*
X161852428Y-147543517D01*
X161852428Y-147543517D02*
X161816143Y-147579803D01*
X161816143Y-147579803D02*
X161743571Y-147688660D01*
X161743571Y-147688660D02*
X161707285Y-147833803D01*
X161707285Y-147833803D02*
X161707285Y-148124088D01*
X161707285Y-148124088D02*
X161743571Y-148196660D01*
X161743571Y-148196660D02*
X161779857Y-148232946D01*
X161779857Y-148232946D02*
X161852428Y-148269231D01*
X161852428Y-148269231D02*
X161997571Y-148269231D01*
X161997571Y-148269231D02*
X162070143Y-148232946D01*
X162070143Y-148232946D02*
X162106428Y-148196660D01*
X162106428Y-148196660D02*
X162142714Y-148124088D01*
X162142714Y-148124088D02*
X162142714Y-147942660D01*
X162142714Y-147942660D02*
X162106428Y-147870088D01*
X162106428Y-147870088D02*
X162070143Y-147833803D01*
X162070143Y-147833803D02*
X161997571Y-147797517D01*
X161997571Y-147797517D02*
X161852428Y-147797517D01*
X161852428Y-147797517D02*
X161779857Y-147833803D01*
X161779857Y-147833803D02*
X161743571Y-147870088D01*
X161743571Y-147870088D02*
X161707285Y-147942660D01*
X184559000Y-62186731D02*
X184559000Y-62731017D01*
X184559000Y-62731017D02*
X184522715Y-62839874D01*
X184522715Y-62839874D02*
X184450143Y-62912446D01*
X184450143Y-62912446D02*
X184341286Y-62948731D01*
X184341286Y-62948731D02*
X184268715Y-62948731D01*
X184849286Y-62186731D02*
X185321000Y-62186731D01*
X185321000Y-62186731D02*
X185067000Y-62477017D01*
X185067000Y-62477017D02*
X185175857Y-62477017D01*
X185175857Y-62477017D02*
X185248429Y-62513303D01*
X185248429Y-62513303D02*
X185284714Y-62549588D01*
X185284714Y-62549588D02*
X185321000Y-62622160D01*
X185321000Y-62622160D02*
X185321000Y-62803588D01*
X185321000Y-62803588D02*
X185284714Y-62876160D01*
X185284714Y-62876160D02*
X185248429Y-62912446D01*
X185248429Y-62912446D02*
X185175857Y-62948731D01*
X185175857Y-62948731D02*
X184958143Y-62948731D01*
X184958143Y-62948731D02*
X184885571Y-62912446D01*
X184885571Y-62912446D02*
X184849286Y-62876160D01*
X180973231Y-65096571D02*
X181590088Y-65096571D01*
X181590088Y-65096571D02*
X181662660Y-65060285D01*
X181662660Y-65060285D02*
X181698946Y-65024000D01*
X181698946Y-65024000D02*
X181735231Y-64951428D01*
X181735231Y-64951428D02*
X181735231Y-64806285D01*
X181735231Y-64806285D02*
X181698946Y-64733714D01*
X181698946Y-64733714D02*
X181662660Y-64697428D01*
X181662660Y-64697428D02*
X181590088Y-64661142D01*
X181590088Y-64661142D02*
X180973231Y-64661142D01*
X181735231Y-63899142D02*
X181735231Y-64334571D01*
X181735231Y-64116856D02*
X180973231Y-64116856D01*
X180973231Y-64116856D02*
X181082088Y-64189428D01*
X181082088Y-64189428D02*
X181154660Y-64261999D01*
X181154660Y-64261999D02*
X181190946Y-64334571D01*
X103961088Y-116839999D02*
X103961088Y-117093999D01*
X104360231Y-117093999D02*
X103598231Y-117093999D01*
X103598231Y-117093999D02*
X103598231Y-116731142D01*
X103670803Y-116477142D02*
X103634517Y-116440856D01*
X103634517Y-116440856D02*
X103598231Y-116368285D01*
X103598231Y-116368285D02*
X103598231Y-116186856D01*
X103598231Y-116186856D02*
X103634517Y-116114285D01*
X103634517Y-116114285D02*
X103670803Y-116077999D01*
X103670803Y-116077999D02*
X103743374Y-116041713D01*
X103743374Y-116041713D02*
X103815946Y-116041713D01*
X103815946Y-116041713D02*
X103924803Y-116077999D01*
X103924803Y-116077999D02*
X104360231Y-116513427D01*
X104360231Y-116513427D02*
X104360231Y-116041713D01*
X196710660Y-90550999D02*
X196746946Y-90587285D01*
X196746946Y-90587285D02*
X196783231Y-90696142D01*
X196783231Y-90696142D02*
X196783231Y-90768714D01*
X196783231Y-90768714D02*
X196746946Y-90877571D01*
X196746946Y-90877571D02*
X196674374Y-90950142D01*
X196674374Y-90950142D02*
X196601803Y-90986428D01*
X196601803Y-90986428D02*
X196456660Y-91022714D01*
X196456660Y-91022714D02*
X196347803Y-91022714D01*
X196347803Y-91022714D02*
X196202660Y-90986428D01*
X196202660Y-90986428D02*
X196130088Y-90950142D01*
X196130088Y-90950142D02*
X196057517Y-90877571D01*
X196057517Y-90877571D02*
X196021231Y-90768714D01*
X196021231Y-90768714D02*
X196021231Y-90696142D01*
X196021231Y-90696142D02*
X196057517Y-90587285D01*
X196057517Y-90587285D02*
X196093803Y-90550999D01*
X196021231Y-90296999D02*
X196021231Y-89788999D01*
X196021231Y-89788999D02*
X196783231Y-90115571D01*
X162251571Y-63466231D02*
X162251571Y-62704231D01*
X162251571Y-62704231D02*
X162433000Y-62704231D01*
X162433000Y-62704231D02*
X162541857Y-62740517D01*
X162541857Y-62740517D02*
X162614428Y-62813088D01*
X162614428Y-62813088D02*
X162650714Y-62885660D01*
X162650714Y-62885660D02*
X162687000Y-63030803D01*
X162687000Y-63030803D02*
X162687000Y-63139660D01*
X162687000Y-63139660D02*
X162650714Y-63284803D01*
X162650714Y-63284803D02*
X162614428Y-63357374D01*
X162614428Y-63357374D02*
X162541857Y-63429946D01*
X162541857Y-63429946D02*
X162433000Y-63466231D01*
X162433000Y-63466231D02*
X162251571Y-63466231D01*
X163376428Y-62704231D02*
X163013571Y-62704231D01*
X163013571Y-62704231D02*
X162977285Y-63067088D01*
X162977285Y-63067088D02*
X163013571Y-63030803D01*
X163013571Y-63030803D02*
X163086143Y-62994517D01*
X163086143Y-62994517D02*
X163267571Y-62994517D01*
X163267571Y-62994517D02*
X163340143Y-63030803D01*
X163340143Y-63030803D02*
X163376428Y-63067088D01*
X163376428Y-63067088D02*
X163412714Y-63139660D01*
X163412714Y-63139660D02*
X163412714Y-63321088D01*
X163412714Y-63321088D02*
X163376428Y-63393660D01*
X163376428Y-63393660D02*
X163340143Y-63429946D01*
X163340143Y-63429946D02*
X163267571Y-63466231D01*
X163267571Y-63466231D02*
X163086143Y-63466231D01*
X163086143Y-63466231D02*
X163013571Y-63429946D01*
X163013571Y-63429946D02*
X162977285Y-63393660D01*
X104320660Y-113410999D02*
X104356946Y-113447285D01*
X104356946Y-113447285D02*
X104393231Y-113556142D01*
X104393231Y-113556142D02*
X104393231Y-113628714D01*
X104393231Y-113628714D02*
X104356946Y-113737571D01*
X104356946Y-113737571D02*
X104284374Y-113810142D01*
X104284374Y-113810142D02*
X104211803Y-113846428D01*
X104211803Y-113846428D02*
X104066660Y-113882714D01*
X104066660Y-113882714D02*
X103957803Y-113882714D01*
X103957803Y-113882714D02*
X103812660Y-113846428D01*
X103812660Y-113846428D02*
X103740088Y-113810142D01*
X103740088Y-113810142D02*
X103667517Y-113737571D01*
X103667517Y-113737571D02*
X103631231Y-113628714D01*
X103631231Y-113628714D02*
X103631231Y-113556142D01*
X103631231Y-113556142D02*
X103667517Y-113447285D01*
X103667517Y-113447285D02*
X103703803Y-113410999D01*
X103631231Y-112721571D02*
X103631231Y-113084428D01*
X103631231Y-113084428D02*
X103994088Y-113120714D01*
X103994088Y-113120714D02*
X103957803Y-113084428D01*
X103957803Y-113084428D02*
X103921517Y-113011857D01*
X103921517Y-113011857D02*
X103921517Y-112830428D01*
X103921517Y-112830428D02*
X103957803Y-112757857D01*
X103957803Y-112757857D02*
X103994088Y-112721571D01*
X103994088Y-112721571D02*
X104066660Y-112685285D01*
X104066660Y-112685285D02*
X104248088Y-112685285D01*
X104248088Y-112685285D02*
X104320660Y-112721571D01*
X104320660Y-112721571D02*
X104356946Y-112757857D01*
X104356946Y-112757857D02*
X104393231Y-112830428D01*
X104393231Y-112830428D02*
X104393231Y-113011857D01*
X104393231Y-113011857D02*
X104356946Y-113084428D01*
X104356946Y-113084428D02*
X104320660Y-113120714D01*
X185692143Y-64122660D02*
X185655857Y-64158946D01*
X185655857Y-64158946D02*
X185547000Y-64195231D01*
X185547000Y-64195231D02*
X185474428Y-64195231D01*
X185474428Y-64195231D02*
X185365571Y-64158946D01*
X185365571Y-64158946D02*
X185293000Y-64086374D01*
X185293000Y-64086374D02*
X185256714Y-64013803D01*
X185256714Y-64013803D02*
X185220428Y-63868660D01*
X185220428Y-63868660D02*
X185220428Y-63759803D01*
X185220428Y-63759803D02*
X185256714Y-63614660D01*
X185256714Y-63614660D02*
X185293000Y-63542088D01*
X185293000Y-63542088D02*
X185365571Y-63469517D01*
X185365571Y-63469517D02*
X185474428Y-63433231D01*
X185474428Y-63433231D02*
X185547000Y-63433231D01*
X185547000Y-63433231D02*
X185655857Y-63469517D01*
X185655857Y-63469517D02*
X185692143Y-63505803D01*
X185946143Y-63433231D02*
X186417857Y-63433231D01*
X186417857Y-63433231D02*
X186163857Y-63723517D01*
X186163857Y-63723517D02*
X186272714Y-63723517D01*
X186272714Y-63723517D02*
X186345286Y-63759803D01*
X186345286Y-63759803D02*
X186381571Y-63796088D01*
X186381571Y-63796088D02*
X186417857Y-63868660D01*
X186417857Y-63868660D02*
X186417857Y-64050088D01*
X186417857Y-64050088D02*
X186381571Y-64122660D01*
X186381571Y-64122660D02*
X186345286Y-64158946D01*
X186345286Y-64158946D02*
X186272714Y-64195231D01*
X186272714Y-64195231D02*
X186055000Y-64195231D01*
X186055000Y-64195231D02*
X185982428Y-64158946D01*
X185982428Y-64158946D02*
X185946143Y-64122660D01*
X187071000Y-63687231D02*
X187071000Y-64195231D01*
X186889571Y-63396946D02*
X186708142Y-63941231D01*
X186708142Y-63941231D02*
X187179857Y-63941231D01*
X104360231Y-91022713D02*
X103997374Y-91276713D01*
X104360231Y-91458142D02*
X103598231Y-91458142D01*
X103598231Y-91458142D02*
X103598231Y-91167856D01*
X103598231Y-91167856D02*
X103634517Y-91095285D01*
X103634517Y-91095285D02*
X103670803Y-91058999D01*
X103670803Y-91058999D02*
X103743374Y-91022713D01*
X103743374Y-91022713D02*
X103852231Y-91022713D01*
X103852231Y-91022713D02*
X103924803Y-91058999D01*
X103924803Y-91058999D02*
X103961088Y-91095285D01*
X103961088Y-91095285D02*
X103997374Y-91167856D01*
X103997374Y-91167856D02*
X103997374Y-91458142D01*
X104360231Y-90296999D02*
X104360231Y-90732428D01*
X104360231Y-90514713D02*
X103598231Y-90514713D01*
X103598231Y-90514713D02*
X103707088Y-90587285D01*
X103707088Y-90587285D02*
X103779660Y-90659856D01*
X103779660Y-90659856D02*
X103815946Y-90732428D01*
X103598231Y-89825285D02*
X103598231Y-89752714D01*
X103598231Y-89752714D02*
X103634517Y-89680142D01*
X103634517Y-89680142D02*
X103670803Y-89643857D01*
X103670803Y-89643857D02*
X103743374Y-89607571D01*
X103743374Y-89607571D02*
X103888517Y-89571285D01*
X103888517Y-89571285D02*
X104069946Y-89571285D01*
X104069946Y-89571285D02*
X104215088Y-89607571D01*
X104215088Y-89607571D02*
X104287660Y-89643857D01*
X104287660Y-89643857D02*
X104323946Y-89680142D01*
X104323946Y-89680142D02*
X104360231Y-89752714D01*
X104360231Y-89752714D02*
X104360231Y-89825285D01*
X104360231Y-89825285D02*
X104323946Y-89897857D01*
X104323946Y-89897857D02*
X104287660Y-89934142D01*
X104287660Y-89934142D02*
X104215088Y-89970428D01*
X104215088Y-89970428D02*
X104069946Y-90006714D01*
X104069946Y-90006714D02*
X103888517Y-90006714D01*
X103888517Y-90006714D02*
X103743374Y-89970428D01*
X103743374Y-89970428D02*
X103670803Y-89934142D01*
X103670803Y-89934142D02*
X103634517Y-89897857D01*
X103634517Y-89897857D02*
X103598231Y-89825285D01*
X103598231Y-88881857D02*
X103598231Y-89244714D01*
X103598231Y-89244714D02*
X103961088Y-89281000D01*
X103961088Y-89281000D02*
X103924803Y-89244714D01*
X103924803Y-89244714D02*
X103888517Y-89172143D01*
X103888517Y-89172143D02*
X103888517Y-88990714D01*
X103888517Y-88990714D02*
X103924803Y-88918143D01*
X103924803Y-88918143D02*
X103961088Y-88881857D01*
X103961088Y-88881857D02*
X104033660Y-88845571D01*
X104033660Y-88845571D02*
X104215088Y-88845571D01*
X104215088Y-88845571D02*
X104287660Y-88881857D01*
X104287660Y-88881857D02*
X104323946Y-88918143D01*
X104323946Y-88918143D02*
X104360231Y-88990714D01*
X104360231Y-88990714D02*
X104360231Y-89172143D01*
X104360231Y-89172143D02*
X104323946Y-89244714D01*
X104323946Y-89244714D02*
X104287660Y-89281000D01*
X196417088Y-87375999D02*
X196417088Y-87629999D01*
X196816231Y-87629999D02*
X196054231Y-87629999D01*
X196054231Y-87629999D02*
X196054231Y-87267142D01*
X196308231Y-86650285D02*
X196816231Y-86650285D01*
X196017946Y-86831713D02*
X196562231Y-87013142D01*
X196562231Y-87013142D02*
X196562231Y-86541427D01*
D11*
%TO.C,D9*%
X127270000Y-139694000D02*
X130580000Y-139694000D01*
X130580000Y-137674000D02*
X127270000Y-137674000D01*
X130580000Y-137674000D02*
X130580000Y-139694000D01*
%TO.C,R104*%
X161814742Y-53579500D02*
X162289258Y-53579500D01*
X161814742Y-54624500D02*
X162289258Y-54624500D01*
%TO.C,F3*%
X165008779Y-148842000D02*
X164683221Y-148842000D01*
X165008779Y-149862000D02*
X164683221Y-149862000D01*
%TO.C,R112*%
X178545258Y-61961500D02*
X178070742Y-61961500D01*
X178545258Y-63006500D02*
X178070742Y-63006500D01*
D12*
%TO.C,J4*%
X109474000Y-58882000D02*
X118584000Y-58882000D01*
X109474000Y-61382000D02*
X109474000Y-58882000D01*
X109474000Y-61382000D02*
X124714000Y-61382000D01*
X110524000Y-53702000D02*
X110746860Y-53482000D01*
X110524000Y-58882000D02*
X110524000Y-53702000D01*
X110746860Y-53482000D02*
X110964000Y-53702000D01*
X110964000Y-58882000D02*
X110964000Y-53702000D01*
X113064000Y-53702000D02*
X113286860Y-53482000D01*
X113064000Y-58882000D02*
X113064000Y-53702000D01*
X113286860Y-53482000D02*
X113504000Y-53702000D01*
X113504000Y-58882000D02*
X113504000Y-53702000D01*
X115604000Y-53702000D02*
X115826860Y-53482000D01*
X115604000Y-58882000D02*
X115604000Y-53702000D01*
X115826860Y-53482000D02*
X116044000Y-53702000D01*
X116044000Y-58882000D02*
X116044000Y-53702000D01*
X118144000Y-53702000D02*
X118366860Y-53482000D01*
X118144000Y-58882000D02*
X118144000Y-53702000D01*
X118366860Y-53482000D02*
X118584000Y-53702000D01*
X118584000Y-58882000D02*
X118584000Y-53702000D01*
X118584000Y-58882000D02*
X120684000Y-58882000D01*
X120684000Y-53702000D02*
X120906860Y-53482000D01*
X120684000Y-58882000D02*
X120684000Y-53702000D01*
X120684000Y-58882000D02*
X121124000Y-58882000D01*
X120906860Y-53482000D02*
X121124000Y-53702000D01*
X121124000Y-58882000D02*
X121124000Y-53702000D01*
X121124000Y-58882000D02*
X123224000Y-58882000D01*
X123224000Y-53702000D02*
X123446860Y-53482000D01*
X123224000Y-58882000D02*
X123224000Y-53702000D01*
X123224000Y-58882000D02*
X123664000Y-58882000D01*
X123446860Y-53482000D02*
X123664000Y-53702000D01*
X123664000Y-58882000D02*
X123664000Y-53702000D01*
X123664000Y-58882000D02*
X124714000Y-58882000D01*
X124714000Y-61382000D02*
X124714000Y-58882000D01*
D13*
X109794000Y-63632000D02*
G75*
G02*
X109554000Y-63632000I-120000J0D01*
G01*
X109554000Y-63632000D02*
G75*
G02*
X109794000Y-63632000I120000J0D01*
G01*
D11*
%TO.C,D10*%
X171212000Y-139440000D02*
X174522000Y-139440000D01*
X174522000Y-137420000D02*
X171212000Y-137420000D01*
X174522000Y-137420000D02*
X174522000Y-139440000D01*
%TO.C,F1*%
X135219221Y-53592000D02*
X135544779Y-53592000D01*
X135219221Y-54612000D02*
X135544779Y-54612000D01*
D14*
%TO.C,SC5*%
X108093274Y-113722000D02*
X108093274Y-136722000D01*
X108093274Y-113722000D02*
X150093274Y-113722000D01*
X108093274Y-136722000D02*
X150093274Y-136722000D01*
D12*
X119343274Y-125222000D02*
X117343274Y-125222000D01*
X138843274Y-125222000D02*
X140843274Y-125222000D01*
X139843274Y-124222000D02*
X139843274Y-126222000D01*
D14*
X150093274Y-113722000D02*
X150093274Y-136722000D01*
D11*
%TO.C,R111*%
X188230742Y-61961500D02*
X188705258Y-61961500D01*
X188230742Y-63006500D02*
X188705258Y-63006500D01*
%TO.C,C8*%
X138824580Y-53592000D02*
X138543420Y-53592000D01*
X138824580Y-54612000D02*
X138543420Y-54612000D01*
D14*
%TO.C,SC3*%
X150409674Y-113354000D02*
X150409674Y-90354000D01*
D12*
X160659674Y-102854000D02*
X160659674Y-100854000D01*
X161659674Y-101854000D02*
X159659674Y-101854000D01*
X181159674Y-101854000D02*
X183159674Y-101854000D01*
D14*
X192409674Y-90354000D02*
X150409674Y-90354000D01*
X192409674Y-113354000D02*
X150409674Y-113354000D01*
X192409674Y-113354000D02*
X192409674Y-90354000D01*
%TO.C,SC1*%
X108093274Y-66986000D02*
X108093274Y-89986000D01*
X108093274Y-66986000D02*
X150093274Y-66986000D01*
X108093274Y-89986000D02*
X150093274Y-89986000D01*
D12*
X119343274Y-78486000D02*
X117343274Y-78486000D01*
X138843274Y-78486000D02*
X140843274Y-78486000D01*
X139843274Y-77486000D02*
X139843274Y-79486000D01*
D14*
X150093274Y-66986000D02*
X150093274Y-89986000D01*
D11*
%TO.C,R106*%
X138667258Y-148829500D02*
X138192742Y-148829500D01*
X138667258Y-149874500D02*
X138192742Y-149874500D01*
%TO.C,R107*%
X197597500Y-113300742D02*
X197597500Y-113775258D01*
X198642500Y-113300742D02*
X198642500Y-113775258D01*
D14*
%TO.C,SC4*%
X108093274Y-113354000D02*
X108093274Y-90354000D01*
D12*
X118343274Y-102854000D02*
X118343274Y-100854000D01*
X119343274Y-101854000D02*
X117343274Y-101854000D01*
X138843274Y-101854000D02*
X140843274Y-101854000D01*
D14*
X150093274Y-90354000D02*
X108093274Y-90354000D01*
X150093274Y-113354000D02*
X108093274Y-113354000D01*
X150093274Y-113354000D02*
X150093274Y-90354000D01*
%TO.C,SC2*%
X150409674Y-66986000D02*
X150409674Y-89986000D01*
X150409674Y-66986000D02*
X192409674Y-66986000D01*
X150409674Y-89986000D02*
X192409674Y-89986000D01*
D12*
X161659674Y-78486000D02*
X159659674Y-78486000D01*
X181159674Y-78486000D02*
X183159674Y-78486000D01*
X182159674Y-77486000D02*
X182159674Y-79486000D01*
D14*
X192409674Y-66986000D02*
X192409674Y-89986000D01*
D11*
%TO.C,D6*%
X167148000Y-66034000D02*
X170458000Y-66034000D01*
X170458000Y-64014000D02*
X167148000Y-64014000D01*
X170458000Y-64014000D02*
X170458000Y-66034000D01*
D14*
%TO.C,SC6*%
X150409674Y-113722000D02*
X150409674Y-136722000D01*
X150409674Y-113722000D02*
X192409674Y-113722000D01*
X150409674Y-136722000D02*
X192409674Y-136722000D01*
D12*
X161659674Y-125222000D02*
X159659674Y-125222000D01*
X181159674Y-125222000D02*
X183159674Y-125222000D01*
X182159674Y-124222000D02*
X182159674Y-126222000D01*
D14*
X192409674Y-113722000D02*
X192409674Y-136722000D01*
D11*
%TO.C,C6*%
X161403420Y-148842000D02*
X161684580Y-148842000D01*
X161403420Y-149862000D02*
X161684580Y-149862000D01*
D12*
%TO.C,J3*%
X178918000Y-53186500D02*
X178918000Y-54676500D01*
X178918000Y-58606500D02*
X178918000Y-57396500D01*
X187858000Y-53186500D02*
X178918000Y-53186500D01*
X187858000Y-54676500D02*
X187858000Y-53186500D01*
X187858000Y-58606500D02*
X187858000Y-57396500D01*
X187268000Y-61696500D02*
G75*
G02*
X187068000Y-61696500I-100000J0D01*
G01*
X187068000Y-61696500D02*
G75*
G02*
X187268000Y-61696500I100000J0D01*
G01*
D11*
%TO.C,U1*%
X182398000Y-63866000D02*
X182398000Y-64916000D01*
X184378000Y-63866000D02*
X184378000Y-65166000D01*
X182398000Y-65566000D02*
X182118000Y-65286000D01*
X182398000Y-65286000D01*
X182398000Y-65566000D01*
G36*
X182398000Y-65566000D02*
G01*
X182118000Y-65286000D01*
X182398000Y-65286000D01*
X182398000Y-65566000D01*
G37*
%TO.C,F2*%
X102106000Y-116748779D02*
X102106000Y-116423221D01*
X103126000Y-116748779D02*
X103126000Y-116423221D01*
%TO.C,C7*%
X197356000Y-90564580D02*
X197356000Y-90283420D01*
X198376000Y-90564580D02*
X198376000Y-90283420D01*
%TO.C,D5*%
X161814000Y-66034000D02*
X165124000Y-66034000D01*
X165124000Y-64014000D02*
X161814000Y-64014000D01*
X165124000Y-64014000D02*
X165124000Y-66034000D01*
%TO.C,C5*%
X102106000Y-113143420D02*
X102106000Y-113424580D01*
X103126000Y-113143420D02*
X103126000Y-113424580D01*
%TO.C,C34*%
X186041420Y-64768000D02*
X186322580Y-64768000D01*
X186041420Y-65788000D02*
X186322580Y-65788000D01*
%TO.C,R105*%
X102093500Y-90407258D02*
X102093500Y-89932742D01*
X103138500Y-90407258D02*
X103138500Y-89932742D01*
%TO.C,F4*%
X197356000Y-86959221D02*
X197356000Y-87284779D01*
X198376000Y-86959221D02*
X198376000Y-87284779D01*
%TD*%
M02*
