%TF.GenerationSoftware,KiCad,Pcbnew,8.0.5*%
%TF.CreationDate,2025-02-27T20:43:24-05:00*%
%TF.ProjectId,Z+,5a2b2e6b-6963-4616-945f-706362585858,rev?*%
%TF.SameCoordinates,Original*%
%TF.FileFunction,Copper,L3,Inr*%
%TF.FilePolarity,Positive*%
%FSLAX46Y46*%
G04 Gerber Fmt 4.6, Leading zero omitted, Abs format (unit mm)*
G04 Created by KiCad (PCBNEW 8.0.5) date 2025-02-27 20:43:24*
%MOMM*%
%LPD*%
G01*
G04 APERTURE LIST*
%TA.AperFunction,ComponentPad*%
%ADD10C,0.762000*%
%TD*%
%TA.AperFunction,ComponentPad*%
%ADD11C,3.800000*%
%TD*%
%TA.AperFunction,ViaPad*%
%ADD12C,0.508000*%
%TD*%
%TA.AperFunction,ViaPad*%
%ADD13C,0.762000*%
%TD*%
%TA.AperFunction,Conductor*%
%ADD14C,0.254000*%
%TD*%
%TA.AperFunction,Conductor*%
%ADD15C,0.360680*%
%TD*%
G04 APERTURE END LIST*
D10*
%TO.N,GND*%
%TO.C,H4*%
X193851074Y-79832061D03*
X194495324Y-78276311D03*
X194495324Y-81387811D03*
X196051074Y-77632061D03*
D11*
X196051074Y-79832061D03*
D10*
X196051074Y-82032061D03*
X197606824Y-78276311D03*
X197606824Y-81387811D03*
X198251074Y-79832061D03*
%TD*%
%TO.N,GND*%
%TO.C,H2*%
X193851074Y-123832061D03*
X194495324Y-122276311D03*
X194495324Y-125387811D03*
X196051074Y-121632061D03*
D11*
X196051074Y-123832061D03*
D10*
X196051074Y-126032061D03*
X197606824Y-122276311D03*
X197606824Y-125387811D03*
X198251074Y-123832061D03*
%TD*%
%TO.N,GND*%
%TO.C,H5*%
X126051074Y-147632061D03*
X126695324Y-146076311D03*
X126695324Y-149187811D03*
X128251074Y-145432061D03*
D11*
X128251074Y-147632061D03*
D10*
X128251074Y-149832061D03*
X129806824Y-146076311D03*
X129806824Y-149187811D03*
X130451074Y-147632061D03*
%TD*%
%TO.N,GND*%
%TO.C,H1*%
X102251074Y-79832061D03*
X102895324Y-78276311D03*
X102895324Y-81387811D03*
X104451074Y-77632061D03*
D11*
X104451074Y-79832061D03*
D10*
X104451074Y-82032061D03*
X106006824Y-78276311D03*
X106006824Y-81387811D03*
X106651074Y-79832061D03*
%TD*%
%TO.N,GND*%
%TO.C,H3*%
X102251074Y-123832061D03*
X102895324Y-122276311D03*
X102895324Y-125387811D03*
X104451074Y-121632061D03*
D11*
X104451074Y-123832061D03*
D10*
X104451074Y-126032061D03*
X106006824Y-122276311D03*
X106006824Y-125387811D03*
X106651074Y-123832061D03*
%TD*%
%TO.N,GND*%
%TO.C,H6*%
X170051074Y-56032061D03*
X170695324Y-54476311D03*
X170695324Y-57587811D03*
X172251074Y-53832061D03*
D11*
X172251074Y-56032061D03*
D10*
X172251074Y-58232061D03*
X173806824Y-54476311D03*
X173806824Y-57587811D03*
X174451074Y-56032061D03*
%TD*%
%TO.N,GND*%
%TO.C,H8*%
X126051074Y-56032061D03*
X126695324Y-54476311D03*
X126695324Y-57587811D03*
X128251074Y-53832061D03*
D11*
X128251074Y-56032061D03*
D10*
X128251074Y-58232061D03*
X129806824Y-54476311D03*
X129806824Y-57587811D03*
X130451074Y-56032061D03*
%TD*%
%TO.N,GND*%
%TO.C,H7*%
X170051074Y-147632061D03*
X170695324Y-146076311D03*
X170695324Y-149187811D03*
X172251074Y-145432061D03*
D11*
X172251074Y-147632061D03*
D10*
X172251074Y-149832061D03*
X173806824Y-146076311D03*
X173806824Y-149187811D03*
X174451074Y-147632061D03*
%TD*%
D12*
%TO.N,GND*%
X149860000Y-100584000D03*
D13*
X127508000Y-78740000D03*
D12*
X165559000Y-107696000D03*
X132080000Y-107963000D03*
X133858000Y-114808000D03*
X172466000Y-104140000D03*
X165559000Y-104394000D03*
X138684000Y-95745000D03*
X147828000Y-86627000D03*
X128778000Y-88900000D03*
X166243000Y-78359000D03*
X144018000Y-84328000D03*
X161049000Y-106680000D03*
X169926000Y-80772000D03*
X155956000Y-105410000D03*
X149655000Y-103378000D03*
X171704000Y-107963000D03*
X148091428Y-109741000D03*
X178308000Y-95745000D03*
X137922000Y-99568000D03*
X127762000Y-99568000D03*
X149797000Y-109728000D03*
X169164000Y-84849000D03*
X164592000Y-78359000D03*
X128778000Y-119380000D03*
X177546000Y-99568000D03*
X149797000Y-108204000D03*
X150114000Y-120650000D03*
X128016000Y-92723000D03*
X160020000Y-100142000D03*
X197866000Y-85090000D03*
X153162000Y-110744000D03*
X128524000Y-95745000D03*
X132842000Y-104140000D03*
X146171500Y-109220000D03*
X122682000Y-107188000D03*
X167894000Y-78359000D03*
X122682000Y-104140000D03*
X144780000Y-80505000D03*
X166878000Y-149606000D03*
X155956000Y-103886000D03*
X102857410Y-118630590D03*
X161099000Y-105156000D03*
X157734000Y-109791000D03*
X172212000Y-81471000D03*
X159195000Y-87376000D03*
X138938000Y-88900000D03*
X133096000Y-54102000D03*
X163764000Y-101600000D03*
X154178000Y-86677000D03*
X151892000Y-115062000D03*
X133857999Y-84328000D03*
X161099000Y-109728000D03*
X138176000Y-92723000D03*
%TO.N,MAIN_3V3*%
X135382000Y-95695000D03*
X169164000Y-82296000D03*
X141478000Y-86614000D03*
X141478000Y-80455000D03*
X141478000Y-92773000D03*
X154178000Y-82042000D03*
X144463000Y-117856000D03*
X145288000Y-122999000D03*
X154178000Y-118301000D03*
X135382000Y-101854000D03*
X135382000Y-108013000D03*
X147965074Y-114999000D03*
%TO.N,PERI_3V3*%
X120904000Y-106172000D03*
X154632403Y-130558601D03*
X157734000Y-85369500D03*
X160719000Y-78740000D03*
X163893000Y-86614000D03*
X141478000Y-74422000D03*
X174028014Y-83312000D03*
X179578000Y-102616000D03*
%TO.N,Net-(D8-K)*%
X136398000Y-110744000D03*
X136398000Y-111760000D03*
%TO.N,Net-(D7-K)*%
X162306000Y-96774000D03*
X162306000Y-97790000D03*
X142240000Y-110744000D03*
X142240000Y-111760000D03*
%TO.N,VSOLAR*%
X165481000Y-110109000D03*
X165481000Y-111379000D03*
%TO.N,/Solar Charger/Charge OR-ing2/IN*%
X149797000Y-106680000D03*
X156210000Y-109791000D03*
%TO.N,VBATT*%
X160502500Y-113284000D03*
X159512000Y-91440000D03*
D13*
X138938000Y-76962000D03*
D12*
%TO.N,SDA*%
X138747000Y-101854000D03*
X138113000Y-86614000D03*
X127953000Y-86614000D03*
X166116000Y-82613000D03*
X128587000Y-100838000D03*
X127953000Y-117094000D03*
X171641000Y-101854000D03*
%TO.N,SCL*%
X132017000Y-101854000D03*
X134683000Y-117094000D03*
X178371000Y-101854000D03*
X166116000Y-84011000D03*
X121857000Y-101854000D03*
X144843000Y-86614000D03*
X134682999Y-86614000D03*
%TO.N,Net-(D6-K)*%
X168148000Y-97790000D03*
X168148000Y-96774000D03*
%TO.N,COIL_DRIVER_EN*%
X172212000Y-83185000D03*
X167069000Y-113030000D03*
%TO.N,/Sun Pyramid/LS0_SCL*%
X131349500Y-83534500D03*
%TO.N,/Sun Pyramid/LS0_SDA*%
X131286500Y-89693500D03*
%TO.N,/Sun Pyramid/LS1_SCL*%
X123507000Y-101854000D03*
%TO.N,SDA_SPWR*%
X149987000Y-83439000D03*
X140684500Y-88931500D03*
%TO.N,/Coil Driver/SCL_M*%
X133667000Y-101854000D03*
X149606000Y-117602000D03*
%TO.N,/Coil Driver/SDA_M*%
X137097000Y-101854000D03*
X148463000Y-117602000D03*
%TO.N,/Sun Pyramid/LS1_SDA*%
X126968500Y-95726500D03*
%TO.N,/Sun Pyramid/LS2_SCL*%
X132842000Y-117094000D03*
%TO.N,/Sun Pyramid/LS2_SDA*%
X129540000Y-123190000D03*
%TO.N,/Sun Pyramid/LS3_SCL*%
X176721000Y-103251000D03*
%TO.N,/Sun Pyramid/LS3_SDA*%
X174974500Y-104933500D03*
%TO.N,/Sun Pyramid/LS0_3V3*%
X131318000Y-92773000D03*
X131318000Y-80518000D03*
X131318000Y-86614000D03*
%TO.N,/Sun Pyramid/LS1_3V3*%
X125222000Y-95695000D03*
X125222000Y-107950000D03*
X125222000Y-101854000D03*
%TO.N,/Coil Driver/coil*%
X150367998Y-124129800D03*
X150380699Y-130022600D03*
X159565941Y-150151342D03*
%TO.N,/Sun Pyramid/LS2_3V3*%
X129794000Y-109728000D03*
X134620000Y-123190000D03*
X130556000Y-117094000D03*
%TO.N,/Sun Pyramid/LS3_3V3*%
X175006000Y-95695000D03*
X175006000Y-101854000D03*
X175006000Y-108013000D03*
%TO.N,Net-(Q8-D)*%
X157734000Y-116078000D03*
X163893000Y-116078000D03*
D13*
%TO.N,GNDREF*%
X130048000Y-78740000D03*
D12*
X157480000Y-72644000D03*
%TO.N,USB_5V*%
X148844000Y-75438000D03*
%TO.N,/Interfaces/USB-C/D_CONN-*%
X150876000Y-75438000D03*
%TO.N,/Interfaces/USB-C/D_CONN+*%
X149860000Y-75438000D03*
D13*
%TO.N,/Interfaces/RBF/SYS*%
X132588000Y-78740000D03*
%TO.N,/Interfaces/RBF/BATT*%
X136773183Y-78740000D03*
%TO.N,/Interfaces/RBF/VSYS*%
X135128000Y-78740000D03*
D12*
%TO.N,/I2C Translator/SDAOUT*%
X166878000Y-80963000D03*
X162369000Y-80264000D03*
%TO.N,/I2C Translator/SCLOUT*%
X162369000Y-78740000D03*
X166878000Y-85661000D03*
%TD*%
D14*
%TO.N,MAIN_3V3*%
X149986000Y-118301000D02*
X154178000Y-118301000D01*
X145288000Y-122999000D02*
X149986000Y-118301000D01*
%TO.N,SDA*%
X137731000Y-100838000D02*
X138747000Y-101854000D01*
X138747000Y-113780948D02*
X138747000Y-101854000D01*
X165587680Y-83141320D02*
X166116000Y-82613000D01*
X127953000Y-117094000D02*
X128484000Y-117625000D01*
X130787000Y-92553052D02*
X136726052Y-86614000D01*
X138113000Y-86614000D02*
X141816320Y-82910680D01*
X136726052Y-86614000D02*
X138113000Y-86614000D01*
X141816320Y-82910680D02*
X165818320Y-82910680D01*
X128778000Y-100838000D02*
X130787000Y-98829000D01*
X128587000Y-100838000D02*
X128778000Y-100838000D01*
X171641000Y-91171158D02*
X165587680Y-85117838D01*
X171641000Y-101854000D02*
X171641000Y-91171158D01*
X128484000Y-117625000D02*
X134902948Y-117625000D01*
X165818320Y-82910680D02*
X166116000Y-82613000D01*
X128587000Y-100838000D02*
X137731000Y-100838000D01*
X130787000Y-98829000D02*
X130787000Y-92553052D01*
X165587680Y-85117838D02*
X165587680Y-83141320D01*
X134902948Y-117625000D02*
X138747000Y-113780948D01*
%TO.N,SCL*%
X131486000Y-102385000D02*
X122388000Y-102385000D01*
X166644320Y-82394162D02*
X166644320Y-83482680D01*
X140016999Y-81280000D02*
X165530158Y-81280000D01*
X122388000Y-102385000D02*
X121857000Y-101854000D01*
X175534320Y-93429320D02*
X175534320Y-99017320D01*
X121857000Y-98134842D02*
X133377842Y-86614000D01*
X175534320Y-99017320D02*
X178371000Y-101854000D01*
X134683000Y-104520000D02*
X134683000Y-117094000D01*
X133377842Y-86614000D02*
X134682999Y-86614000D01*
X166644320Y-83482680D02*
X166116000Y-84011000D01*
X121857000Y-101854000D02*
X121857000Y-98134842D01*
X132017000Y-101854000D02*
X134683000Y-104520000D01*
X134682999Y-86614000D02*
X140016999Y-81280000D01*
X132017000Y-101854000D02*
X131486000Y-102385000D01*
X165530158Y-81280000D02*
X166644320Y-82394162D01*
X166116000Y-84011000D02*
X175534320Y-93429320D01*
%TO.N,SDA_SPWR*%
X148082000Y-85344000D02*
X144272000Y-85344000D01*
X149987000Y-83439000D02*
X148082000Y-85344000D01*
X144272000Y-85344000D02*
X140684500Y-88931500D01*
D15*
%TO.N,/Coil Driver/coil*%
X138059074Y-143662001D02*
X132293274Y-137896201D01*
X159217274Y-133172261D02*
X151597274Y-133172261D01*
X135313334Y-53392941D02*
X165188814Y-53392941D01*
X136535074Y-75920201D02*
X142300874Y-70154401D01*
X126756074Y-59664201D02*
X129753274Y-59664201D01*
X133969674Y-69824201D02*
X139735474Y-64058401D01*
X159191874Y-68122401D02*
X164983074Y-73913601D01*
X136382674Y-147726001D02*
X130616874Y-141960201D01*
X162493874Y-140792261D02*
X154797214Y-140792261D01*
X116951674Y-133070201D02*
X119771074Y-130250801D01*
X114513274Y-92049201D02*
X120279074Y-86283401D01*
X164551274Y-129260201D02*
X164551274Y-129260661D01*
X156321214Y-144348261D02*
X155991474Y-144678001D01*
X194116874Y-132816201D02*
X194116874Y-137997801D01*
X152612814Y-135712261D02*
X152283074Y-136042001D01*
X188452674Y-147726001D02*
X180324674Y-147726001D01*
X109103074Y-125755001D02*
X109103074Y-121894201D01*
X181340674Y-145186001D02*
X175574874Y-139420201D01*
X123327074Y-87553401D02*
X123327074Y-74904201D01*
X166862674Y-69341601D02*
X177759274Y-69341601D01*
X119085274Y-94005001D02*
X124851074Y-88239201D01*
X114183074Y-127888601D02*
X114183074Y-119786001D01*
X175117674Y-115290201D02*
X175117674Y-126720201D01*
X183245674Y-129209401D02*
X187131874Y-133095601D01*
X118653474Y-144170001D02*
X115605474Y-144170001D01*
X130616874Y-61696201D02*
X136382674Y-55930401D01*
X187004874Y-91795201D02*
X187004874Y-112039001D01*
X180934274Y-146202001D02*
X175168474Y-140436201D01*
X112659074Y-127253601D02*
X112659074Y-120395601D01*
X112557474Y-62051801D02*
X112557474Y-56438401D01*
X157947274Y-71170401D02*
X163738474Y-76961601D01*
X114005274Y-111734201D02*
X114005274Y-91846001D01*
X188376474Y-70230601D02*
X183753674Y-74853401D01*
X109512414Y-53392941D02*
X121196014Y-53392941D01*
X141208674Y-67614401D02*
X159395074Y-67614401D01*
X159801474Y-66598401D02*
X165592674Y-72389601D01*
X187817674Y-120497201D02*
X187817674Y-127228201D01*
X158785474Y-132156261D02*
X151165474Y-132156261D01*
X169326474Y-140436201D02*
X163560674Y-146202001D01*
X187309674Y-76326601D02*
X187309674Y-83464001D01*
X166303874Y-133324201D02*
X166303874Y-133324661D01*
X155788274Y-144170001D02*
X137855874Y-144170001D01*
X117129474Y-61010401D02*
X118043874Y-61010401D01*
X156829674Y-146710001D02*
X136814474Y-146710001D01*
X105877274Y-115061601D02*
X105877274Y-88544001D01*
X110017474Y-60985001D02*
X110017474Y-53898401D01*
X138668674Y-142138001D02*
X132902874Y-136372201D01*
X126095674Y-142468201D02*
X120329874Y-148234001D01*
X192592874Y-136473801D02*
X188833674Y-136473801D01*
X182432874Y-142646001D02*
X176667074Y-136880201D01*
X176895674Y-67309601D02*
X182686874Y-61518401D01*
X137449474Y-145186001D02*
X131683674Y-139420201D01*
X189849674Y-82397201D02*
X195640874Y-88188401D01*
X177479874Y-134848201D02*
X166964274Y-134848201D01*
X110957274Y-112978801D02*
X110957274Y-90601401D01*
X195640874Y-132181201D02*
X195640874Y-139521801D01*
X195132874Y-64642601D02*
X195132874Y-71348201D01*
X173517474Y-59181601D02*
X179306134Y-53392941D01*
X189976674Y-54406401D02*
X189976674Y-61188201D01*
X131683674Y-139420201D02*
X124851074Y-139420201D01*
X112659074Y-120395601D02*
X106893274Y-114629801D01*
X119009074Y-135838801D02*
X116240474Y-133070201D01*
X112989274Y-112140601D02*
X112989274Y-91439601D01*
X182356674Y-139344001D02*
X182356674Y-141147401D01*
X162620874Y-142824261D02*
X155686214Y-142824261D01*
X115199074Y-75412201D02*
X109433274Y-69646401D01*
X165440274Y-131292661D02*
X160512674Y-136220261D01*
X108417274Y-114020201D02*
X108417274Y-89585401D01*
X182229674Y-85597601D02*
X188020874Y-91388801D01*
X130413674Y-142468201D02*
X126095674Y-142468201D01*
X191881674Y-81533601D02*
X197672874Y-87324801D01*
X110119074Y-121462401D02*
X104353274Y-115696601D01*
X195132874Y-132384401D02*
X195132874Y-139013801D01*
X111058874Y-133933801D02*
X116215074Y-128777601D01*
X133106074Y-135864201D02*
X123352474Y-135864201D01*
X182178874Y-70611601D02*
X179689674Y-73100801D01*
X157362614Y-146888261D02*
X157032874Y-147218001D01*
X183880674Y-139979001D02*
X183880674Y-143154001D01*
X103845274Y-63118601D02*
X110042874Y-63118601D01*
X124343074Y-127736201D02*
X124343074Y-115595919D01*
X187309674Y-83464001D02*
X193100874Y-89255201D01*
X195640874Y-115518801D02*
X189849674Y-121310001D01*
X185912674Y-58470401D02*
X185912674Y-62813801D01*
X152206414Y-134696261D02*
X151876674Y-135026001D01*
X107401274Y-114426601D02*
X107401274Y-89153601D01*
X198180874Y-87096201D02*
X198180874Y-116560201D01*
X164551274Y-129260661D02*
X159623674Y-134188261D01*
X101812414Y-86893861D02*
X107579074Y-81127201D01*
X154797214Y-140792261D02*
X154467474Y-141122001D01*
X190484674Y-149758001D02*
X179511874Y-149758001D01*
X190357674Y-77545801D02*
X190357674Y-82168601D01*
X159598274Y-67106401D02*
X165389474Y-72897601D01*
X131251874Y-140436201D02*
X125257474Y-140436201D01*
X189468674Y-148742001D02*
X179918274Y-148742001D01*
X104861274Y-139521801D02*
X104861274Y-132181201D01*
X111947874Y-135965801D02*
X108417274Y-135965801D01*
X173720674Y-59689601D02*
X179511874Y-53898401D01*
X117739074Y-74320001D02*
X114030674Y-70611601D01*
X177098874Y-67817601D02*
X182356674Y-62559801D01*
X103337274Y-116128401D02*
X103337274Y-87528001D01*
X184896674Y-63220201D02*
X188859074Y-67182601D01*
X112328874Y-68706601D02*
X117129474Y-63906001D01*
X181721674Y-118033401D02*
X181721674Y-129844401D01*
X120279074Y-73304001D02*
X117586674Y-70611601D01*
X181569274Y-144678001D02*
X175803474Y-138912201D01*
X186293674Y-75920201D02*
X186293674Y-83870401D01*
X111033474Y-142265001D02*
X109814274Y-141045801D01*
X118145474Y-62534401D02*
X123403274Y-67792201D01*
X184388674Y-143662001D02*
X182001074Y-143662001D01*
X136179474Y-55422401D02*
X164348074Y-55422401D01*
X119771074Y-73507201D02*
X116875474Y-70611601D01*
X179181674Y-86842201D02*
X184972874Y-92633401D01*
X108087074Y-81355801D02*
X108087074Y-78333201D01*
X157032874Y-147218001D02*
X136585874Y-147218001D01*
X161071474Y-63550401D02*
X166862674Y-69341601D01*
X134604674Y-71348201D02*
X140370474Y-65582401D01*
X115707074Y-119151001D02*
X109941274Y-113385201D01*
X108925274Y-133883001D02*
X114691074Y-128117201D01*
X191576874Y-113893201D02*
X185785674Y-119684401D01*
X157871074Y-149250001D02*
X135773074Y-149250001D01*
X185277674Y-128295001D02*
X191068874Y-134086201D01*
X132064674Y-65252201D02*
X137830474Y-59486401D01*
X115097474Y-140537801D02*
X111541474Y-136981801D01*
X105877274Y-71145001D02*
X105877274Y-65150601D01*
X185277674Y-84302201D02*
X191068874Y-90093401D01*
X114792674Y-133070201D02*
X118247074Y-129615801D01*
X177149674Y-74929601D02*
X177149674Y-87680401D01*
X165795874Y-71881601D02*
X178826074Y-71881601D01*
X114081474Y-57962401D02*
X119288474Y-57962401D01*
X191881674Y-122148201D02*
X191881674Y-125551801D01*
X188960674Y-61594601D02*
X190484674Y-63118601D01*
X198180874Y-116560201D02*
X192389674Y-122351401D01*
X112532074Y-69214601D02*
X117637474Y-64109201D01*
X163306674Y-126212661D02*
X158379074Y-131140261D01*
X183245674Y-74624801D02*
X183245674Y-85165801D01*
X131886874Y-138912201D02*
X124647874Y-138912201D01*
X131658274Y-64236201D02*
X137424074Y-58470401D01*
X181518474Y-68478001D02*
X183652074Y-70611601D01*
X167421474Y-135864661D02*
X162493874Y-140792261D01*
X186420674Y-145694001D02*
X181137474Y-145694001D01*
X102321274Y-116560201D02*
X102321274Y-87121601D01*
X184388674Y-59994401D02*
X184388674Y-63423401D01*
X187512874Y-91592001D02*
X187512874Y-112242201D01*
X184388674Y-63423401D02*
X188655874Y-67690601D01*
X118577274Y-109829201D02*
X118577274Y-93776401D01*
X186293674Y-127837801D02*
X192084874Y-133629001D01*
X116545274Y-92887401D02*
X122311074Y-87121601D01*
X118678874Y-59486401D02*
X124444674Y-65252201D01*
X183448874Y-93268401D02*
X183448874Y-110540401D01*
X163509874Y-126720201D02*
X163509874Y-126720661D01*
X121295074Y-116839601D02*
X115529274Y-111073801D01*
X175625674Y-115493401D02*
X175625674Y-127228201D01*
X181442274Y-133756001D02*
X178978474Y-131292201D01*
X117231074Y-129184001D02*
X117231074Y-118541401D01*
X185074474Y-70611601D02*
X181721674Y-73964401D01*
X114589474Y-145186001D02*
X114589474Y-140741001D01*
X175168474Y-140436201D02*
X169326474Y-140436201D01*
X176133674Y-75945601D02*
X176133674Y-88112201D01*
X111135074Y-77114001D02*
X105369274Y-71348201D01*
X182483674Y-61010401D02*
X183372674Y-61010401D01*
X183525074Y-133095601D02*
X181442274Y-135178401D01*
X135442874Y-73380201D02*
X141208674Y-67614401D01*
X185912674Y-140842601D02*
X185912674Y-145186001D01*
X112151074Y-82981401D02*
X112151074Y-76707601D01*
X155127874Y-142646001D02*
X138465474Y-142646001D01*
X175371674Y-63753601D02*
X181162874Y-57962401D01*
X108925274Y-69849601D02*
X108925274Y-68198601D01*
X107579074Y-78536401D02*
X101812414Y-72769741D01*
X181213674Y-86004001D02*
X187004874Y-91795201D01*
X139964074Y-64566401D02*
X160614274Y-64566401D01*
X141361074Y-135534001D02*
X135595274Y-129768201D01*
X119085274Y-58470401D02*
X124851074Y-64236201D01*
X163052674Y-144576861D02*
X162951074Y-144576861D01*
X112049474Y-61823201D02*
X112049474Y-55930401D01*
X174965274Y-62737601D02*
X180756474Y-56946401D01*
X122311074Y-116407801D02*
X116545274Y-110642001D01*
X117637474Y-61518401D02*
X117840674Y-61518401D01*
X181721674Y-73964401D02*
X181721674Y-85800801D01*
X178216474Y-70357601D02*
X181518474Y-67055601D01*
X155559674Y-143662001D02*
X138059074Y-143662001D01*
X116545274Y-110642001D02*
X116545274Y-92887401D01*
X117637474Y-139521801D02*
X112557474Y-134441801D01*
X175803474Y-138912201D02*
X168716874Y-138912201D01*
X122819074Y-116204601D02*
X117053274Y-110438801D01*
X110246074Y-63626601D02*
X112049474Y-61823201D01*
X168310474Y-65785601D02*
X176235274Y-65785601D01*
X118069274Y-110032401D02*
X118069274Y-93547801D01*
X190891074Y-141553801D02*
X189976674Y-142468201D01*
X182356674Y-141147401D02*
X177073474Y-135864201D01*
X109611074Y-81965401D02*
X109611074Y-77723601D01*
X165188814Y-53392941D02*
X170977474Y-59181601D01*
X131226474Y-63220201D02*
X136992274Y-57454401D01*
X119034474Y-68452601D02*
X121930074Y-71348201D01*
X118247074Y-118109601D02*
X112481274Y-112343801D01*
X190865674Y-125983601D02*
X196656874Y-131774801D01*
X140116474Y-138582001D02*
X134350674Y-132816201D01*
X110017474Y-149758001D02*
X110017474Y-142671401D01*
X117231074Y-118541401D02*
X111465274Y-112775601D01*
X192389674Y-81305001D02*
X198180874Y-87096201D01*
X106385274Y-70941801D02*
X106385274Y-65658601D01*
X116240474Y-133070201D02*
X119263074Y-130047601D01*
X178165674Y-116534801D02*
X178165674Y-129768201D01*
X137043074Y-126212201D02*
X125867074Y-126212201D01*
X182356674Y-62559801D02*
X182356674Y-64287001D01*
X163433674Y-144195861D02*
X163052674Y-144576861D01*
X151498360Y-131140261D02*
X150380699Y-130022600D01*
X187436674Y-62204201D02*
X189875074Y-64642601D01*
X124216074Y-65760201D02*
X132267874Y-65760201D01*
X190357674Y-82168601D02*
X196148874Y-87959801D01*
X176032074Y-65277601D02*
X181823274Y-59486401D01*
X113065474Y-141401401D02*
X110677874Y-139013801D01*
X112049474Y-141833201D02*
X110246074Y-140029801D01*
X197672874Y-141553801D02*
X190891074Y-141553801D01*
X142580274Y-132486001D02*
X136814474Y-126720201D01*
X161579014Y-148234001D02*
X160741274Y-147396261D01*
X117129474Y-142646001D02*
X117129474Y-139725001D01*
X115021274Y-111302401D02*
X115021274Y-92277801D01*
X168488274Y-138404201D02*
X163001874Y-143890601D01*
X188528874Y-91160201D02*
X188528874Y-112674001D01*
X174533474Y-61721601D02*
X180324674Y-55930401D01*
X184896674Y-140410801D02*
X184896674Y-144170001D01*
X189443274Y-133933801D02*
X187766874Y-133933801D01*
X117637474Y-142138001D02*
X117637474Y-139521801D01*
X183956874Y-110743601D02*
X178165674Y-116534801D01*
X112963874Y-70230601D02*
X118653474Y-64541001D01*
X157997614Y-148412261D02*
X157667874Y-148742001D01*
X108087074Y-122326001D02*
X102321274Y-116560201D01*
X117129474Y-139725001D02*
X112354274Y-134949801D01*
X141767474Y-134518001D02*
X136001674Y-128752201D01*
X120787074Y-86512001D02*
X120787074Y-73075401D01*
X119059874Y-110311801D02*
X118577274Y-109829201D01*
X196148874Y-87959801D02*
X196148874Y-115722001D01*
X178572074Y-132308201D02*
X165897474Y-132308201D01*
X164551274Y-54914401D02*
X170342474Y-60705601D01*
X115707074Y-128549001D02*
X115707074Y-119151001D01*
X162264814Y-140284261D02*
X154568614Y-140284261D01*
X142300874Y-70154401D02*
X158353674Y-70154401D01*
X141564274Y-135026001D02*
X135798474Y-129260201D01*
X182864674Y-64058401D02*
X188020874Y-69214601D01*
X174609674Y-126212201D02*
X163306674Y-126212201D01*
X150962274Y-131648261D02*
X150632074Y-131978461D01*
X190484674Y-53898401D02*
X190484674Y-60985001D01*
X113675074Y-127660001D02*
X113675074Y-119989201D01*
X159420474Y-133680261D02*
X151800014Y-133680261D01*
X113573474Y-141198201D02*
X110881074Y-138505801D01*
X176235274Y-65785601D02*
X182026474Y-59994401D01*
X115707074Y-75209001D02*
X109941274Y-69443201D01*
X183245674Y-85165801D02*
X189036874Y-90957001D01*
X116215074Y-75005801D02*
X110931874Y-69722601D01*
X105877274Y-132613001D02*
X111643074Y-126847201D01*
X104861274Y-88137601D02*
X110627074Y-82371801D01*
X186801674Y-127634601D02*
X192592874Y-133425801D01*
X125867074Y-88671001D02*
X125867074Y-77444201D01*
X109941274Y-113385201D02*
X109941274Y-90195001D01*
X192592874Y-89458401D02*
X192592874Y-114299601D01*
X109407874Y-61594601D02*
X110017474Y-60985001D01*
X122946074Y-68808201D02*
X133537874Y-68808201D01*
X136585874Y-147218001D02*
X130820074Y-141452201D01*
X108925274Y-113791601D02*
X108925274Y-89788601D01*
X125689274Y-62204201D02*
X130820074Y-62204201D01*
X180324674Y-55930401D02*
X188452674Y-55930401D01*
X190988414Y-150270261D02*
X179312934Y-150270261D01*
X190357674Y-121513201D02*
X190357674Y-126186801D01*
X158582274Y-131648261D02*
X150962274Y-131648261D01*
X181518474Y-69925801D02*
X182178874Y-70586201D01*
X198689734Y-61092941D02*
X198689734Y-72769741D01*
X168259674Y-137896201D02*
X162976474Y-143179401D01*
X117129474Y-63906001D02*
X117129474Y-61010401D01*
X139481474Y-140106001D02*
X133715674Y-134340201D01*
X102829274Y-116331601D02*
X102829274Y-87324801D01*
X164754474Y-54406401D02*
X170545674Y-60197601D01*
X134579274Y-132308201D02*
X121828474Y-132308201D01*
X161808074Y-139268261D02*
X154136814Y-139268261D01*
X155356474Y-143154001D02*
X138262274Y-143154001D01*
X114691074Y-119557401D02*
X108925274Y-113791601D01*
X130210474Y-142976201D02*
X126298874Y-142976201D01*
X124851074Y-76428201D02*
X136738274Y-76428201D01*
X121396674Y-131292201D02*
X119009074Y-133679801D01*
X137424074Y-58470401D02*
X163128874Y-58470401D01*
X181442274Y-138074001D02*
X177708474Y-134340201D01*
X186420674Y-133095601D02*
X181442274Y-138074001D01*
X101812414Y-142570261D02*
X101812414Y-130912061D01*
X114691074Y-84022801D02*
X114691074Y-75615401D01*
X110119074Y-126186801D02*
X110119074Y-121462401D01*
X163433674Y-144195401D02*
X163433674Y-144195861D01*
X187944674Y-147218001D02*
X180527874Y-147218001D01*
X164348074Y-128752201D02*
X161503274Y-131597001D01*
X103845274Y-71957801D02*
X103845274Y-63118601D01*
X158988674Y-68630401D02*
X164779874Y-74421601D01*
X135595274Y-129768201D02*
X122311074Y-129768201D01*
X188833674Y-82829001D02*
X194624874Y-88620201D01*
X107401274Y-66674601D02*
X111490674Y-66674601D01*
X112557474Y-56438401D02*
X119923474Y-56438401D01*
X154136814Y-139268261D02*
X153807074Y-139598001D01*
X158404474Y-149428261D02*
X158074734Y-149758001D01*
X189468674Y-54914401D02*
X189468674Y-61391401D01*
X174762074Y-141452201D02*
X169732874Y-141452201D01*
X107579074Y-125145401D02*
X107579074Y-122529201D01*
X111643074Y-126847201D02*
X111643074Y-120827401D01*
X164576674Y-148742001D02*
X161375814Y-148742001D01*
X160944474Y-146888261D02*
X157362614Y-146888261D01*
X183448874Y-110540401D02*
X177657674Y-116331601D01*
X182229674Y-129641201D02*
X185684074Y-133095601D01*
X114081474Y-62661401D02*
X114081474Y-57962401D01*
X191881674Y-125551801D02*
X197672874Y-131343001D01*
X196148874Y-131978001D02*
X196148874Y-140029801D01*
X132496474Y-137388201D02*
X124012874Y-137388201D01*
X116037274Y-110845201D02*
X116037274Y-92684201D01*
X159014074Y-132664261D02*
X151368674Y-132664261D01*
X111643074Y-82778201D02*
X111643074Y-76910801D01*
X135950874Y-54914401D02*
X164551274Y-54914401D01*
X164754474Y-129768661D02*
X159826874Y-134696261D01*
X120787074Y-73075401D02*
X118323274Y-70611601D01*
X164983074Y-149758001D02*
X160944014Y-149758001D01*
X124343074Y-115595919D02*
X119059874Y-110312719D01*
X114589474Y-140741001D02*
X111338274Y-137489801D01*
X114691074Y-128117201D02*
X114691074Y-119557401D01*
X153146674Y-138074001D02*
X140345074Y-138074001D01*
X125359074Y-126720201D02*
X125359074Y-115188601D01*
X139913274Y-139090001D02*
X134147474Y-133324201D01*
X187131874Y-133121001D02*
X181442274Y-138810601D01*
X163535274Y-77469601D02*
X174609674Y-77469601D01*
X190989734Y-142899086D02*
X190989734Y-150268941D01*
X198180874Y-61594601D02*
X198180874Y-72567401D01*
X162976014Y-143890601D02*
X162417674Y-143332261D01*
X164983074Y-130276201D02*
X164983074Y-130276661D01*
X162036674Y-139776261D02*
X154340014Y-139776261D01*
X189671874Y-138505801D02*
X186928674Y-141249001D01*
X192389674Y-122351401D02*
X192389674Y-125348601D01*
X181518474Y-64871201D02*
X187258874Y-70611601D01*
X113065474Y-146710001D02*
X113065474Y-141401401D01*
X125867074Y-77444201D02*
X137195474Y-77444201D01*
X164779874Y-74421601D02*
X177657674Y-74421601D01*
X110474674Y-139521801D02*
X104861274Y-139521801D01*
X178673674Y-116738001D02*
X178673674Y-130276201D01*
X165668874Y-131800201D02*
X165668874Y-131800661D01*
X160207874Y-65582401D02*
X165999074Y-71373601D01*
X120964874Y-149758001D02*
X110017474Y-149758001D01*
X180400874Y-94538401D02*
X180400874Y-109295801D01*
X192084874Y-70129001D02*
X186293674Y-75920201D01*
X119034474Y-69163801D02*
X121726874Y-71856201D01*
X124647874Y-138912201D02*
X118882074Y-144678001D01*
X111338274Y-137489801D02*
X106918674Y-137489801D01*
X165999074Y-71373601D02*
X178622874Y-71373601D01*
X106918674Y-137489801D02*
X106893274Y-137464401D01*
X164348074Y-75437601D02*
X176641674Y-75437601D01*
X180324674Y-147726001D02*
X174558874Y-141960201D01*
X103337274Y-72161001D02*
X103337274Y-62610601D01*
X108417274Y-133654401D02*
X114183074Y-127888601D01*
X119009074Y-137997801D02*
X114081474Y-133070201D01*
X121523674Y-72364201D02*
X135036474Y-72364201D01*
X178775274Y-131800201D02*
X165668874Y-131800201D01*
X107909274Y-89356801D02*
X113675074Y-83591001D01*
X169326474Y-63245601D02*
X175168474Y-63245601D01*
X166202274Y-70865601D02*
X178419674Y-70865601D01*
X180705674Y-117627001D02*
X180705674Y-130276201D01*
X182636074Y-142138001D02*
X176870274Y-136372201D01*
X178622874Y-71373601D02*
X181518474Y-68478001D01*
X138033674Y-59994401D02*
X162519274Y-59994401D01*
X176006674Y-138404201D02*
X168488274Y-138404201D01*
X182864674Y-139547201D02*
X182864674Y-142138001D01*
X177327474Y-68325601D02*
X181848674Y-63804401D01*
X162214474Y-143840261D02*
X156118014Y-143840261D01*
X115605474Y-63271001D02*
X115605474Y-59486401D01*
X179918274Y-54914401D02*
X189468674Y-54914401D01*
X176641674Y-128244201D02*
X164144874Y-128244201D01*
X164983074Y-53898401D02*
X170774274Y-59689601D01*
X103845274Y-87731201D02*
X109611074Y-81965401D01*
X109941274Y-69214601D02*
X112532074Y-69214601D01*
X109512414Y-142899086D02*
X109183589Y-142570261D01*
X112659074Y-76504401D02*
X106893274Y-70738601D01*
X107401274Y-136981801D02*
X107401274Y-133222601D01*
X132293274Y-137896201D02*
X124216074Y-137896201D01*
X152715334Y-137058001D02*
X140751474Y-137058001D01*
X194116874Y-70941801D02*
X188325674Y-76733001D01*
X123174674Y-68300201D02*
X133309274Y-68300201D01*
X106893274Y-114629801D02*
X106893274Y-88950401D01*
X109183589Y-142570261D02*
X101812414Y-142570261D01*
X197164874Y-72161001D02*
X191373674Y-77952201D01*
X162722474Y-59486401D02*
X168513674Y-65277601D01*
X135544474Y-149758001D02*
X129778674Y-143992201D01*
X110119074Y-82168601D02*
X110119074Y-77520401D01*
X124216074Y-137896201D02*
X118450274Y-143662001D01*
X198180874Y-131139801D02*
X198180874Y-142061801D01*
X196656874Y-131774801D02*
X196656874Y-140537801D01*
X118247074Y-129615801D02*
X118247074Y-118109601D01*
X116621474Y-143154001D02*
X116621474Y-139928201D01*
X125486074Y-62712201D02*
X131023274Y-62712201D01*
X170952074Y-144500201D02*
X165186274Y-150266001D01*
X155025814Y-141300261D02*
X154696074Y-141630001D01*
X118018474Y-142646001D02*
X117129474Y-142646001D01*
X161681074Y-62026401D02*
X167472274Y-67817601D01*
X189976674Y-61188201D02*
X190891074Y-62102601D01*
X164144874Y-55930401D02*
X169936074Y-61721601D01*
X123835074Y-87782001D02*
X123835074Y-75412201D01*
X118755074Y-85673801D02*
X118755074Y-73913601D01*
X175168474Y-63245601D02*
X180959674Y-57454401D01*
X167065874Y-68833601D02*
X177556074Y-68833601D01*
X167904074Y-66801601D02*
X176692474Y-66801601D01*
X175625674Y-127228201D02*
X163713074Y-127228201D01*
X196656874Y-63118601D02*
X196656874Y-71957801D01*
X163001874Y-143890601D02*
X162976014Y-143890601D01*
X116037274Y-92684201D02*
X121803074Y-86918401D01*
X197672874Y-116357001D02*
X191881674Y-122148201D01*
X190484674Y-63118601D02*
X196656874Y-63118601D01*
X195640874Y-64134601D02*
X195640874Y-71551401D01*
X193100874Y-89255201D02*
X193100874Y-114502801D01*
X109941274Y-69443201D02*
X109941274Y-69214601D01*
X161604874Y-145364261D02*
X156753014Y-145364261D01*
X195640874Y-71551401D02*
X189849674Y-77342601D01*
X118882074Y-144678001D02*
X115097474Y-144678001D01*
X185912674Y-62813801D02*
X189265474Y-66166601D01*
X142097674Y-69646401D02*
X158556874Y-69646401D01*
X108087074Y-78333201D02*
X102321274Y-72567401D01*
X103845274Y-115925201D02*
X103845274Y-87731201D01*
X115503874Y-133070201D02*
X118755074Y-129819001D01*
X117815274Y-142138001D02*
X117637474Y-142138001D01*
X133537874Y-68808201D02*
X139303674Y-63042401D01*
X113370274Y-133044801D02*
X117231074Y-129184001D01*
X109611074Y-141553801D02*
X102829274Y-141553801D01*
X197672874Y-131343001D02*
X197672874Y-141553801D01*
X187944674Y-56438401D02*
X187944674Y-62001001D01*
X162316074Y-60502401D02*
X168107274Y-66293601D01*
X176641674Y-87883601D02*
X182432874Y-93674801D01*
X169936074Y-141960201D02*
X164170274Y-147726001D01*
X125867074Y-126212201D02*
X125867074Y-114985401D01*
X113675074Y-119989201D02*
X107909274Y-114223401D01*
X115605474Y-144170001D02*
X115605474Y-140334601D01*
X186547674Y-70611601D02*
X182737674Y-74421601D01*
X195132874Y-88391601D02*
X195132874Y-115315601D01*
X136001674Y-128752201D02*
X123327074Y-128752201D01*
X166405474Y-70357601D02*
X178216474Y-70357601D01*
X183880674Y-63626601D02*
X188452674Y-68198601D01*
X124851074Y-139420201D02*
X119085274Y-145186001D01*
X116215074Y-84632401D02*
X116215074Y-75005801D01*
X111084274Y-65658601D02*
X114081474Y-62661401D01*
X157667874Y-148742001D02*
X135976274Y-148742001D01*
X110677874Y-64642601D02*
X113065474Y-62255001D01*
X104861274Y-115468001D02*
X104861274Y-88137601D01*
X122666674Y-134340201D02*
X119009074Y-137997801D01*
X188960674Y-148234001D02*
X180121474Y-148234001D01*
X115529274Y-111073801D02*
X115529274Y-92481001D01*
X183372674Y-139750401D02*
X183372674Y-142646001D01*
X118755074Y-129819001D02*
X118755074Y-117906401D01*
X186928674Y-146202001D02*
X180934274Y-146202001D01*
X136789074Y-56946401D02*
X163738474Y-56946401D01*
X196656874Y-71957801D02*
X190865674Y-77749001D01*
X188020874Y-112445401D02*
X182229674Y-118236601D01*
X190560874Y-69494001D02*
X184769674Y-75285201D01*
X153045074Y-136728261D02*
X152715334Y-137058001D01*
X113573474Y-146202001D02*
X113573474Y-141198201D01*
X120152074Y-55930401D02*
X125917874Y-61696201D01*
X110525474Y-54406401D02*
X120787074Y-54406401D01*
X111693874Y-67182601D02*
X115605474Y-63271001D01*
X102321274Y-87121601D02*
X108087074Y-81355801D01*
X130820074Y-141452201D02*
X125663874Y-141452201D01*
X191373674Y-77952201D02*
X191373674Y-81736801D01*
X163763874Y-146710001D02*
X162239414Y-146710001D01*
X153375274Y-138582001D02*
X140116474Y-138582001D01*
X176133674Y-88112201D02*
X181924874Y-93903401D01*
X155889414Y-143332261D02*
X155559674Y-143662001D01*
X182915474Y-70586201D02*
X182915474Y-70611601D01*
X189976674Y-142468201D02*
X189976674Y-149250001D01*
X181848674Y-139140801D02*
X181848674Y-139928201D01*
X165211674Y-130784201D02*
X160283614Y-135712261D01*
X110525474Y-61213601D02*
X110525474Y-54406401D01*
X114183074Y-119786001D02*
X108417274Y-114020201D01*
X136814474Y-126720201D02*
X125359074Y-126720201D01*
X162417674Y-143332261D02*
X155889414Y-143332261D01*
X160004674Y-66090401D02*
X165795874Y-71881601D01*
X135188874Y-130784201D02*
X121295074Y-130784201D01*
X113497274Y-91642801D02*
X119263074Y-85877001D01*
X151267534Y-133502001D02*
X142173874Y-133502001D01*
X157159414Y-146380261D02*
X156829674Y-146710001D01*
X169732874Y-141452201D02*
X163967074Y-147218001D01*
X113573474Y-57454401D02*
X119491674Y-57454401D01*
X179511874Y-53898401D02*
X190484674Y-53898401D01*
X154010274Y-140106001D02*
X139481474Y-140106001D01*
X185480874Y-111404001D02*
X179689674Y-117195201D01*
X191576874Y-89890201D02*
X191576874Y-113893201D01*
X121295074Y-130784201D02*
X121295074Y-116839601D01*
X116875474Y-70611601D02*
X119034474Y-68452601D01*
X190560874Y-69214601D02*
X190560874Y-69494001D01*
X191094274Y-61594601D02*
X198180874Y-61594601D01*
X156423274Y-145694001D02*
X137220874Y-145694001D01*
X140751474Y-137058001D02*
X134985674Y-131292201D01*
X156956214Y-145872261D02*
X156626474Y-146202001D01*
X138465474Y-142646001D02*
X132699674Y-136880201D01*
X109433274Y-134111601D02*
X115199074Y-128345801D01*
X121828474Y-132308201D02*
X119009074Y-135127601D01*
X136331874Y-75412201D02*
X142097674Y-69646401D01*
X191576874Y-133857601D02*
X191576874Y-135457801D01*
X191373674Y-121945001D02*
X191373674Y-125780401D01*
X119694874Y-146710001D02*
X113065474Y-146710001D01*
X189849674Y-77342601D02*
X189849674Y-82397201D01*
X174127074Y-60705601D02*
X179918274Y-54914401D01*
X121295074Y-72872201D02*
X135239674Y-72872201D01*
X174965274Y-140944201D02*
X169529674Y-140944201D01*
X140167274Y-65074401D02*
X160411074Y-65074401D01*
X167472274Y-67817601D02*
X177098874Y-67817601D01*
X122133274Y-70840201D02*
X134401474Y-70840201D01*
X114589474Y-62864601D02*
X114589474Y-58470401D01*
X158379074Y-131140261D02*
X151498360Y-131140261D01*
X185277674Y-75488401D02*
X185277674Y-84302201D01*
X161376274Y-138252261D02*
X153705014Y-138252261D01*
X125460674Y-140944201D02*
X119694874Y-146710001D01*
X109407874Y-142061801D02*
X102321274Y-142061801D01*
X194624874Y-65150601D02*
X194624874Y-71145001D01*
X111135074Y-82575001D02*
X111135074Y-77114001D01*
X175625674Y-76453601D02*
X175625674Y-88315401D01*
X185404674Y-63017001D02*
X189062274Y-66674601D01*
X188833674Y-136473801D02*
X184896674Y-140410801D01*
X107909274Y-133425801D02*
X113675074Y-127660001D01*
X142377074Y-132994001D02*
X136611274Y-127228201D01*
X112557474Y-147218001D02*
X112557474Y-141604601D01*
X189341674Y-121106801D02*
X189341674Y-126593201D01*
X159903074Y-149428261D02*
X158404474Y-149428261D01*
X166964274Y-134848201D02*
X166964274Y-134848661D01*
X121295074Y-86715201D02*
X121295074Y-72872201D01*
X175574874Y-139420201D02*
X168920074Y-139420201D01*
X193100874Y-136981801D02*
X189062274Y-136981801D01*
X190865674Y-77749001D02*
X190865674Y-81940001D01*
X162010814Y-147218001D02*
X161173074Y-146380261D01*
X164983074Y-73913601D02*
X178165674Y-73913601D01*
X152841414Y-136220261D02*
X152511674Y-136550001D01*
X139075074Y-62534401D02*
X161477874Y-62534401D01*
X179181674Y-116966601D02*
X179181674Y-130784201D01*
X118323274Y-70611601D02*
X119034474Y-69900401D01*
X121196014Y-53392941D02*
X126959274Y-59156201D01*
X162696614Y-141300261D02*
X155025814Y-141300261D01*
X136611274Y-127228201D02*
X124851074Y-127228201D01*
X180553274Y-56438401D02*
X187944674Y-56438401D01*
X190357674Y-126186801D02*
X196148874Y-131978001D01*
X124851074Y-88239201D02*
X124851074Y-76428201D01*
X110931874Y-69722601D02*
X112735274Y-69722601D01*
X138236874Y-60502401D02*
X162316074Y-60502401D01*
X109941274Y-134314801D02*
X115707074Y-128549001D01*
X189875074Y-139013801D02*
X187436674Y-141452201D01*
X134198274Y-70332201D02*
X139964074Y-64566401D01*
X189544874Y-90753801D02*
X189544874Y-113080401D01*
X157591214Y-147396261D02*
X157261474Y-147726001D01*
X167421474Y-135864201D02*
X167421474Y-135864661D01*
X165668874Y-131800661D02*
X160741274Y-136728261D01*
X102829274Y-87324801D02*
X108595074Y-81559001D01*
X198689734Y-72769741D02*
X192897674Y-78561801D01*
X181213674Y-73761201D02*
X181213674Y-86004001D01*
X183880674Y-60502401D02*
X183880674Y-63626601D01*
X161604874Y-138760261D02*
X153933614Y-138760261D01*
X139075074Y-141122001D02*
X133309274Y-135356201D01*
X181924874Y-93903401D02*
X181924874Y-109930801D01*
X155229014Y-141808261D02*
X154899274Y-142138001D01*
X187436674Y-146710001D02*
X180731074Y-146710001D01*
X137017674Y-146202001D02*
X131251874Y-140436201D01*
X115453074Y-70611601D02*
X119034474Y-67030201D01*
X182737674Y-74421601D02*
X182737674Y-85369001D01*
X192389674Y-125348601D02*
X198180874Y-131139801D01*
X122311074Y-73888201D02*
X135646074Y-73888201D01*
X167624674Y-136372201D02*
X162696614Y-141300261D01*
X119720274Y-56946401D02*
X125486074Y-62712201D01*
X119009074Y-138709001D02*
X113370274Y-133070201D01*
X107909274Y-114223401D02*
X107909274Y-89356801D01*
X111643074Y-76910801D02*
X105877274Y-71145001D01*
X110017474Y-140537801D02*
X103845274Y-140537801D01*
X115605474Y-140334601D02*
X111744674Y-136473801D01*
X177657674Y-129260201D02*
X164551274Y-129260201D01*
X189036874Y-112877201D02*
X183245674Y-118668401D01*
X155991474Y-144678001D02*
X137652674Y-144678001D01*
X110957274Y-90601401D02*
X116723074Y-84835601D01*
X119771074Y-130250801D02*
X119771074Y-117500001D01*
X105877274Y-88544001D02*
X111643074Y-82778201D01*
X162925674Y-58978401D02*
X168716874Y-64769601D01*
X111973274Y-112547001D02*
X111973274Y-91033201D01*
X134147474Y-133324201D02*
X122260274Y-133324201D01*
X187792274Y-69722601D02*
X189621074Y-69722601D01*
X126298874Y-142976201D02*
X120533074Y-148742001D01*
X184972874Y-92633401D02*
X184972874Y-111175401D01*
X109103074Y-77926801D02*
X103337274Y-72161001D01*
X121599874Y-131800201D02*
X119009074Y-134391001D01*
X178978474Y-131292201D02*
X165440274Y-131292201D01*
X136179474Y-148234001D02*
X130413674Y-142468201D01*
X102829274Y-62102601D02*
X109636474Y-62102601D01*
X188452674Y-141858601D02*
X188452674Y-147726001D01*
X113319474Y-70637001D02*
X113319474Y-70611601D01*
X120533074Y-148742001D02*
X111033474Y-148742001D01*
X188960674Y-142061801D02*
X188960674Y-148234001D01*
X153476414Y-137744261D02*
X153146674Y-138074001D01*
X187970074Y-134441801D02*
X182864674Y-139547201D01*
X142504074Y-70662401D02*
X158150474Y-70662401D01*
X181213674Y-117830201D02*
X181213674Y-130073001D01*
X126527474Y-143484201D02*
X120761674Y-149250001D01*
X109433274Y-113588401D02*
X109433274Y-89991801D01*
X108417274Y-70078201D02*
X108417274Y-67690601D01*
X115529274Y-92481001D02*
X121295074Y-86715201D01*
X124343074Y-88010601D02*
X124343074Y-75920201D01*
X109512414Y-150270261D02*
X109512414Y-142899086D01*
X193100874Y-70535401D02*
X187309674Y-76326601D01*
X112989274Y-91439601D02*
X118755074Y-85673801D01*
X119288474Y-145694001D02*
X114081474Y-145694001D01*
X138643274Y-61518401D02*
X161909674Y-61518401D01*
X111033474Y-54914401D02*
X120558474Y-54914401D01*
X129550074Y-144500201D02*
X126959274Y-144500201D01*
X105877274Y-138505801D02*
X105877274Y-132613001D01*
X163560674Y-146202001D02*
X162442614Y-146202001D01*
X181442274Y-138810601D02*
X177479874Y-134848201D01*
X131429674Y-63728201D02*
X137195474Y-57962401D01*
X181823274Y-59486401D02*
X184896674Y-59486401D01*
X163713074Y-127228661D02*
X158785474Y-132156261D01*
X116113474Y-140131401D02*
X111947874Y-135965801D01*
X161274674Y-63042401D02*
X167065874Y-68833601D01*
X180908874Y-109499001D02*
X175117674Y-115290201D01*
X125917874Y-61696201D02*
X130616874Y-61696201D01*
X194624874Y-115112401D02*
X188833674Y-120903601D01*
X133512474Y-134848201D02*
X122895274Y-134848201D01*
X118755074Y-117906401D02*
X112989274Y-112140601D01*
X115707074Y-84429201D02*
X115707074Y-75209001D01*
X181442274Y-134467201D02*
X178775274Y-131800201D01*
X136966874Y-76936201D02*
X142732674Y-71170401D01*
X134350674Y-132816201D02*
X122031674Y-132816201D01*
X191576874Y-135457801D02*
X188401874Y-135457801D01*
X180731074Y-146710001D02*
X174965274Y-140944201D01*
X181137474Y-145694001D02*
X175371674Y-139928201D01*
X123581074Y-136372201D02*
X117815274Y-142138001D01*
X193608874Y-89052001D02*
X193608874Y-114706001D01*
X191094274Y-142061801D02*
X190484674Y-142671401D01*
X160106274Y-148920261D02*
X158200814Y-148920261D01*
X152943474Y-137566001D02*
X140548274Y-137566001D01*
X178826074Y-71881601D02*
X181518474Y-69189201D01*
X109433274Y-89991801D02*
X115199074Y-84226001D01*
X115199074Y-119354201D02*
X109433274Y-113588401D01*
X182178874Y-70586201D02*
X182178874Y-70611601D01*
X135773074Y-149250001D02*
X130007274Y-143484201D01*
X164348074Y-55422401D02*
X170139274Y-61213601D01*
X116113474Y-63474201D02*
X116113474Y-59994401D01*
X117231074Y-85064201D02*
X117231074Y-74548601D01*
X164144874Y-75945601D02*
X176133674Y-75945601D01*
X170545674Y-143484201D02*
X164779874Y-149250001D01*
X134985674Y-131292201D02*
X121396674Y-131292201D01*
X188325674Y-83032201D02*
X194116874Y-88823401D01*
X125663874Y-141452201D02*
X119898074Y-147218001D01*
X174330274Y-61213601D02*
X180121474Y-55422401D01*
X111109674Y-137997801D02*
X106385274Y-137997801D01*
X118577274Y-93776401D02*
X124343074Y-88010601D01*
X136738274Y-76428201D02*
X142504074Y-70662401D01*
X112989274Y-133425801D02*
X112278074Y-133425801D01*
X103845274Y-140537801D02*
X103845274Y-131749401D01*
X113065474Y-56946401D02*
X119720274Y-56946401D01*
X123835074Y-75412201D02*
X136331874Y-75412201D01*
X177149674Y-87680401D02*
X182940874Y-93471601D01*
X158760074Y-69138401D02*
X164551274Y-74929601D01*
X179511874Y-149758001D02*
X173746074Y-143992201D01*
X132699674Y-136880201D02*
X123784274Y-136880201D01*
X115605474Y-59486401D02*
X118678874Y-59486401D01*
X182686874Y-61518401D02*
X182864674Y-61518401D01*
X190687874Y-62610601D02*
X197164874Y-62610601D01*
X193100874Y-133222601D02*
X193100874Y-136981801D01*
X178673674Y-73405601D02*
X178673674Y-87045401D01*
X114183074Y-75844001D02*
X108417274Y-70078201D01*
X111897074Y-67690601D02*
X116113474Y-63474201D01*
X164170274Y-147726001D02*
X161782214Y-147726001D01*
X170748874Y-143992201D02*
X164983074Y-149758001D01*
X112354274Y-134949801D02*
X109433274Y-134949801D01*
X151673934Y-134518001D02*
X141767474Y-134518001D01*
X188859074Y-67182601D02*
X192592874Y-67182601D01*
X188198674Y-133425801D02*
X187563674Y-133425801D01*
X163535274Y-57454401D02*
X169326474Y-63245601D01*
X151165474Y-132156261D02*
X150835734Y-132486001D01*
X192592874Y-133425801D02*
X192592874Y-136473801D01*
X155457614Y-142316261D02*
X155127874Y-142646001D01*
X183753674Y-84962601D02*
X189544874Y-90753801D01*
X168920074Y-139420201D02*
X163154274Y-145186001D01*
X187309674Y-127431401D02*
X193100874Y-133222601D01*
X111490674Y-66674601D02*
X115097474Y-63067801D01*
X116621474Y-139928201D02*
X112151074Y-135457801D01*
X167269074Y-68325601D02*
X177327474Y-68325601D01*
X115021274Y-92277801D02*
X120787074Y-86512001D01*
X177708474Y-134340201D02*
X166735674Y-134340201D01*
X111541474Y-142061801D02*
X110017474Y-140537801D01*
X113167074Y-120192401D02*
X107401274Y-114426601D01*
X119898074Y-147218001D02*
X112557474Y-147218001D01*
X125359074Y-76936201D02*
X136966874Y-76936201D01*
X123352474Y-135864201D02*
X118145474Y-141071201D01*
X164779874Y-149250001D02*
X161147214Y-149250001D01*
X138440074Y-61010401D02*
X162112874Y-61010401D01*
X190989734Y-53392941D02*
X190989734Y-60764116D01*
X109941274Y-134441801D02*
X109941274Y-134314801D01*
X183652074Y-70611601D02*
X180705674Y-73558001D01*
X188224074Y-68706601D02*
X191068874Y-68706601D01*
X119085274Y-109626001D02*
X119085274Y-94005001D01*
X119034474Y-138709001D02*
X119009074Y-138709001D01*
X109433274Y-69646401D02*
X109433274Y-68706601D01*
X186293674Y-119887601D02*
X186293674Y-127837801D01*
X182001074Y-143662001D02*
X176235274Y-137896201D01*
X106893274Y-70738601D02*
X106893274Y-66166601D01*
X160512674Y-136220261D02*
X152841414Y-136220261D01*
X168920074Y-64261601D02*
X175574874Y-64261601D01*
X180197674Y-117398401D02*
X180197674Y-130479401D01*
X181721674Y-85800801D02*
X187512874Y-91592001D01*
X122311074Y-129768201D02*
X122311074Y-116407801D01*
X181442274Y-136626201D02*
X178140274Y-133324201D01*
X107909274Y-67182601D02*
X111693874Y-67182601D01*
X167827874Y-136880201D02*
X167827874Y-136880661D01*
X191068874Y-68706601D02*
X191068874Y-69697201D01*
X121189214Y-150270261D02*
X109512414Y-150270261D01*
X191068874Y-134086201D02*
X191068874Y-134949801D01*
X118247074Y-60502401D02*
X124012874Y-66268201D01*
X163738474Y-76961601D02*
X175117674Y-76961601D01*
X135874674Y-74396201D02*
X141640474Y-68630401D01*
X114081474Y-133070201D02*
X117739074Y-129412601D01*
X111541474Y-55422401D02*
X120355274Y-55422401D01*
X189468674Y-61391401D02*
X190687874Y-62610601D01*
X122539674Y-69824201D02*
X133969674Y-69824201D01*
X191068874Y-69697201D02*
X185277674Y-75488401D01*
X124419274Y-138404201D02*
X118653474Y-144170001D01*
X119059874Y-69900401D02*
X121523674Y-72364201D01*
X198180874Y-72567401D02*
X192389674Y-78358601D01*
X158074734Y-149758001D02*
X135544474Y-149758001D01*
X187512874Y-112242201D02*
X181721674Y-118033401D01*
X129778674Y-143992201D02*
X126730674Y-143992201D01*
X163103474Y-142316261D02*
X155457614Y-142316261D01*
X113370274Y-133070201D02*
X113370274Y-133044801D01*
X179918274Y-148742001D02*
X174152474Y-142976201D01*
X194116874Y-88823401D02*
X194116874Y-114909201D01*
X182432874Y-110134001D02*
X176641674Y-115925201D01*
X163967074Y-147218001D02*
X162010814Y-147218001D01*
X187004874Y-112039001D02*
X181213674Y-117830201D01*
X101812414Y-72769741D02*
X101812414Y-61092941D01*
X189062274Y-66674601D02*
X193100874Y-66674601D01*
X190484674Y-142671401D02*
X190484674Y-149758001D01*
X121803074Y-130276201D02*
X121803074Y-116611001D01*
X185785674Y-75717001D02*
X185785674Y-84099001D01*
X191068874Y-113690001D02*
X185277674Y-119481201D01*
X187589074Y-70230601D02*
X188376474Y-70230601D01*
X164373474Y-148234001D02*
X161579014Y-148234001D01*
X196148874Y-71754601D02*
X190357674Y-77545801D01*
X140573674Y-66090401D02*
X160004674Y-66090401D01*
X166100674Y-132816661D02*
X161173074Y-137744261D01*
X160309474Y-148412261D02*
X157997614Y-148412261D01*
X178165674Y-87274001D02*
X183956874Y-93065201D01*
X191318559Y-142570261D02*
X190989734Y-142899086D01*
X187944674Y-141655401D02*
X187944674Y-147218001D01*
X185785674Y-84099001D02*
X191576874Y-89890201D01*
X188528874Y-112674001D02*
X182737674Y-118465201D01*
X174609674Y-88747201D02*
X180400874Y-94538401D01*
X198180874Y-142061801D02*
X191094274Y-142061801D01*
X142173874Y-133502001D02*
X136408074Y-127736201D01*
X101812414Y-61092941D02*
X109183589Y-61092941D01*
X111541474Y-148234001D02*
X111541474Y-142061801D01*
X180527874Y-147218001D02*
X174762074Y-141452201D01*
X109103074Y-81762201D02*
X109103074Y-77926801D01*
X184363274Y-70611601D02*
X181213674Y-73761201D01*
X113573474Y-62458201D02*
X113573474Y-57454401D01*
X122311074Y-87121601D02*
X122311074Y-73888201D01*
X188401874Y-135457801D02*
X183880674Y-139979001D01*
X164144874Y-128244201D02*
X164144874Y-128244661D01*
X104353274Y-131952601D02*
X110119074Y-126186801D01*
X183956874Y-93065201D02*
X183956874Y-110743601D01*
X159826874Y-134696261D02*
X152206414Y-134696261D01*
X114005274Y-91846001D02*
X119771074Y-86080201D01*
X107909274Y-70306801D02*
X107909274Y-67182601D01*
X145019134Y-131978461D02*
X145018674Y-131978001D01*
X119923474Y-56438401D02*
X125689274Y-62204201D01*
X136408074Y-127736201D02*
X124343074Y-127736201D01*
X163941674Y-76453601D02*
X175625674Y-76453601D01*
X181518474Y-65582401D02*
X186547674Y-70611601D01*
X106385274Y-65658601D02*
X111084274Y-65658601D01*
X164551274Y-74929601D02*
X177149674Y-74929601D01*
X106893274Y-88950401D02*
X112659074Y-83184601D01*
X113497274Y-111937401D02*
X113497274Y-91642801D01*
X156753014Y-145364261D02*
X156423274Y-145694001D01*
X177276674Y-135356201D02*
X167192874Y-135356201D01*
X108417274Y-135965801D02*
X108417274Y-133654401D01*
X104861274Y-64134601D02*
X110474674Y-64134601D01*
X188325674Y-120700401D02*
X188325674Y-127025001D01*
X189468674Y-137997801D02*
X186420674Y-141045801D01*
X160740814Y-150266001D02*
X159903074Y-149428261D01*
X179181674Y-130784201D02*
X165211674Y-130784201D01*
X137830474Y-59486401D02*
X162722474Y-59486401D01*
X168716874Y-64769601D02*
X175803474Y-64769601D01*
X111135074Y-121030601D02*
X105369274Y-115264801D01*
X117739074Y-85267401D02*
X117739074Y-74320001D01*
X193608874Y-66166601D02*
X193608874Y-70738601D01*
X165440274Y-131292201D02*
X165440274Y-131292661D01*
X104353274Y-63626601D02*
X110246074Y-63626601D01*
X112151074Y-120598801D02*
X106385274Y-114833001D01*
X151470274Y-134010001D02*
X141970674Y-134010001D01*
X125257474Y-63220201D02*
X131226474Y-63220201D01*
X115097474Y-63067801D02*
X115097474Y-58978401D01*
X170139274Y-61213601D02*
X174330274Y-61213601D01*
X169936074Y-61721601D02*
X174533474Y-61721601D01*
X189341674Y-77139401D02*
X189341674Y-82600401D01*
X113167074Y-127456801D02*
X113167074Y-120192401D01*
X183245674Y-118668401D02*
X183245674Y-129209401D01*
X112049474Y-147726001D02*
X112049474Y-141833201D01*
X160055474Y-135204261D02*
X152409614Y-135204261D01*
X135976274Y-148742001D02*
X130210474Y-142976201D01*
X125867074Y-141960201D02*
X120101274Y-147726001D01*
X105369274Y-115264801D02*
X105369274Y-88340801D01*
X182229674Y-118236601D02*
X182229674Y-129641201D01*
X183880674Y-143154001D02*
X182229674Y-143154001D01*
X188020874Y-91388801D02*
X188020874Y-112445401D01*
X156194674Y-145186001D02*
X137449474Y-145186001D01*
X185404674Y-144678001D02*
X181569274Y-144678001D01*
X124851074Y-115391801D02*
X119085274Y-109626001D01*
X135392074Y-130276201D02*
X121803074Y-130276201D01*
X175117674Y-76961601D02*
X175117674Y-88544001D01*
X118399474Y-133070201D02*
X120787074Y-130682601D01*
X111287474Y-66166601D02*
X114589474Y-62864601D01*
X165186274Y-73405601D02*
X178673674Y-73405601D01*
X182940874Y-93471601D02*
X182940874Y-110337201D01*
X115199074Y-128345801D02*
X115199074Y-119354201D01*
X184972874Y-111175401D02*
X179181674Y-116966601D01*
X111135074Y-126644001D02*
X111135074Y-121030601D01*
X185811074Y-70611601D02*
X182229674Y-74193001D01*
X164754474Y-129768201D02*
X164754474Y-129768661D01*
X170545674Y-60197601D02*
X173923874Y-60197601D01*
X119009074Y-133679801D02*
X118399474Y-133070201D01*
X107934674Y-136473801D02*
X107909274Y-136448401D01*
X110881074Y-138505801D02*
X105877274Y-138505801D01*
X126552874Y-60172201D02*
X129981874Y-60172201D01*
X162645814Y-145694001D02*
X161808074Y-144856261D01*
X182102674Y-133095601D02*
X181442274Y-133756001D01*
X180400874Y-109295801D02*
X174609674Y-115087001D01*
X163941674Y-56438401D02*
X169732874Y-62229601D01*
X187309674Y-120294001D02*
X187309674Y-127431401D01*
X130820074Y-62204201D02*
X136585874Y-56438401D01*
X137220874Y-145694001D02*
X131455074Y-139928201D01*
X108417274Y-67690601D02*
X111897074Y-67690601D01*
X117231074Y-74548601D02*
X113319474Y-70637001D01*
X184769674Y-75285201D02*
X184769674Y-84530801D01*
X163941674Y-127736661D02*
X159014074Y-132664261D01*
X123327074Y-74904201D02*
X136103274Y-74904201D01*
X189265474Y-66166601D02*
X193608874Y-66166601D01*
X109611074Y-125983601D02*
X109611074Y-121691001D01*
X104861274Y-71551401D02*
X104861274Y-64134601D01*
X123123874Y-135356201D02*
X118653474Y-139826601D01*
X190560874Y-90322001D02*
X190560874Y-113486801D01*
X118145474Y-139293201D02*
X112786074Y-133933801D01*
X167700874Y-67309601D02*
X176895674Y-67309601D01*
X158353674Y-70154401D02*
X164144874Y-75945601D01*
X152511674Y-136550001D02*
X140954674Y-136550001D01*
X122895274Y-134848201D02*
X119034474Y-138709001D01*
X184769674Y-84530801D02*
X190560874Y-90322001D01*
X182356674Y-64287001D02*
X187792274Y-69722601D01*
X114691074Y-75615401D02*
X108925274Y-69849601D01*
X189875074Y-64642601D02*
X195132874Y-64642601D01*
X176870274Y-136372201D02*
X167624674Y-136372201D01*
X116723074Y-74777201D02*
X112176474Y-70230601D01*
X120279074Y-86283401D02*
X120279074Y-73304001D01*
X177657674Y-74421601D02*
X177657674Y-87477201D01*
X118755074Y-73913601D02*
X115453074Y-70611601D01*
X176235274Y-137896201D02*
X168259674Y-137896201D01*
X161909674Y-61518401D02*
X167700874Y-67309601D01*
X166964274Y-134848661D02*
X162036674Y-139776261D01*
X131048674Y-140944201D02*
X125460674Y-140944201D01*
X123327074Y-116001401D02*
X117561274Y-110235601D01*
X185785674Y-128066401D02*
X191576874Y-133857601D01*
X120329874Y-148234001D02*
X111541474Y-148234001D01*
X181162874Y-57962401D02*
X186420674Y-57962401D01*
X153603874Y-139090001D02*
X139913274Y-139090001D01*
X194624874Y-88620201D02*
X194624874Y-115112401D01*
X108087074Y-125348601D02*
X108087074Y-122326001D01*
X135519074Y-53898401D02*
X164983074Y-53898401D01*
X158556874Y-69646401D02*
X164348074Y-75437601D01*
X188960674Y-55422401D02*
X188960674Y-61594601D01*
X189468674Y-142265001D02*
X189468674Y-148742001D01*
X133309274Y-135356201D02*
X123123874Y-135356201D01*
X122463474Y-133832201D02*
X119009074Y-137286601D01*
X180121474Y-55422401D02*
X188960674Y-55422401D01*
X179715074Y-149250001D02*
X173949274Y-143484201D01*
X118653474Y-63779001D02*
X123174674Y-68300201D01*
X141157874Y-136042001D02*
X135392074Y-130276201D01*
X112557474Y-134441801D02*
X109941274Y-134441801D01*
X111744674Y-136473801D02*
X107934674Y-136473801D01*
X184896674Y-59486401D02*
X184896674Y-63220201D01*
X160741274Y-147396261D02*
X157591214Y-147396261D01*
X120990274Y-53898401D02*
X126756074Y-59664201D01*
X185785674Y-119684401D02*
X185785674Y-128066401D01*
X111033474Y-148742001D02*
X111033474Y-142265001D01*
X190865674Y-81940001D02*
X196656874Y-87731201D01*
X108595074Y-78130001D02*
X102829274Y-72364201D01*
X159623674Y-134188261D02*
X152003674Y-134188261D01*
X136204874Y-128244201D02*
X123835074Y-128244201D01*
X111033474Y-61416801D02*
X111033474Y-54914401D01*
X176641674Y-115925201D02*
X176641674Y-128244201D01*
X157744074Y-71678401D02*
X163535274Y-77469601D01*
X183753674Y-118871601D02*
X183753674Y-128980801D01*
X182737674Y-85369001D02*
X188528874Y-91160201D01*
X177657674Y-116331601D02*
X177657674Y-129260201D01*
X177759274Y-69341601D02*
X181518474Y-65582401D01*
X182864674Y-142138001D02*
X182636074Y-142138001D01*
X170139274Y-142468201D02*
X164373474Y-148234001D01*
X165389474Y-72897601D02*
X179181674Y-72897601D01*
X108595074Y-125551801D02*
X108595074Y-122097401D01*
X110449274Y-90398201D02*
X116215074Y-84632401D01*
X181924874Y-109930801D02*
X176133674Y-115722001D01*
X108925274Y-135457801D02*
X108925274Y-133883001D01*
X174609674Y-77469601D02*
X174609674Y-88747201D01*
X191318559Y-61092941D02*
X198689734Y-61092941D01*
X196656874Y-140537801D02*
X190484674Y-140537801D01*
X177149674Y-116128401D02*
X177149674Y-128752201D01*
X119771074Y-117500001D02*
X114005274Y-111734201D01*
X177149674Y-128752201D02*
X164348074Y-128752201D01*
X141005474Y-67106401D02*
X159598274Y-67106401D01*
X192084874Y-114096401D02*
X186293674Y-119887601D01*
X152079874Y-135534001D02*
X141361074Y-135534001D01*
X119059874Y-110312719D02*
X119059874Y-110311801D01*
X139278274Y-140614001D02*
X133512474Y-134848201D01*
X113167074Y-76275801D02*
X107401274Y-70510001D01*
X129981874Y-60172201D02*
X135747674Y-54406401D01*
X166634074Y-69849601D02*
X177987874Y-69849601D01*
X193100874Y-66674601D02*
X193100874Y-70535401D01*
X109433274Y-68706601D02*
X112328874Y-68706601D01*
X119034474Y-67741401D02*
X122133274Y-70840201D01*
X110474674Y-64134601D02*
X112557474Y-62051801D01*
X189976674Y-149250001D02*
X179715074Y-149250001D01*
X118653474Y-139826601D02*
X118653474Y-139090001D01*
X196656874Y-87731201D02*
X196656874Y-115925201D01*
X186496874Y-111835801D02*
X180705674Y-117627001D01*
X114513274Y-111505601D02*
X114513274Y-92049201D01*
X178419674Y-70865601D02*
X181518474Y-67766801D01*
X188833674Y-126821801D02*
X194624874Y-132613001D01*
X162239414Y-146710001D02*
X161401674Y-145872261D01*
X169732874Y-62229601D02*
X174762074Y-62229601D01*
X136382674Y-55930401D02*
X164144874Y-55930401D01*
X174355674Y-142468201D02*
X170139274Y-142468201D01*
X181442274Y-137337401D02*
X177937074Y-133832201D01*
X120787074Y-117068201D02*
X115021274Y-111302401D01*
X160614274Y-64566401D02*
X166405474Y-70357601D01*
X123809674Y-66776201D02*
X132674274Y-66776201D01*
X176133674Y-127736201D02*
X163941674Y-127736201D01*
X175371674Y-139928201D02*
X169123274Y-139928201D01*
X176133674Y-115722001D02*
X176133674Y-127736201D01*
X132471074Y-66268201D02*
X138236874Y-60502401D01*
X120787074Y-54406401D02*
X126552874Y-60172201D01*
X189621074Y-69722601D02*
X184261674Y-75082001D01*
X111465274Y-112775601D02*
X111465274Y-90830001D01*
X110627074Y-77317201D02*
X104861274Y-71551401D01*
X105369274Y-88340801D02*
X111135074Y-82575001D01*
X162011274Y-144348261D02*
X156321214Y-144348261D01*
X130185074Y-60680201D02*
X135950874Y-54914401D01*
X113065474Y-62255001D02*
X113065474Y-56946401D01*
X117561274Y-93319201D02*
X123327074Y-87553401D01*
X139532274Y-63550401D02*
X161071474Y-63550401D01*
X141411874Y-68122401D02*
X159191874Y-68122401D01*
X105369274Y-139013801D02*
X105369274Y-132409801D01*
X105877274Y-65150601D02*
X110881074Y-65150601D01*
X177556074Y-68833601D02*
X181518474Y-64871201D01*
X191068874Y-90093401D02*
X191068874Y-113690001D01*
X119034474Y-67030201D02*
X122336474Y-70332201D01*
X119263074Y-117703201D02*
X113497274Y-111937401D01*
X170342474Y-142976201D02*
X164576674Y-148742001D01*
X197164874Y-116153801D02*
X191373674Y-121945001D01*
X197164874Y-87528001D02*
X197164874Y-116153801D01*
X110246074Y-140029801D02*
X104353274Y-140029801D01*
X161147214Y-149250001D02*
X160309474Y-148412261D01*
X119593274Y-94233601D02*
X125359074Y-88467801D01*
X157261474Y-147726001D02*
X136382674Y-147726001D01*
X154568614Y-140284261D02*
X154238874Y-140614001D01*
X119034474Y-66319001D02*
X122539674Y-69824201D01*
X180756474Y-56946401D02*
X187436674Y-56946401D01*
X192897674Y-81101801D02*
X198689734Y-86893861D01*
X183753674Y-128980801D02*
X188198674Y-133425801D01*
X182813874Y-133095601D02*
X181442274Y-134467201D01*
X186801674Y-76123401D02*
X186801674Y-83667201D01*
X186928674Y-141249001D02*
X186928674Y-146202001D01*
X131861474Y-64744201D02*
X137627274Y-58978401D01*
X181366074Y-58470401D02*
X185912674Y-58470401D01*
X156118014Y-143840261D02*
X155788274Y-144170001D01*
X120101274Y-94436801D02*
X125867074Y-88671001D01*
X176641674Y-75437601D02*
X176641674Y-87883601D01*
X116621474Y-60502401D02*
X118247074Y-60502401D01*
X184261674Y-128752201D02*
X189443274Y-133933801D01*
X187817674Y-76529801D02*
X187817674Y-83260801D01*
X153273214Y-137236261D02*
X152943474Y-137566001D01*
X180197674Y-73329401D02*
X180197674Y-86435801D01*
X124012874Y-66268201D02*
X132471074Y-66268201D01*
X135036474Y-72364201D02*
X140802274Y-66598401D01*
X181518474Y-69189201D02*
X182915474Y-70586201D01*
X186420674Y-141045801D02*
X186420674Y-145694001D01*
X180959674Y-57454401D02*
X186928674Y-57454401D01*
X181518474Y-67055601D02*
X185074474Y-70611601D01*
X165897474Y-132308661D02*
X160969874Y-137236261D01*
X112049474Y-55930401D02*
X120152074Y-55930401D01*
X103337274Y-131520801D02*
X109103074Y-125755001D01*
X104861274Y-132181201D02*
X110627074Y-126415401D01*
X189341674Y-82600401D02*
X195132874Y-88391601D01*
X114589474Y-58470401D02*
X119085274Y-58470401D01*
X169529674Y-140944201D02*
X163763874Y-146710001D01*
X187944674Y-62001001D02*
X190078274Y-64134601D01*
X162976474Y-143179401D02*
X162976474Y-143179861D01*
X137652674Y-144678001D02*
X131886874Y-138912201D01*
X154238874Y-140614001D02*
X139278274Y-140614001D01*
X118882074Y-58978401D02*
X124647874Y-64744201D01*
X112481274Y-112343801D02*
X112481274Y-91236401D01*
X121803074Y-73380201D02*
X135442874Y-73380201D01*
X184261674Y-84734001D02*
X190052874Y-90525201D01*
X112100274Y-68198601D02*
X116621474Y-63677401D01*
X109611074Y-121691001D02*
X103845274Y-115925201D01*
X110627074Y-121233801D02*
X104861274Y-115468001D01*
X185277674Y-119481201D02*
X185277674Y-128295001D01*
X110525474Y-142468201D02*
X109611074Y-141553801D01*
X108595074Y-122097401D02*
X102829274Y-116331601D01*
X142808874Y-131978001D02*
X137043074Y-126212201D01*
X109183589Y-61092941D02*
X109512414Y-60764116D01*
X138871874Y-141630001D02*
X133106074Y-135864201D01*
X193608874Y-114706001D02*
X187817674Y-120497201D01*
X188452674Y-68198601D02*
X191576874Y-68198601D01*
X177073474Y-135864201D02*
X167421474Y-135864201D01*
X102829274Y-141553801D02*
X102829274Y-131317601D01*
X125359074Y-88467801D02*
X125359074Y-76936201D01*
X194624874Y-132613001D02*
X194624874Y-138505801D01*
X180705674Y-73558001D02*
X180705674Y-86232601D01*
X117053274Y-93090601D02*
X122819074Y-87324801D01*
X137855874Y-144170001D02*
X132090074Y-138404201D01*
X184464874Y-92836601D02*
X184464874Y-110946801D01*
X118069274Y-93547801D02*
X123835074Y-87782001D01*
X114741874Y-70611601D02*
X119034474Y-66319001D01*
X117840674Y-61518401D02*
X123606474Y-67284201D01*
X163332074Y-57962401D02*
X169123274Y-63753601D01*
X194116874Y-114909201D02*
X188325674Y-120700401D01*
X103337274Y-62610601D02*
X109839674Y-62610601D01*
X177657674Y-87477201D02*
X183448874Y-93268401D01*
X106385274Y-132816201D02*
X112151074Y-127050401D01*
X122819074Y-129260201D02*
X122819074Y-116204601D01*
X113167074Y-83387801D02*
X113167074Y-76275801D01*
X106385274Y-114833001D02*
X106385274Y-88747201D01*
X137195474Y-77444201D02*
X142961274Y-71678401D01*
X192897674Y-122554601D02*
X192897674Y-125120001D01*
X185684074Y-133095601D02*
X181442274Y-137337401D01*
X124343074Y-75920201D02*
X136535074Y-75920201D01*
X118247074Y-143154001D02*
X116621474Y-143154001D01*
X186928674Y-62407401D02*
X189671874Y-65150601D01*
X104353274Y-71754601D02*
X104353274Y-63626601D01*
X195640874Y-88188401D02*
X195640874Y-115518801D01*
X167827874Y-136880661D02*
X162900274Y-141808261D01*
X163128874Y-58470401D02*
X168920074Y-64261601D01*
X151876674Y-135026001D02*
X141564274Y-135026001D01*
X138871874Y-62026401D02*
X161681074Y-62026401D01*
X119263074Y-130047601D02*
X119263074Y-117703201D01*
X191373674Y-81736801D02*
X197164874Y-87528001D01*
X122336474Y-70332201D02*
X134198274Y-70332201D01*
X120558474Y-54914401D02*
X126324274Y-60680201D01*
X168513674Y-65277601D02*
X176032074Y-65277601D01*
X106385274Y-137997801D02*
X106385274Y-132816201D01*
X118145474Y-64312401D02*
X118145474Y-62534401D01*
X154467474Y-141122001D02*
X139075074Y-141122001D01*
X156524414Y-144856261D02*
X156194674Y-145186001D01*
X106893274Y-137464401D02*
X106893274Y-133019401D01*
X185404674Y-58978401D02*
X185404674Y-63017001D01*
X107401274Y-89153601D02*
X113167074Y-83387801D01*
X123784274Y-136880201D02*
X118018474Y-142646001D01*
X179054674Y-72389601D02*
X181518474Y-69925801D01*
X173542874Y-144500201D02*
X170952074Y-144500201D01*
X186496874Y-92023801D02*
X186496874Y-111835801D01*
X166735674Y-134340201D02*
X166735674Y-134340661D01*
X107909274Y-136448401D02*
X107909274Y-133425801D01*
X153933614Y-138760261D02*
X153603874Y-139090001D01*
X164983074Y-130276661D02*
X160055474Y-135204261D01*
X133715674Y-134340201D02*
X122666674Y-134340201D01*
X179181674Y-72897601D02*
X179181674Y-86842201D01*
X169529674Y-62737601D02*
X174965274Y-62737601D01*
X182737674Y-118465201D02*
X182737674Y-129412601D01*
X174152474Y-142976201D02*
X170342474Y-142976201D01*
X159565941Y-150151342D02*
X159447022Y-150270261D01*
X111541474Y-61620001D02*
X111541474Y-55422401D01*
X108595074Y-81559001D02*
X108595074Y-78130001D01*
X197164874Y-131571601D02*
X197164874Y-141045801D01*
X109814274Y-141045801D02*
X103337274Y-141045801D01*
X160842874Y-64058401D02*
X166634074Y-69849601D01*
X189265474Y-137489801D02*
X185912674Y-140842601D01*
X187766874Y-133933801D02*
X182356674Y-139344001D01*
X188325674Y-76733001D02*
X188325674Y-83032201D01*
X183372674Y-142646001D02*
X182432874Y-142646001D01*
X197672874Y-62102601D02*
X197672874Y-72364201D01*
X140802274Y-66598401D02*
X159801474Y-66598401D01*
X190484674Y-140537801D02*
X188960674Y-142061801D01*
X187131874Y-133095601D02*
X187131874Y-133121001D01*
X110627074Y-126415401D02*
X110627074Y-121233801D01*
X110525474Y-149250001D02*
X110525474Y-142468201D01*
X113675074Y-76072601D02*
X107909274Y-70306801D01*
X197164874Y-141045801D02*
X190687874Y-141045801D01*
X181518474Y-67766801D02*
X184363274Y-70611601D01*
X186293674Y-83870401D02*
X192084874Y-89661601D01*
X195132874Y-139013801D02*
X189875074Y-139013801D01*
X182026474Y-59994401D02*
X184388674Y-59994401D01*
X126121074Y-61188201D02*
X130413674Y-61188201D01*
X105369274Y-64642601D02*
X110677874Y-64642601D01*
X132877474Y-67284201D02*
X138643274Y-61518401D01*
X118450274Y-143662001D02*
X116113474Y-143662001D01*
X175625674Y-88315401D02*
X181416874Y-94106601D01*
X192592874Y-70332201D02*
X186801674Y-76123401D01*
X129753274Y-59664201D02*
X135519074Y-53898401D01*
X120761674Y-149250001D02*
X110525474Y-149250001D01*
X187817674Y-127228201D02*
X193608874Y-133019401D01*
X151368674Y-132664261D02*
X151038934Y-132994001D01*
X194624874Y-138505801D02*
X189671874Y-138505801D01*
X126324274Y-60680201D02*
X130185074Y-60680201D01*
X114183074Y-83819601D02*
X114183074Y-75844001D01*
X192592874Y-67182601D02*
X192592874Y-70332201D01*
X120279074Y-117271401D02*
X114513274Y-111505601D01*
X198689734Y-130912061D02*
X198689734Y-142570261D01*
X191373674Y-125780401D02*
X197164874Y-131571601D01*
X183372674Y-61010401D02*
X183372674Y-63855201D01*
X196148874Y-115722001D02*
X190357674Y-121513201D01*
X192084874Y-135965801D02*
X188630474Y-135965801D01*
X188452674Y-55930401D02*
X188452674Y-61797801D01*
X190078274Y-139521801D02*
X187944674Y-141655401D01*
X102321274Y-142061801D02*
X102321274Y-131114401D01*
X180121474Y-148234001D02*
X174355674Y-142468201D01*
X117637474Y-64109201D02*
X117637474Y-61518401D01*
X186928674Y-57454401D02*
X186928674Y-62407401D01*
X181416874Y-109702201D02*
X175625674Y-115493401D01*
X119288474Y-57962401D02*
X125054274Y-63728201D01*
X174558874Y-141960201D02*
X169936074Y-141960201D01*
X125359074Y-115188601D02*
X119593274Y-109422801D01*
X153705014Y-138252261D02*
X153375274Y-138582001D01*
X162849014Y-145186001D02*
X162011274Y-144348261D01*
X179689674Y-73100801D02*
X179689674Y-86639001D01*
X175574874Y-64261601D02*
X181366074Y-58470401D01*
X109636474Y-62102601D02*
X110525474Y-61213601D01*
X126730674Y-143992201D02*
X120964874Y-149758001D01*
X122260274Y-133324201D02*
X119009074Y-136575401D01*
X190281474Y-140029801D02*
X188452674Y-141858601D01*
X189062274Y-136981801D02*
X185404674Y-140639401D01*
X161503274Y-131597001D02*
X161503274Y-131597461D01*
X115097474Y-144678001D02*
X115097474Y-140537801D01*
X138262274Y-143154001D02*
X132496474Y-137388201D01*
X116723074Y-118744601D02*
X110957274Y-112978801D01*
X124444674Y-65252201D02*
X132064674Y-65252201D01*
X136992274Y-57454401D02*
X163535274Y-57454401D01*
X182940874Y-110337201D02*
X177149674Y-116128401D01*
X195132874Y-115315601D02*
X189341674Y-121106801D01*
X191068874Y-134949801D02*
X188173274Y-134949801D01*
X184388674Y-140207601D02*
X184388674Y-143662001D01*
X181518474Y-66319001D02*
X185811074Y-70611601D01*
X163357474Y-145694001D02*
X162645814Y-145694001D01*
X151800014Y-133680261D02*
X151470274Y-134010001D01*
X124012874Y-137388201D02*
X118247074Y-143154001D01*
X170342474Y-60705601D02*
X174127074Y-60705601D01*
X161401674Y-145872261D02*
X156956214Y-145872261D01*
X190560874Y-134441801D02*
X187970074Y-134441801D01*
X175117674Y-126720201D02*
X163509874Y-126720201D01*
X194116874Y-65658601D02*
X194116874Y-70941801D01*
X190989734Y-150268941D02*
X190988414Y-150270261D01*
X189671874Y-65150601D02*
X194624874Y-65150601D01*
X173746074Y-143992201D02*
X170748874Y-143992201D01*
X107401274Y-133222601D02*
X113167074Y-127456801D01*
X190078274Y-64134601D02*
X195640874Y-64134601D01*
X192897674Y-78561801D02*
X192897674Y-81101801D01*
X161808074Y-144856261D02*
X156524414Y-144856261D01*
X108417274Y-89585401D02*
X114183074Y-83819601D01*
X118247074Y-74116801D02*
X114741874Y-70611601D01*
X131455074Y-139928201D02*
X125054274Y-139928201D01*
X109839674Y-62610601D02*
X111033474Y-61416801D01*
X188452674Y-61797801D02*
X190281474Y-63626601D01*
X110677874Y-139013801D02*
X105369274Y-139013801D01*
X125867074Y-114985401D02*
X120101274Y-109219601D01*
X121803074Y-86918401D02*
X121803074Y-73380201D01*
X132674274Y-66776201D02*
X138440074Y-61010401D01*
X120101274Y-147726001D02*
X112049474Y-147726001D01*
X150632074Y-131978461D02*
X145019134Y-131978461D01*
X183753674Y-74853401D02*
X183753674Y-84962601D01*
X140548274Y-137566001D02*
X134782474Y-131800201D01*
X195640874Y-139521801D02*
X190078274Y-139521801D01*
X112557474Y-141604601D02*
X110474674Y-139521801D01*
X112735274Y-69722601D02*
X118145474Y-64312401D01*
X132090074Y-138404201D02*
X124419274Y-138404201D01*
X192084874Y-67690601D02*
X192084874Y-70129001D01*
X106893274Y-66166601D02*
X111287474Y-66166601D01*
X107401274Y-70510001D02*
X107401274Y-66674601D01*
X189468674Y-65658601D02*
X194116874Y-65658601D01*
X160283614Y-135712261D02*
X152612814Y-135712261D01*
X111643074Y-120827401D02*
X105877274Y-115061601D01*
X175803474Y-64769601D02*
X181594674Y-58978401D01*
X152283074Y-136042001D02*
X141157874Y-136042001D01*
X152409614Y-135204261D02*
X152079874Y-135534001D01*
X168031074Y-137388201D02*
X168031074Y-137388661D01*
X119009074Y-135127601D02*
X116951674Y-133070201D01*
X154340014Y-139776261D02*
X154010274Y-140106001D01*
X189341674Y-126593201D02*
X195132874Y-132384401D01*
X133944274Y-133832201D02*
X122463474Y-133832201D01*
X142961274Y-71678401D02*
X157744074Y-71678401D01*
X119771074Y-86080201D02*
X119771074Y-73507201D01*
X165897474Y-132308201D02*
X165897474Y-132308661D01*
X140370474Y-65582401D02*
X160207874Y-65582401D01*
X117053274Y-110438801D02*
X117053274Y-93090601D01*
X185912674Y-145186001D02*
X181340674Y-145186001D01*
X109103074Y-121894201D02*
X103337274Y-116128401D01*
X190891074Y-62102601D02*
X197672874Y-62102601D01*
X169123274Y-139928201D02*
X163357474Y-145694001D01*
X182864674Y-61518401D02*
X182864674Y-64058401D01*
X181772474Y-144170001D02*
X176006674Y-138404201D01*
X103337274Y-141045801D02*
X103337274Y-131520801D01*
X182915474Y-70611601D02*
X180197674Y-73329401D01*
X119593274Y-109422801D02*
X119593274Y-94233601D01*
X193608874Y-70738601D02*
X187817674Y-76529801D01*
X176667074Y-136880201D02*
X167827874Y-136880201D01*
X184769674Y-119278001D02*
X184769674Y-128523601D01*
X180705674Y-130276201D02*
X183525074Y-133095601D01*
X162442614Y-146202001D02*
X161604874Y-145364261D01*
X150835734Y-132486001D02*
X142580274Y-132486001D01*
X184236274Y-133095601D02*
X181442274Y-135889601D01*
X182255074Y-60502401D02*
X183880674Y-60502401D01*
X134782474Y-131800201D02*
X121599874Y-131800201D01*
X112481274Y-91236401D02*
X118247074Y-85470601D01*
X175117674Y-88544001D02*
X180908874Y-94335201D01*
X117688274Y-133070201D02*
X120279074Y-130479401D01*
X102829274Y-72364201D02*
X102829274Y-62102601D01*
X190687874Y-141045801D02*
X189468674Y-142265001D01*
X131023274Y-62712201D02*
X136789074Y-56946401D01*
X164144874Y-128244661D02*
X159217274Y-133172261D01*
X102321274Y-61594601D02*
X109407874Y-61594601D01*
X163306674Y-126212201D02*
X163306674Y-126212661D01*
X158200814Y-148920261D02*
X157871074Y-149250001D01*
X135646074Y-73888201D02*
X141411874Y-68122401D01*
X190281474Y-63626601D02*
X196148874Y-63626601D01*
X173923874Y-60197601D02*
X179715074Y-54406401D01*
X160944014Y-149758001D02*
X160106274Y-148920261D01*
X134401474Y-70840201D02*
X140167274Y-65074401D01*
X141640474Y-68630401D02*
X158988674Y-68630401D01*
X112659074Y-83184601D02*
X112659074Y-76504401D01*
X119085274Y-145186001D02*
X114589474Y-145186001D01*
X184896674Y-144170001D02*
X181772474Y-144170001D01*
X116621474Y-63677401D02*
X116621474Y-60502401D01*
X141970674Y-134010001D02*
X136204874Y-128244201D01*
X174609674Y-115087001D02*
X174609674Y-126212201D01*
X184972874Y-133095601D02*
X181442274Y-136626201D01*
X108925274Y-89788601D02*
X114691074Y-84022801D01*
X133309274Y-68300201D02*
X139075074Y-62534401D01*
X110042874Y-63118601D02*
X111541474Y-61620001D01*
X104353274Y-140029801D02*
X104353274Y-131952601D01*
X122819074Y-74396201D02*
X135874674Y-74396201D01*
X187817674Y-83260801D02*
X193608874Y-89052001D01*
X178368874Y-132816201D02*
X166100674Y-132816201D01*
X186801674Y-83667201D02*
X192592874Y-89458401D01*
X190052874Y-113283601D02*
X184261674Y-119074801D01*
X160741274Y-136728261D02*
X153045074Y-136728261D01*
X105369274Y-71348201D02*
X105369274Y-64642601D01*
X119009074Y-134391001D02*
X117688274Y-133070201D01*
X153807074Y-139598001D02*
X139710074Y-139598001D01*
X102321274Y-72567401D02*
X102321274Y-61594601D01*
X186420674Y-57962401D02*
X186420674Y-62610601D01*
X124851074Y-64236201D02*
X131658274Y-64236201D01*
X179689674Y-86639001D02*
X185480874Y-92430201D01*
X139710074Y-139598001D02*
X133944274Y-133832201D01*
X159447022Y-150270261D02*
X135320134Y-150270261D01*
X108925274Y-68198601D02*
X112100274Y-68198601D01*
X182432874Y-93674801D02*
X182432874Y-110134001D01*
X166100674Y-132816201D02*
X166100674Y-132816661D01*
X190052874Y-90525201D02*
X190052874Y-113283601D01*
X136103274Y-74904201D02*
X141869074Y-69138401D01*
X133106074Y-67792201D02*
X138871874Y-62026401D01*
X110449274Y-113182001D02*
X110449274Y-90398201D01*
X123606474Y-67284201D02*
X132877474Y-67284201D01*
X114081474Y-145694001D02*
X114081474Y-140969601D01*
X130413674Y-61188201D02*
X136179474Y-55422401D01*
X182737674Y-129412601D02*
X186420674Y-133095601D01*
X160969874Y-137236261D02*
X153273214Y-137236261D01*
X179689674Y-130682601D02*
X182102674Y-133095601D01*
X119034474Y-69900401D02*
X119059874Y-69900401D01*
X126959274Y-59156201D02*
X129550074Y-59156201D01*
X139735474Y-64058401D02*
X160842874Y-64058401D01*
X139303674Y-63042401D02*
X161274674Y-63042401D01*
X121726874Y-71856201D02*
X134807874Y-71856201D01*
X177987874Y-69849601D02*
X181518474Y-66319001D01*
X119263074Y-85877001D02*
X119263074Y-73710401D01*
X193100874Y-114502801D02*
X187309674Y-120294001D01*
X192897674Y-125120001D02*
X198689734Y-130912061D01*
X119491674Y-146202001D02*
X113573474Y-146202001D01*
X191576874Y-68198601D02*
X191576874Y-69925801D01*
X117586674Y-70611601D02*
X119034474Y-69163801D01*
X112151074Y-127050401D02*
X112151074Y-120598801D01*
X194624874Y-71145001D02*
X188833674Y-76936201D01*
X141869074Y-69138401D02*
X158760074Y-69138401D01*
X158150474Y-70662401D02*
X163941674Y-76453601D01*
X116723074Y-84835601D02*
X116723074Y-74777201D01*
X188325674Y-127025001D02*
X194116874Y-132816201D01*
X188173274Y-134949801D02*
X183372674Y-139750401D01*
X109512414Y-60764116D02*
X109512414Y-53392941D01*
X166532474Y-133832201D02*
X166532474Y-133832661D01*
X118653474Y-139090001D02*
X112989274Y-133425801D01*
X125257474Y-140436201D02*
X119491674Y-146202001D01*
X189849674Y-126390001D02*
X195640874Y-132181201D01*
X107579074Y-81127201D02*
X107579074Y-78536401D01*
X123835074Y-128244201D02*
X123835074Y-115798201D01*
X191576874Y-69925801D02*
X185785674Y-75717001D01*
X194116874Y-137997801D02*
X189468674Y-137997801D01*
X110017474Y-53898401D02*
X120990274Y-53898401D01*
X198689734Y-116762541D02*
X192897674Y-122554601D01*
X163941674Y-127736201D02*
X163941674Y-127736661D01*
X168031074Y-137388661D02*
X163103474Y-142316261D01*
X181442274Y-135178401D02*
X178572074Y-132308201D01*
X112176474Y-70230601D02*
X112963874Y-70230601D01*
X182229674Y-74193001D02*
X182229674Y-85597601D01*
X184464874Y-110946801D02*
X178673674Y-116738001D01*
X102829274Y-131317601D02*
X108595074Y-125551801D01*
X132902874Y-136372201D02*
X123581074Y-136372201D01*
X192592874Y-114299601D02*
X186801674Y-120090801D01*
X130616874Y-141960201D02*
X125867074Y-141960201D01*
X120279074Y-130479401D02*
X120279074Y-117271401D01*
X181848674Y-64490201D02*
X187589074Y-70230601D01*
X195132874Y-71348201D02*
X189341674Y-77139401D01*
X121930074Y-71348201D02*
X134604674Y-71348201D01*
X109941274Y-90195001D02*
X115707074Y-84429201D01*
X151038934Y-132994001D02*
X142377074Y-132994001D01*
X120101274Y-109219601D02*
X120101274Y-94436801D01*
X122819074Y-87324801D02*
X122819074Y-74396201D01*
X181594674Y-58978401D02*
X185404674Y-58978401D01*
X188833674Y-120903601D02*
X188833674Y-126821801D01*
X187436674Y-56946401D02*
X187436674Y-62204201D01*
X187258874Y-70611601D02*
X183245674Y-74624801D01*
X187436674Y-141452201D02*
X187436674Y-146710001D01*
X174762074Y-62229601D02*
X180553274Y-56438401D01*
X197672874Y-87324801D02*
X197672874Y-116357001D01*
X168716874Y-138912201D02*
X163433674Y-144195401D01*
X129550074Y-59156201D02*
X135313334Y-53392941D01*
X112151074Y-76707601D02*
X106385274Y-70941801D01*
X197164874Y-62610601D02*
X197164874Y-72161001D01*
X190865674Y-121716401D02*
X190865674Y-125983601D01*
X136585874Y-56438401D02*
X163941674Y-56438401D01*
X130007274Y-143484201D02*
X126527474Y-143484201D01*
X114030674Y-70611601D02*
X119034474Y-65607801D01*
X180908874Y-94335201D02*
X180908874Y-109499001D01*
X118450274Y-59994401D02*
X124216074Y-65760201D01*
X161503274Y-131597461D02*
X159420474Y-133680261D01*
X162900274Y-141808261D02*
X155229014Y-141808261D01*
X118653474Y-64541001D02*
X118653474Y-63779001D01*
X142732674Y-71170401D02*
X157947274Y-71170401D01*
X123327074Y-128752201D02*
X123327074Y-116001401D01*
X102321274Y-131114401D02*
X108087074Y-125348601D01*
X110881074Y-65150601D02*
X113573474Y-62458201D01*
X136814474Y-146710001D02*
X131048674Y-140944201D01*
X152003674Y-134188261D02*
X151673934Y-134518001D01*
X101812414Y-130912061D02*
X107579074Y-125145401D01*
X137627274Y-58978401D02*
X162925674Y-58978401D01*
X106385274Y-88747201D02*
X112151074Y-82981401D01*
X179312934Y-150270261D02*
X173542874Y-144500201D01*
X193608874Y-137489801D02*
X189265474Y-137489801D01*
X156626474Y-146202001D02*
X137017674Y-146202001D01*
X176463874Y-66293601D02*
X182255074Y-60502401D01*
X125054274Y-63728201D02*
X131429674Y-63728201D01*
X160538074Y-147904261D02*
X157794414Y-147904261D01*
X187563674Y-133425801D02*
X181848674Y-139140801D01*
X137195474Y-57962401D02*
X163332074Y-57962401D01*
X183372674Y-63855201D02*
X188224074Y-68706601D01*
X122031674Y-132816201D02*
X119009074Y-135838801D01*
X157794414Y-147904261D02*
X157464674Y-148234001D01*
X123403274Y-67792201D02*
X133106074Y-67792201D01*
X119491674Y-57454401D02*
X125257474Y-63220201D01*
X180197674Y-130479401D02*
X182813874Y-133095601D01*
X119034474Y-65607801D02*
X122742874Y-69316201D01*
X103845274Y-131749401D02*
X109611074Y-125983601D01*
X184769674Y-128523601D02*
X190560874Y-134314801D01*
X184261674Y-75082001D02*
X184261674Y-84734001D01*
X163509874Y-126720661D02*
X158582274Y-131648261D01*
X186420674Y-62610601D02*
X189468674Y-65658601D01*
X178673674Y-87045401D02*
X184464874Y-92836601D01*
X181416874Y-94106601D02*
X181416874Y-109702201D01*
X103337274Y-87528001D02*
X109103074Y-81762201D01*
X132267874Y-65760201D02*
X138033674Y-59994401D01*
X188655874Y-67690601D02*
X192084874Y-67690601D01*
X161173074Y-146380261D02*
X157159414Y-146380261D01*
X185988874Y-92227001D02*
X185988874Y-111607201D01*
X191881674Y-78155401D02*
X191881674Y-81533601D01*
X116215074Y-118947801D02*
X110449274Y-113182001D01*
X133766474Y-69316201D02*
X139532274Y-63550401D01*
X112786074Y-133933801D02*
X111058874Y-133933801D01*
X190560874Y-113486801D02*
X184769674Y-119278001D01*
X117739074Y-118312801D02*
X111973274Y-112547001D01*
X140954674Y-136550001D02*
X135188874Y-130784201D01*
X185480874Y-92430201D02*
X185480874Y-111404001D01*
X115097474Y-58978401D02*
X118882074Y-58978401D01*
X120355274Y-55422401D02*
X126121074Y-61188201D01*
X123835074Y-115798201D02*
X118069274Y-110032401D01*
X116113474Y-143662001D02*
X116113474Y-140131401D01*
X162951074Y-144576861D02*
X162214474Y-143840261D01*
X109433274Y-134949801D02*
X109433274Y-134111601D01*
X162519274Y-59994401D02*
X168310474Y-65785601D01*
X121803074Y-116611001D02*
X116037274Y-110845201D01*
X122742874Y-69316201D02*
X133766474Y-69316201D01*
X176463874Y-137388201D02*
X168031074Y-137388201D01*
X124851074Y-127228201D02*
X124851074Y-115391801D01*
X165186274Y-150266001D02*
X160740814Y-150266001D01*
X119009074Y-137286601D02*
X114792674Y-133070201D01*
X151597274Y-133172261D02*
X151267534Y-133502001D01*
X162976474Y-143179861D02*
X162620874Y-142824261D01*
X167192874Y-135356201D02*
X162264814Y-140284261D01*
X178673674Y-130276201D02*
X164983074Y-130276201D01*
X190560874Y-134314801D02*
X190560874Y-134441801D01*
X113319474Y-70611601D02*
X119034474Y-64896601D01*
X111465274Y-90830001D02*
X117231074Y-85064201D01*
X188630474Y-135965801D02*
X184388674Y-140207601D01*
X161375814Y-148742001D02*
X160538074Y-147904261D01*
X181848674Y-63804401D02*
X181848674Y-64490201D01*
X118043874Y-61010401D02*
X123809674Y-66776201D01*
X169123274Y-63753601D02*
X175371674Y-63753601D01*
X119263074Y-73710401D02*
X116164274Y-70611601D01*
X159395074Y-67614401D02*
X165186274Y-73405601D01*
X178165674Y-129768201D02*
X164754474Y-129768201D01*
X196148874Y-140029801D02*
X190281474Y-140029801D01*
X104353274Y-87934401D02*
X110119074Y-82168601D01*
X190989734Y-60764116D02*
X191318559Y-61092941D01*
X180705674Y-86232601D02*
X186496874Y-92023801D01*
X193608874Y-133019401D02*
X193608874Y-137489801D01*
X179306134Y-53392941D02*
X190989734Y-53392941D01*
X190484674Y-60985001D02*
X191094274Y-61594601D01*
X198689734Y-86893861D02*
X198689734Y-116762541D01*
X119034474Y-64896601D02*
X122946074Y-68808201D01*
X160411074Y-65074401D02*
X166202274Y-70865601D01*
X106893274Y-133019401D02*
X112659074Y-127253601D01*
X186801674Y-120090801D02*
X186801674Y-127634601D01*
X112151074Y-135457801D02*
X108925274Y-135457801D01*
X161173074Y-137744261D02*
X153476414Y-137744261D01*
X105369274Y-132409801D02*
X111135074Y-126644001D01*
X116723074Y-128980801D02*
X116723074Y-118744601D01*
X177937074Y-133832201D02*
X166532474Y-133832201D01*
X196148874Y-63626601D02*
X196148874Y-71754601D01*
X184261674Y-119074801D02*
X184261674Y-128752201D01*
X188833674Y-76936201D02*
X188833674Y-82829001D01*
X119009074Y-136575401D02*
X115503874Y-133070201D01*
X166303874Y-133324661D02*
X161376274Y-138252261D01*
X163154274Y-145186001D02*
X162849014Y-145186001D01*
X182229674Y-143154001D02*
X176463874Y-137388201D01*
X135320134Y-150270261D02*
X129550074Y-144500201D01*
X166532474Y-133832661D02*
X161604874Y-138760261D01*
X176692474Y-66801601D02*
X182483674Y-61010401D01*
X111541474Y-136981801D02*
X107401274Y-136981801D01*
X192084874Y-133629001D02*
X192084874Y-135965801D01*
X178165674Y-73913601D02*
X178165674Y-87274001D01*
X134807874Y-71856201D02*
X140573674Y-66090401D01*
X117561274Y-110235601D02*
X117561274Y-93319201D01*
X104353274Y-115696601D02*
X104353274Y-87934401D01*
X170977474Y-59181601D02*
X173517474Y-59181601D01*
X180197674Y-86435801D02*
X185988874Y-92227001D01*
X163713074Y-127228201D02*
X163713074Y-127228661D01*
X162112874Y-61010401D02*
X167904074Y-66801601D01*
X189849674Y-121310001D02*
X189849674Y-126390001D01*
X185404674Y-140639401D02*
X185404674Y-144678001D01*
X118247074Y-85470601D02*
X118247074Y-74116801D01*
X198689734Y-142570261D02*
X191318559Y-142570261D01*
X154696074Y-141630001D02*
X138871874Y-141630001D01*
X110627074Y-82371801D02*
X110627074Y-77317201D01*
X155686214Y-142824261D02*
X155356474Y-143154001D01*
X197672874Y-72364201D02*
X191881674Y-78155401D01*
X185988874Y-111607201D02*
X180197674Y-117398401D01*
X109611074Y-77723601D02*
X103845274Y-71957801D01*
X120787074Y-130682601D02*
X120787074Y-117068201D01*
X179689674Y-117195201D02*
X179689674Y-130682601D01*
X181442274Y-135889601D02*
X178368874Y-132816201D01*
X140345074Y-138074001D02*
X134579274Y-132308201D01*
X188020874Y-69214601D02*
X190560874Y-69214601D01*
X116113474Y-59994401D02*
X118450274Y-59994401D01*
X113675074Y-83591001D02*
X113675074Y-76072601D01*
X161477874Y-62534401D02*
X167269074Y-68325601D01*
X115199074Y-84226001D02*
X115199074Y-75412201D01*
X168107274Y-66293601D02*
X176463874Y-66293601D01*
X118145474Y-141071201D02*
X118145474Y-139293201D01*
X114081474Y-140969601D02*
X111109674Y-137997801D01*
X124647874Y-64744201D02*
X131861474Y-64744201D01*
X178140274Y-133324201D02*
X166303874Y-133324201D01*
X179715074Y-54406401D02*
X189976674Y-54406401D01*
X135747674Y-54406401D02*
X164754474Y-54406401D01*
X157464674Y-148234001D02*
X136179474Y-148234001D01*
X165592674Y-72389601D02*
X179054674Y-72389601D01*
X196656874Y-115925201D02*
X190865674Y-121716401D01*
X181721674Y-129844401D02*
X184972874Y-133095601D01*
X135798474Y-129260201D02*
X122819074Y-129260201D01*
X189544874Y-113080401D02*
X183753674Y-118871601D01*
X117739074Y-129412601D02*
X117739074Y-118312801D01*
X110017474Y-142671401D02*
X109407874Y-142061801D01*
X189036874Y-90957001D02*
X189036874Y-112877201D01*
X170774274Y-59689601D02*
X173720674Y-59689601D01*
X166735674Y-134340661D02*
X161808074Y-139268261D01*
X112278074Y-133425801D02*
X116723074Y-128980801D01*
X116215074Y-128777601D02*
X116215074Y-118947801D01*
X101812414Y-116762541D02*
X101812414Y-86893861D01*
X163738474Y-56946401D02*
X169529674Y-62737601D01*
X116164274Y-70611601D02*
X119034474Y-67741401D01*
X181848674Y-139928201D02*
X177276674Y-135356201D01*
X135239674Y-72872201D02*
X141005474Y-67106401D01*
X181213674Y-130073001D02*
X184236274Y-133095601D01*
X192084874Y-89661601D02*
X192084874Y-114096401D01*
X107579074Y-122529201D02*
X101812414Y-116762541D01*
X126959274Y-144500201D02*
X121189214Y-150270261D01*
X192389674Y-78358601D02*
X192389674Y-81305001D01*
X110119074Y-77520401D02*
X104353274Y-71754601D01*
X145018674Y-131978001D02*
X142808874Y-131978001D01*
X111973274Y-91033201D02*
X117739074Y-85267401D01*
X125054274Y-139928201D02*
X119288474Y-145694001D01*
X173949274Y-143484201D02*
X170545674Y-143484201D01*
X154899274Y-142138001D02*
X138668674Y-142138001D01*
X161782214Y-147726001D02*
X160944474Y-146888261D01*
D14*
%TO.N,/Sun Pyramid/LS2_3V3*%
X129794000Y-116332000D02*
X129794000Y-109728000D01*
X130556000Y-117094000D02*
X129794000Y-116332000D01*
%TO.N,/Sun Pyramid/LS3_3V3*%
X174446180Y-107453180D02*
X174446180Y-102413820D01*
X175006000Y-108013000D02*
X174446180Y-107453180D01*
X175006000Y-95695000D02*
X175006000Y-101854000D01*
X174446180Y-102413820D02*
X175006000Y-101854000D01*
%TO.N,Net-(Q8-D)*%
X157734000Y-116078000D02*
X163893000Y-116078000D01*
%TD*%
%TA.AperFunction,Conductor*%
%TO.N,GND*%
G36*
X129406930Y-144904243D02*
G01*
X129427904Y-144921146D01*
X134747304Y-150240546D01*
X134781330Y-150302858D01*
X134776265Y-150373673D01*
X134733718Y-150430509D01*
X134667198Y-150455320D01*
X134658209Y-150455641D01*
X121851139Y-150455641D01*
X121783018Y-150435639D01*
X121736525Y-150381983D01*
X121726421Y-150311709D01*
X121755915Y-150247129D01*
X121762044Y-150240546D01*
X127081444Y-144921146D01*
X127143756Y-144887120D01*
X127170539Y-144884241D01*
X129338809Y-144884241D01*
X129406930Y-144904243D01*
G37*
%TD.AperFunction*%
%TA.AperFunction,Conductor*%
G36*
X173399730Y-144904243D02*
G01*
X173420704Y-144921146D01*
X178740104Y-150240546D01*
X178774130Y-150302858D01*
X178769065Y-150373673D01*
X178726518Y-150430509D01*
X178659998Y-150455320D01*
X178651009Y-150455641D01*
X165843939Y-150455641D01*
X165775818Y-150435639D01*
X165729325Y-150381983D01*
X165719221Y-150311709D01*
X165748715Y-150247129D01*
X165754844Y-150240546D01*
X171074244Y-144921146D01*
X171136556Y-144887120D01*
X171163339Y-144884241D01*
X173331609Y-144884241D01*
X173399730Y-144904243D01*
G37*
%TD.AperFunction*%
%TA.AperFunction,Conductor*%
G36*
X153743858Y-81630702D02*
G01*
X153790351Y-81684358D01*
X153800455Y-81754632D01*
X153790351Y-81789042D01*
X153734324Y-81911724D01*
X153734322Y-81911731D01*
X153715593Y-82041996D01*
X153715593Y-82042003D01*
X153734322Y-82172268D01*
X153734324Y-82172275D01*
X153788998Y-82291996D01*
X153788999Y-82291997D01*
X153857860Y-82371467D01*
X153887353Y-82436048D01*
X153877250Y-82506322D01*
X153830757Y-82559978D01*
X153762636Y-82579980D01*
X141772782Y-82579980D01*
X141688677Y-82602515D01*
X141688669Y-82602518D01*
X141613266Y-82646052D01*
X141582480Y-82676838D01*
X141551694Y-82707625D01*
X141551692Y-82707627D01*
X139827700Y-84431620D01*
X138139925Y-86119395D01*
X138077613Y-86153421D01*
X138050830Y-86156300D01*
X138047193Y-86156300D01*
X137920911Y-86193379D01*
X137920907Y-86193381D01*
X137812114Y-86263298D01*
X137743993Y-86283300D01*
X136682514Y-86283300D01*
X136598409Y-86305835D01*
X136598401Y-86305838D01*
X136522998Y-86349372D01*
X136492212Y-86380158D01*
X136461426Y-86410945D01*
X136461424Y-86410947D01*
X130583947Y-92288424D01*
X130583945Y-92288426D01*
X130557071Y-92315300D01*
X130522372Y-92349998D01*
X130478838Y-92425401D01*
X130478835Y-92425409D01*
X130456300Y-92509514D01*
X130456300Y-98639829D01*
X130436298Y-98707950D01*
X130419395Y-98728924D01*
X128794731Y-100353587D01*
X128732419Y-100387613D01*
X128670141Y-100385389D01*
X128652812Y-100380301D01*
X128652809Y-100380300D01*
X128652807Y-100380300D01*
X128521193Y-100380300D01*
X128394911Y-100417379D01*
X128394907Y-100417381D01*
X128284188Y-100488535D01*
X128197999Y-100588002D01*
X128143324Y-100707724D01*
X128143322Y-100707731D01*
X128124593Y-100837996D01*
X128124593Y-100838003D01*
X128143322Y-100968268D01*
X128143324Y-100968275D01*
X128197998Y-101087996D01*
X128284188Y-101187464D01*
X128394909Y-101258620D01*
X128521193Y-101295700D01*
X128652807Y-101295700D01*
X128779091Y-101258620D01*
X128887886Y-101188702D01*
X128956007Y-101168700D01*
X131849978Y-101168700D01*
X131918099Y-101188702D01*
X131964592Y-101242358D01*
X131974696Y-101312632D01*
X131945202Y-101377212D01*
X131885476Y-101415596D01*
X131824911Y-101433379D01*
X131824907Y-101433381D01*
X131714188Y-101504535D01*
X131627999Y-101604002D01*
X131573324Y-101723724D01*
X131573322Y-101723730D01*
X131561446Y-101806331D01*
X131531953Y-101870911D01*
X131525825Y-101877493D01*
X131385925Y-102017395D01*
X131323613Y-102051420D01*
X131296829Y-102054300D01*
X125801020Y-102054300D01*
X125732899Y-102034298D01*
X125686406Y-101980642D01*
X125676302Y-101910368D01*
X125677553Y-101901667D01*
X125684407Y-101854000D01*
X125665676Y-101723725D01*
X125611002Y-101604004D01*
X125524812Y-101504536D01*
X125524811Y-101504535D01*
X125469451Y-101468958D01*
X125414091Y-101433380D01*
X125287807Y-101396300D01*
X125156193Y-101396300D01*
X125029911Y-101433379D01*
X125029907Y-101433381D01*
X124919188Y-101504535D01*
X124832999Y-101604002D01*
X124778324Y-101723724D01*
X124778322Y-101723731D01*
X124759593Y-101853996D01*
X124759593Y-101853998D01*
X124759593Y-101854000D01*
X124765174Y-101892816D01*
X124767698Y-101910368D01*
X124757594Y-101980642D01*
X124711101Y-102034298D01*
X124642980Y-102054300D01*
X124086020Y-102054300D01*
X124017899Y-102034298D01*
X123971406Y-101980642D01*
X123961302Y-101910368D01*
X123963826Y-101892816D01*
X123969407Y-101854000D01*
X123969406Y-101853998D01*
X123969407Y-101853996D01*
X123950677Y-101723731D01*
X123950676Y-101723726D01*
X123950676Y-101723725D01*
X123896002Y-101604004D01*
X123809812Y-101504536D01*
X123809811Y-101504535D01*
X123754451Y-101468958D01*
X123699091Y-101433380D01*
X123572807Y-101396300D01*
X123441193Y-101396300D01*
X123314911Y-101433379D01*
X123314907Y-101433381D01*
X123204188Y-101504535D01*
X123117999Y-101604002D01*
X123063324Y-101723724D01*
X123063322Y-101723731D01*
X123044593Y-101853996D01*
X123044593Y-101853998D01*
X123044593Y-101854000D01*
X123050174Y-101892816D01*
X123052698Y-101910368D01*
X123042594Y-101980642D01*
X122996101Y-102034298D01*
X122927980Y-102054300D01*
X122577170Y-102054300D01*
X122509049Y-102034298D01*
X122488075Y-102017395D01*
X122348175Y-101877495D01*
X122314149Y-101815183D01*
X122312556Y-101806353D01*
X122300676Y-101723725D01*
X122246002Y-101604004D01*
X122246000Y-101604002D01*
X122245999Y-101603999D01*
X122218476Y-101572236D01*
X122188982Y-101507656D01*
X122187700Y-101489724D01*
X122187700Y-98324011D01*
X122207702Y-98255890D01*
X122224600Y-98234921D01*
X124604834Y-95854686D01*
X124667144Y-95820663D01*
X124737959Y-95825727D01*
X124794795Y-95868274D01*
X124808539Y-95891437D01*
X124832998Y-95944996D01*
X124919188Y-96044464D01*
X125029909Y-96115620D01*
X125156193Y-96152700D01*
X125287807Y-96152700D01*
X125414091Y-96115620D01*
X125524812Y-96044464D01*
X125611002Y-95944996D01*
X125665676Y-95825275D01*
X125666339Y-95820663D01*
X125679879Y-95726496D01*
X126506093Y-95726496D01*
X126506093Y-95726503D01*
X126524822Y-95856768D01*
X126524824Y-95856775D01*
X126579498Y-95976496D01*
X126665688Y-96075964D01*
X126776409Y-96147120D01*
X126902693Y-96184200D01*
X127034307Y-96184200D01*
X127160591Y-96147120D01*
X127271312Y-96075964D01*
X127357502Y-95976496D01*
X127412176Y-95856775D01*
X127430907Y-95726500D01*
X127430907Y-95726496D01*
X127412177Y-95596231D01*
X127412176Y-95596230D01*
X127412176Y-95596225D01*
X127357502Y-95476504D01*
X127271312Y-95377036D01*
X127271311Y-95377035D01*
X127215951Y-95341458D01*
X127160591Y-95305880D01*
X127065411Y-95277933D01*
X127034307Y-95268800D01*
X126902693Y-95268800D01*
X126776411Y-95305879D01*
X126776407Y-95305881D01*
X126665688Y-95377035D01*
X126579499Y-95476502D01*
X126524824Y-95596224D01*
X126524822Y-95596231D01*
X126506093Y-95726496D01*
X125679879Y-95726496D01*
X125684407Y-95695003D01*
X125684407Y-95694996D01*
X125665677Y-95564731D01*
X125665676Y-95564730D01*
X125665676Y-95564725D01*
X125611002Y-95445004D01*
X125524812Y-95345536D01*
X125524811Y-95345535D01*
X125406510Y-95269508D01*
X125408539Y-95266349D01*
X125368285Y-95231413D01*
X125348336Y-95163277D01*
X125368391Y-95095172D01*
X125385236Y-95074285D01*
X130649583Y-89809937D01*
X130711893Y-89775913D01*
X130782708Y-89780978D01*
X130839544Y-89823525D01*
X130853288Y-89846689D01*
X130897498Y-89943496D01*
X130983688Y-90042964D01*
X131094409Y-90114120D01*
X131220693Y-90151200D01*
X131352307Y-90151200D01*
X131478591Y-90114120D01*
X131589312Y-90042964D01*
X131675502Y-89943496D01*
X131730176Y-89823775D01*
X131732165Y-89809939D01*
X131748907Y-89693503D01*
X131748907Y-89693496D01*
X131730177Y-89563231D01*
X131730176Y-89563230D01*
X131730176Y-89563225D01*
X131675502Y-89443504D01*
X131589312Y-89344036D01*
X131589311Y-89344035D01*
X131491170Y-89280964D01*
X131478591Y-89272880D01*
X131456665Y-89266442D01*
X131396939Y-89228057D01*
X131367447Y-89163476D01*
X131377552Y-89093202D01*
X131403067Y-89056454D01*
X133477917Y-86981605D01*
X133540229Y-86947579D01*
X133567012Y-86944700D01*
X134313992Y-86944700D01*
X134382113Y-86964702D01*
X134490908Y-87034620D01*
X134617192Y-87071700D01*
X134748806Y-87071700D01*
X134875090Y-87034620D01*
X134985811Y-86963464D01*
X135072001Y-86863996D01*
X135126675Y-86744275D01*
X135138552Y-86661663D01*
X135168044Y-86597086D01*
X135174160Y-86590517D01*
X140117074Y-81647605D01*
X140179386Y-81613579D01*
X140206169Y-81610700D01*
X153675737Y-81610700D01*
X153743858Y-81630702D01*
G37*
%TD.AperFunction*%
%TA.AperFunction,Conductor*%
G36*
X157177339Y-72082443D02*
G01*
X157223832Y-72136099D01*
X157233936Y-72206373D01*
X157204442Y-72270953D01*
X157177338Y-72294439D01*
X157177189Y-72294534D01*
X157177188Y-72294535D01*
X157090999Y-72394002D01*
X157036324Y-72513724D01*
X157036322Y-72513731D01*
X157017593Y-72643996D01*
X157017593Y-72644003D01*
X157036322Y-72774268D01*
X157036324Y-72774274D01*
X157036324Y-72774275D01*
X157090998Y-72893996D01*
X157177188Y-72993464D01*
X157287909Y-73064620D01*
X157414193Y-73101700D01*
X157545807Y-73101700D01*
X157672091Y-73064620D01*
X157782812Y-72993464D01*
X157869002Y-72893996D01*
X157923676Y-72774275D01*
X157934761Y-72697176D01*
X157964253Y-72632598D01*
X158023979Y-72594214D01*
X158094976Y-72594214D01*
X158148573Y-72626015D01*
X163227965Y-77705407D01*
X163299468Y-77776910D01*
X163387040Y-77827469D01*
X163407681Y-77833000D01*
X163484714Y-77853642D01*
X163593553Y-77853642D01*
X163593569Y-77853641D01*
X174099634Y-77853641D01*
X174167755Y-77873643D01*
X174214248Y-77927299D01*
X174225634Y-77979641D01*
X174225634Y-82728300D01*
X174205632Y-82796421D01*
X174151976Y-82842914D01*
X174099634Y-82854300D01*
X173962207Y-82854300D01*
X173835925Y-82891379D01*
X173835921Y-82891381D01*
X173725202Y-82962535D01*
X173639013Y-83062002D01*
X173584338Y-83181724D01*
X173584336Y-83181731D01*
X173565607Y-83311996D01*
X173565607Y-83312003D01*
X173584336Y-83442268D01*
X173584338Y-83442275D01*
X173639012Y-83561996D01*
X173725202Y-83661464D01*
X173835923Y-83732620D01*
X173962207Y-83769700D01*
X174099634Y-83769700D01*
X174167755Y-83789702D01*
X174214248Y-83843358D01*
X174225634Y-83895700D01*
X174225634Y-88696641D01*
X174225634Y-88797761D01*
X174251806Y-88895435D01*
X174251807Y-88895437D01*
X174251808Y-88895440D01*
X174302362Y-88983003D01*
X174302370Y-88983013D01*
X179979929Y-94660571D01*
X180013955Y-94722883D01*
X180016834Y-94749666D01*
X180016834Y-102123200D01*
X179996832Y-102191321D01*
X179943176Y-102237814D01*
X179872902Y-102247918D01*
X179822713Y-102229198D01*
X179794032Y-102210766D01*
X179770091Y-102195380D01*
X179756267Y-102191321D01*
X179643807Y-102158300D01*
X179512193Y-102158300D01*
X179385911Y-102195379D01*
X179385907Y-102195381D01*
X179275188Y-102266535D01*
X179188999Y-102366002D01*
X179134324Y-102485724D01*
X179134322Y-102485731D01*
X179115593Y-102615996D01*
X179115593Y-102616003D01*
X179134322Y-102746268D01*
X179134324Y-102746275D01*
X179188998Y-102865996D01*
X179275188Y-102965464D01*
X179385909Y-103036620D01*
X179512193Y-103073700D01*
X179643807Y-103073700D01*
X179770091Y-103036620D01*
X179822713Y-103002801D01*
X179890833Y-102982799D01*
X179958954Y-103002800D01*
X180005447Y-103056456D01*
X180016834Y-103108799D01*
X180016834Y-109084536D01*
X179996832Y-109152657D01*
X179979929Y-109173631D01*
X174373868Y-114779692D01*
X174338117Y-114815443D01*
X174302366Y-114851193D01*
X174302362Y-114851198D01*
X174251808Y-114938761D01*
X174251806Y-114938765D01*
X174251806Y-114938767D01*
X174225634Y-115036441D01*
X174225634Y-115036443D01*
X174225634Y-125702161D01*
X174205632Y-125770282D01*
X174151976Y-125816775D01*
X174099634Y-125828161D01*
X163357234Y-125828161D01*
X163256114Y-125828161D01*
X163158440Y-125854333D01*
X163158438Y-125854333D01*
X163158434Y-125854335D01*
X163070871Y-125904889D01*
X163070861Y-125904897D01*
X162995305Y-125980453D01*
X162992017Y-125984201D01*
X158256904Y-130719316D01*
X158194592Y-130753341D01*
X158167809Y-130756221D01*
X155211808Y-130756221D01*
X155143687Y-130736219D01*
X155097194Y-130682563D01*
X155087090Y-130612291D01*
X155094810Y-130558601D01*
X155094810Y-130558597D01*
X155076080Y-130428332D01*
X155076079Y-130428331D01*
X155076079Y-130428326D01*
X155021405Y-130308605D01*
X154935215Y-130209137D01*
X154935214Y-130209136D01*
X154879854Y-130173559D01*
X154824494Y-130137981D01*
X154698210Y-130100901D01*
X154566596Y-130100901D01*
X154440314Y-130137980D01*
X154440310Y-130137982D01*
X154329591Y-130209136D01*
X154243402Y-130308603D01*
X154188727Y-130428325D01*
X154188725Y-130428332D01*
X154169996Y-130558597D01*
X154169996Y-130558604D01*
X154177715Y-130612289D01*
X154167612Y-130682563D01*
X154121119Y-130736219D01*
X154052999Y-130756221D01*
X151709625Y-130756221D01*
X151641504Y-130736219D01*
X151620529Y-130719316D01*
X151239984Y-130338771D01*
X150859206Y-129957992D01*
X150827911Y-129900681D01*
X150826914Y-129900974D01*
X150825567Y-129896386D01*
X150825181Y-129895680D01*
X150824897Y-129894105D01*
X150824375Y-129892331D01*
X150824375Y-129892325D01*
X150769701Y-129772604D01*
X150683511Y-129673136D01*
X150683510Y-129673135D01*
X150628150Y-129637558D01*
X150572790Y-129601980D01*
X150446506Y-129564900D01*
X150314892Y-129564900D01*
X150188610Y-129601979D01*
X150188606Y-129601981D01*
X150077887Y-129673135D01*
X149991698Y-129772602D01*
X149937023Y-129892324D01*
X149937021Y-129892331D01*
X149918292Y-130022596D01*
X149918292Y-130022603D01*
X149937021Y-130152868D01*
X149937023Y-130152875D01*
X149991697Y-130272596D01*
X150022899Y-130308605D01*
X150077887Y-130372064D01*
X150077888Y-130372065D01*
X150188603Y-130443217D01*
X150188608Y-130443220D01*
X150256276Y-130463088D01*
X150309872Y-130494888D01*
X150889492Y-131074507D01*
X150923517Y-131136820D01*
X150918453Y-131207635D01*
X150875906Y-131264471D01*
X150833013Y-131285308D01*
X150814039Y-131290392D01*
X150814038Y-131290393D01*
X150726471Y-131340949D01*
X150726461Y-131340957D01*
X150662150Y-131405269D01*
X150662144Y-131405273D01*
X150662145Y-131405274D01*
X150509904Y-131557516D01*
X150447592Y-131591541D01*
X150420808Y-131594421D01*
X145080986Y-131594421D01*
X145073963Y-131593961D01*
X145069234Y-131593961D01*
X143020139Y-131593961D01*
X142952018Y-131573959D01*
X142931044Y-131557056D01*
X137278886Y-125904897D01*
X137278876Y-125904889D01*
X137191313Y-125854335D01*
X137191310Y-125854334D01*
X137191308Y-125854333D01*
X137093634Y-125828161D01*
X137093631Y-125828161D01*
X126377114Y-125828161D01*
X126308993Y-125808159D01*
X126262500Y-125754503D01*
X126251114Y-125702161D01*
X126251114Y-124129796D01*
X149905591Y-124129796D01*
X149905591Y-124129803D01*
X149924320Y-124260068D01*
X149924322Y-124260075D01*
X149978996Y-124379796D01*
X150065186Y-124479264D01*
X150175907Y-124550420D01*
X150302191Y-124587500D01*
X150433805Y-124587500D01*
X150560089Y-124550420D01*
X150670810Y-124479264D01*
X150757000Y-124379796D01*
X150811674Y-124260075D01*
X150830405Y-124129800D01*
X150830405Y-124129796D01*
X150811675Y-123999531D01*
X150811674Y-123999530D01*
X150811674Y-123999525D01*
X150757000Y-123879804D01*
X150670810Y-123780336D01*
X150670809Y-123780335D01*
X150615449Y-123744758D01*
X150560089Y-123709180D01*
X150433805Y-123672100D01*
X150302191Y-123672100D01*
X150175909Y-123709179D01*
X150175905Y-123709181D01*
X150065186Y-123780335D01*
X149978997Y-123879802D01*
X149924322Y-123999524D01*
X149924320Y-123999531D01*
X149905591Y-124129796D01*
X126251114Y-124129796D01*
X126251114Y-123189996D01*
X129077593Y-123189996D01*
X129077593Y-123190003D01*
X129096322Y-123320268D01*
X129096324Y-123320275D01*
X129150998Y-123439996D01*
X129237188Y-123539464D01*
X129347909Y-123610620D01*
X129474193Y-123647700D01*
X129605807Y-123647700D01*
X129732091Y-123610620D01*
X129842812Y-123539464D01*
X129929002Y-123439996D01*
X129983676Y-123320275D01*
X129983953Y-123318344D01*
X130002407Y-123190003D01*
X130002407Y-123189996D01*
X134157593Y-123189996D01*
X134157593Y-123190003D01*
X134176322Y-123320268D01*
X134176324Y-123320275D01*
X134230998Y-123439996D01*
X134317188Y-123539464D01*
X134427909Y-123610620D01*
X134554193Y-123647700D01*
X134685807Y-123647700D01*
X134812091Y-123610620D01*
X134922812Y-123539464D01*
X135009002Y-123439996D01*
X135063676Y-123320275D01*
X135063953Y-123318344D01*
X135082407Y-123190003D01*
X135082407Y-123189996D01*
X135063677Y-123059731D01*
X135063676Y-123059730D01*
X135063676Y-123059725D01*
X135035942Y-122998996D01*
X144825593Y-122998996D01*
X144825593Y-122999003D01*
X144844322Y-123129268D01*
X144844324Y-123129274D01*
X144844324Y-123129275D01*
X144898998Y-123248996D01*
X144985188Y-123348464D01*
X145095909Y-123419620D01*
X145222193Y-123456700D01*
X145353807Y-123456700D01*
X145480091Y-123419620D01*
X145590812Y-123348464D01*
X145677002Y-123248996D01*
X145731676Y-123129275D01*
X145743553Y-123046663D01*
X145773045Y-122982086D01*
X145779161Y-122975517D01*
X150086075Y-118668605D01*
X150148387Y-118634579D01*
X150175170Y-118631700D01*
X153808993Y-118631700D01*
X153877114Y-118651702D01*
X153985909Y-118721620D01*
X154112193Y-118758700D01*
X154243807Y-118758700D01*
X154370091Y-118721620D01*
X154480812Y-118650464D01*
X154567002Y-118550996D01*
X154621676Y-118431275D01*
X154640407Y-118301000D01*
X154640407Y-118300996D01*
X154621677Y-118170731D01*
X154621676Y-118170730D01*
X154621676Y-118170725D01*
X154567002Y-118051004D01*
X154480812Y-117951536D01*
X154480811Y-117951535D01*
X154395395Y-117896642D01*
X154370091Y-117880380D01*
X154243807Y-117843300D01*
X154112193Y-117843300D01*
X153985911Y-117880379D01*
X153985907Y-117880381D01*
X153877114Y-117950298D01*
X153808993Y-117970300D01*
X150137034Y-117970300D01*
X150068913Y-117950298D01*
X150022420Y-117896642D01*
X150012316Y-117826368D01*
X150022420Y-117791959D01*
X150032943Y-117768914D01*
X150049676Y-117732275D01*
X150067587Y-117607705D01*
X150068407Y-117602003D01*
X150068407Y-117601996D01*
X150049677Y-117471731D01*
X150049676Y-117471730D01*
X150049676Y-117471725D01*
X149995002Y-117352004D01*
X149908812Y-117252536D01*
X149908811Y-117252535D01*
X149853451Y-117216958D01*
X149798091Y-117181380D01*
X149671807Y-117144300D01*
X149540193Y-117144300D01*
X149413911Y-117181379D01*
X149413907Y-117181381D01*
X149303188Y-117252535D01*
X149216999Y-117352002D01*
X149216998Y-117352003D01*
X149216998Y-117352004D01*
X149208280Y-117371093D01*
X149162324Y-117471724D01*
X149162322Y-117471731D01*
X149159217Y-117493330D01*
X149129724Y-117557911D01*
X149069998Y-117596294D01*
X148999001Y-117596294D01*
X148939275Y-117557910D01*
X148909783Y-117493330D01*
X148906677Y-117471731D01*
X148906676Y-117471730D01*
X148906676Y-117471725D01*
X148852002Y-117352004D01*
X148765812Y-117252536D01*
X148765811Y-117252535D01*
X148710451Y-117216958D01*
X148655091Y-117181380D01*
X148528807Y-117144300D01*
X148397193Y-117144300D01*
X148270911Y-117181379D01*
X148270907Y-117181381D01*
X148160188Y-117252535D01*
X148073999Y-117352002D01*
X148073998Y-117352003D01*
X148073998Y-117352004D01*
X148065280Y-117371093D01*
X148019324Y-117471724D01*
X148019322Y-117471731D01*
X148000593Y-117601996D01*
X148000593Y-117602003D01*
X148019322Y-117732268D01*
X148019324Y-117732275D01*
X148073998Y-117851996D01*
X148160188Y-117951464D01*
X148270909Y-118022620D01*
X148397193Y-118059700D01*
X148528807Y-118059700D01*
X148655091Y-118022620D01*
X148765812Y-117951464D01*
X148852002Y-117851996D01*
X148906676Y-117732275D01*
X148909783Y-117710669D01*
X148939276Y-117646088D01*
X148999002Y-117607705D01*
X149069998Y-117607705D01*
X149129725Y-117646089D01*
X149159217Y-117710669D01*
X149162322Y-117732268D01*
X149162324Y-117732275D01*
X149216998Y-117851996D01*
X149303188Y-117951464D01*
X149413909Y-118022620D01*
X149502123Y-118048522D01*
X149506054Y-118049676D01*
X149565780Y-118088059D01*
X149595273Y-118152640D01*
X149585170Y-118222914D01*
X149559651Y-118259667D01*
X145314925Y-122504395D01*
X145252613Y-122538420D01*
X145225830Y-122541300D01*
X145222193Y-122541300D01*
X145095911Y-122578379D01*
X145095907Y-122578381D01*
X144985188Y-122649535D01*
X144898999Y-122749002D01*
X144844324Y-122868724D01*
X144844322Y-122868731D01*
X144825593Y-122998996D01*
X135035942Y-122998996D01*
X135009002Y-122940004D01*
X134922812Y-122840536D01*
X134922811Y-122840535D01*
X134867451Y-122804958D01*
X134812091Y-122769380D01*
X134800123Y-122765866D01*
X134685807Y-122732300D01*
X134554193Y-122732300D01*
X134427911Y-122769379D01*
X134427907Y-122769381D01*
X134317188Y-122840535D01*
X134230999Y-122940002D01*
X134176324Y-123059724D01*
X134176322Y-123059731D01*
X134157593Y-123189996D01*
X130002407Y-123189996D01*
X129983677Y-123059731D01*
X129983676Y-123059730D01*
X129983676Y-123059725D01*
X129929002Y-122940004D01*
X129842812Y-122840536D01*
X129842811Y-122840535D01*
X129787451Y-122804958D01*
X129732091Y-122769380D01*
X129720123Y-122765866D01*
X129605807Y-122732300D01*
X129474193Y-122732300D01*
X129347911Y-122769379D01*
X129347907Y-122769381D01*
X129237188Y-122840535D01*
X129150999Y-122940002D01*
X129096324Y-123059724D01*
X129096322Y-123059731D01*
X129077593Y-123189996D01*
X126251114Y-123189996D01*
X126251114Y-115046125D01*
X126251115Y-115046112D01*
X126251115Y-114934839D01*
X126229236Y-114853192D01*
X126229235Y-114853188D01*
X126224942Y-114837166D01*
X126174385Y-114749598D01*
X126174381Y-114749593D01*
X126173790Y-114749002D01*
X126102880Y-114678092D01*
X120522219Y-109097431D01*
X120488193Y-109035119D01*
X120485314Y-109008336D01*
X120485314Y-107949996D01*
X124759593Y-107949996D01*
X124759593Y-107950003D01*
X124778322Y-108080268D01*
X124778324Y-108080275D01*
X124832998Y-108199996D01*
X124919188Y-108299464D01*
X125029909Y-108370620D01*
X125156193Y-108407700D01*
X125287807Y-108407700D01*
X125414091Y-108370620D01*
X125524812Y-108299464D01*
X125611002Y-108199996D01*
X125665676Y-108080275D01*
X125669768Y-108051816D01*
X125684407Y-107950003D01*
X125684407Y-107949996D01*
X125665677Y-107819731D01*
X125665676Y-107819730D01*
X125665676Y-107819725D01*
X125611002Y-107700004D01*
X125524812Y-107600536D01*
X125524811Y-107600535D01*
X125452025Y-107553759D01*
X125414091Y-107529380D01*
X125302853Y-107496718D01*
X125287807Y-107492300D01*
X125156193Y-107492300D01*
X125029911Y-107529379D01*
X125029907Y-107529381D01*
X124919188Y-107600535D01*
X124832999Y-107700002D01*
X124778324Y-107819724D01*
X124778322Y-107819731D01*
X124759593Y-107949996D01*
X120485314Y-107949996D01*
X120485314Y-106677748D01*
X120505316Y-106609627D01*
X120558972Y-106563134D01*
X120629246Y-106553030D01*
X120679434Y-106571749D01*
X120711909Y-106592620D01*
X120838193Y-106629700D01*
X120969807Y-106629700D01*
X121096091Y-106592620D01*
X121206812Y-106521464D01*
X121293002Y-106421996D01*
X121347676Y-106302275D01*
X121353843Y-106259381D01*
X121366407Y-106172003D01*
X121366407Y-106171996D01*
X121347677Y-106041731D01*
X121347676Y-106041730D01*
X121347676Y-106041725D01*
X121293002Y-105922004D01*
X121206812Y-105822536D01*
X121206811Y-105822535D01*
X121096094Y-105751382D01*
X121096091Y-105751380D01*
X120969807Y-105714300D01*
X120838193Y-105714300D01*
X120711911Y-105751379D01*
X120711904Y-105751382D01*
X120679433Y-105772250D01*
X120611312Y-105792251D01*
X120543192Y-105772248D01*
X120496700Y-105718592D01*
X120485314Y-105666251D01*
X120485314Y-101853996D01*
X121394593Y-101853996D01*
X121394593Y-101854003D01*
X121413322Y-101984268D01*
X121413324Y-101984275D01*
X121467998Y-102103996D01*
X121554188Y-102203464D01*
X121664909Y-102274620D01*
X121791193Y-102311700D01*
X121794830Y-102311700D01*
X121798321Y-102312725D01*
X121800114Y-102312983D01*
X121800076Y-102313240D01*
X121862951Y-102331702D01*
X121883925Y-102348605D01*
X122118963Y-102583643D01*
X122118984Y-102583666D01*
X122184943Y-102649625D01*
X122184946Y-102649627D01*
X122234859Y-102678445D01*
X122260347Y-102693160D01*
X122260354Y-102693164D01*
X122344462Y-102715700D01*
X122344464Y-102715700D01*
X131529536Y-102715700D01*
X131529537Y-102715700D01*
X131529538Y-102715700D01*
X131613646Y-102693164D01*
X131660426Y-102666155D01*
X131689054Y-102649627D01*
X131760992Y-102577689D01*
X131760999Y-102577679D01*
X131927906Y-102410773D01*
X131990217Y-102376749D01*
X132061033Y-102381814D01*
X132106095Y-102410775D01*
X134315395Y-104620075D01*
X134349421Y-104682387D01*
X134352300Y-104709170D01*
X134352300Y-116729724D01*
X134332298Y-116797845D01*
X134321524Y-116812236D01*
X134294000Y-116843999D01*
X134239324Y-116963724D01*
X134239322Y-116963731D01*
X134220593Y-117093996D01*
X134220593Y-117093998D01*
X134220593Y-117094000D01*
X134228698Y-117150368D01*
X134218594Y-117220642D01*
X134172101Y-117274298D01*
X134103980Y-117294300D01*
X133421020Y-117294300D01*
X133352899Y-117274298D01*
X133306406Y-117220642D01*
X133296302Y-117150368D01*
X133304407Y-117094000D01*
X133304406Y-117093998D01*
X133304407Y-117093996D01*
X133285677Y-116963731D01*
X133285676Y-116963726D01*
X133285676Y-116963725D01*
X133231002Y-116844004D01*
X133144812Y-116744536D01*
X133144811Y-116744535D01*
X133089451Y-116708958D01*
X133034091Y-116673380D01*
X132907807Y-116636300D01*
X132776193Y-116636300D01*
X132649911Y-116673379D01*
X132649907Y-116673381D01*
X132539188Y-116744535D01*
X132452999Y-116844002D01*
X132398324Y-116963724D01*
X132398322Y-116963731D01*
X132379593Y-117093996D01*
X132379593Y-117093998D01*
X132379593Y-117094000D01*
X132387698Y-117150368D01*
X132377594Y-117220642D01*
X132331101Y-117274298D01*
X132262980Y-117294300D01*
X131135020Y-117294300D01*
X131066899Y-117274298D01*
X131020406Y-117220642D01*
X131010302Y-117150368D01*
X131018407Y-117094000D01*
X131018406Y-117093998D01*
X131018407Y-117093996D01*
X130999677Y-116963731D01*
X130999676Y-116963726D01*
X130999676Y-116963725D01*
X130945002Y-116844004D01*
X130858812Y-116744536D01*
X130858811Y-116744535D01*
X130803451Y-116708958D01*
X130748091Y-116673380D01*
X130621807Y-116636300D01*
X130618170Y-116636300D01*
X130614678Y-116635274D01*
X130612886Y-116635017D01*
X130612923Y-116634759D01*
X130550049Y-116616298D01*
X130529075Y-116599395D01*
X130161605Y-116231925D01*
X130127579Y-116169613D01*
X130124700Y-116142830D01*
X130124700Y-110092275D01*
X130144702Y-110024154D01*
X130155477Y-110009761D01*
X130183002Y-109977996D01*
X130237676Y-109858275D01*
X130237953Y-109856344D01*
X130256407Y-109728003D01*
X130256407Y-109727996D01*
X130237677Y-109597731D01*
X130237676Y-109597730D01*
X130237676Y-109597725D01*
X130183002Y-109478004D01*
X130096812Y-109378536D01*
X130096811Y-109378535D01*
X130026423Y-109333300D01*
X129986091Y-109307380D01*
X129859807Y-109270300D01*
X129728193Y-109270300D01*
X129601911Y-109307379D01*
X129601907Y-109307381D01*
X129491188Y-109378535D01*
X129404999Y-109478002D01*
X129350324Y-109597724D01*
X129350322Y-109597731D01*
X129331593Y-109727996D01*
X129331593Y-109728003D01*
X129350322Y-109858268D01*
X129350324Y-109858275D01*
X129404998Y-109977996D01*
X129404999Y-109977997D01*
X129432523Y-110009761D01*
X129462017Y-110074342D01*
X129463300Y-110092275D01*
X129463300Y-116375538D01*
X129477213Y-116427464D01*
X129485835Y-116459642D01*
X129485838Y-116459650D01*
X129529372Y-116535054D01*
X129598120Y-116603802D01*
X129598134Y-116603814D01*
X130064824Y-117070504D01*
X130098850Y-117132816D01*
X130100444Y-117141653D01*
X130101698Y-117150369D01*
X130091594Y-117220642D01*
X130045101Y-117274298D01*
X129976980Y-117294300D01*
X128673170Y-117294300D01*
X128605049Y-117274298D01*
X128584075Y-117257395D01*
X128444175Y-117117495D01*
X128410149Y-117055183D01*
X128408556Y-117046353D01*
X128396676Y-116963725D01*
X128342002Y-116844004D01*
X128255812Y-116744536D01*
X128255811Y-116744535D01*
X128200451Y-116708958D01*
X128145091Y-116673380D01*
X128018807Y-116636300D01*
X127887193Y-116636300D01*
X127760911Y-116673379D01*
X127760907Y-116673381D01*
X127650188Y-116744535D01*
X127563999Y-116844002D01*
X127509324Y-116963724D01*
X127509322Y-116963731D01*
X127490593Y-117093996D01*
X127490593Y-117094003D01*
X127509322Y-117224268D01*
X127509324Y-117224275D01*
X127563998Y-117343996D01*
X127650188Y-117443464D01*
X127760909Y-117514620D01*
X127887193Y-117551700D01*
X127890830Y-117551700D01*
X127894321Y-117552725D01*
X127896114Y-117552983D01*
X127896076Y-117553240D01*
X127958951Y-117571702D01*
X127979925Y-117588605D01*
X128214963Y-117823643D01*
X128214984Y-117823666D01*
X128280945Y-117889627D01*
X128348680Y-117928733D01*
X128356354Y-117933164D01*
X128440462Y-117955700D01*
X128440464Y-117955700D01*
X134946484Y-117955700D01*
X134946485Y-117955700D01*
X134946486Y-117955700D01*
X135030594Y-117933164D01*
X135077374Y-117906155D01*
X135106002Y-117889627D01*
X135139633Y-117855996D01*
X144000593Y-117855996D01*
X144000593Y-117856003D01*
X144019322Y-117986268D01*
X144019324Y-117986275D01*
X144073998Y-118105996D01*
X144160188Y-118205464D01*
X144270909Y-118276620D01*
X144397193Y-118313700D01*
X144528807Y-118313700D01*
X144655091Y-118276620D01*
X144765812Y-118205464D01*
X144852002Y-118105996D01*
X144906676Y-117986275D01*
X144914313Y-117933161D01*
X144925407Y-117856003D01*
X144925407Y-117855996D01*
X144906677Y-117725731D01*
X144906676Y-117725730D01*
X144906676Y-117725725D01*
X144852002Y-117606004D01*
X144765812Y-117506536D01*
X144765811Y-117506535D01*
X144667670Y-117443464D01*
X144655091Y-117435380D01*
X144528807Y-117398300D01*
X144397193Y-117398300D01*
X144270911Y-117435379D01*
X144270907Y-117435381D01*
X144160188Y-117506535D01*
X144073999Y-117606002D01*
X144019324Y-117725724D01*
X144019322Y-117725731D01*
X144000593Y-117855996D01*
X135139633Y-117855996D01*
X135177939Y-117817690D01*
X135177945Y-117817681D01*
X136917631Y-116077996D01*
X157271593Y-116077996D01*
X157271593Y-116078003D01*
X157290322Y-116208268D01*
X157290324Y-116208275D01*
X157344998Y-116327996D01*
X157431188Y-116427464D01*
X157541909Y-116498620D01*
X157668193Y-116535700D01*
X157799807Y-116535700D01*
X157926091Y-116498620D01*
X158034886Y-116428702D01*
X158103007Y-116408700D01*
X163523993Y-116408700D01*
X163592114Y-116428702D01*
X163700909Y-116498620D01*
X163827193Y-116535700D01*
X163958807Y-116535700D01*
X164085091Y-116498620D01*
X164195812Y-116427464D01*
X164282002Y-116327996D01*
X164336676Y-116208275D01*
X164355407Y-116078000D01*
X164355407Y-116077996D01*
X164336677Y-115947731D01*
X164336676Y-115947730D01*
X164336676Y-115947725D01*
X164282002Y-115828004D01*
X164195812Y-115728536D01*
X164195811Y-115728535D01*
X164140451Y-115692958D01*
X164085091Y-115657380D01*
X163958807Y-115620300D01*
X163827193Y-115620300D01*
X163700911Y-115657379D01*
X163700907Y-115657381D01*
X163592114Y-115727298D01*
X163523993Y-115747300D01*
X158103007Y-115747300D01*
X158034886Y-115727298D01*
X157991601Y-115699481D01*
X157926091Y-115657380D01*
X157799807Y-115620300D01*
X157668193Y-115620300D01*
X157541911Y-115657379D01*
X157541907Y-115657381D01*
X157431188Y-115728535D01*
X157344999Y-115828002D01*
X157290324Y-115947724D01*
X157290322Y-115947731D01*
X157271593Y-116077996D01*
X136917631Y-116077996D01*
X137996632Y-114998996D01*
X147502667Y-114998996D01*
X147502667Y-114999003D01*
X147521396Y-115129268D01*
X147521398Y-115129275D01*
X147576072Y-115248996D01*
X147662262Y-115348464D01*
X147772983Y-115419620D01*
X147899267Y-115456700D01*
X148030881Y-115456700D01*
X148157165Y-115419620D01*
X148267886Y-115348464D01*
X148354076Y-115248996D01*
X148408750Y-115129275D01*
X148409027Y-115127344D01*
X148427481Y-114999003D01*
X148427481Y-114998996D01*
X148408751Y-114868731D01*
X148408750Y-114868730D01*
X148408750Y-114868725D01*
X148354076Y-114749004D01*
X148267886Y-114649536D01*
X148267885Y-114649535D01*
X148212525Y-114613958D01*
X148157165Y-114578380D01*
X148030881Y-114541300D01*
X147899267Y-114541300D01*
X147772985Y-114578379D01*
X147772981Y-114578381D01*
X147662262Y-114649535D01*
X147576073Y-114749002D01*
X147521398Y-114868724D01*
X147521396Y-114868731D01*
X147502667Y-114998996D01*
X137996632Y-114998996D01*
X139011626Y-113984003D01*
X139055164Y-113908594D01*
X139077700Y-113824486D01*
X139077700Y-113737411D01*
X139077700Y-113283996D01*
X160040093Y-113283996D01*
X160040093Y-113284003D01*
X160058822Y-113414268D01*
X160058824Y-113414275D01*
X160113498Y-113533996D01*
X160199688Y-113633464D01*
X160310409Y-113704620D01*
X160436693Y-113741700D01*
X160568307Y-113741700D01*
X160694591Y-113704620D01*
X160805312Y-113633464D01*
X160891502Y-113533996D01*
X160946176Y-113414275D01*
X160964907Y-113284000D01*
X160964907Y-113283996D01*
X160946177Y-113153731D01*
X160946176Y-113153730D01*
X160946176Y-113153725D01*
X160891502Y-113034004D01*
X160888029Y-113029996D01*
X166606593Y-113029996D01*
X166606593Y-113030003D01*
X166625322Y-113160268D01*
X166625324Y-113160275D01*
X166679998Y-113279996D01*
X166766188Y-113379464D01*
X166876909Y-113450620D01*
X167003193Y-113487700D01*
X167134807Y-113487700D01*
X167261091Y-113450620D01*
X167371812Y-113379464D01*
X167458002Y-113279996D01*
X167512676Y-113160275D01*
X167513618Y-113153724D01*
X167531407Y-113030003D01*
X167531407Y-113029996D01*
X167512677Y-112899731D01*
X167512676Y-112899730D01*
X167512676Y-112899725D01*
X167458002Y-112780004D01*
X167371812Y-112680536D01*
X167371811Y-112680535D01*
X167316451Y-112644958D01*
X167261091Y-112609380D01*
X167134807Y-112572300D01*
X167003193Y-112572300D01*
X166876911Y-112609379D01*
X166876907Y-112609381D01*
X166766188Y-112680535D01*
X166679999Y-112780002D01*
X166625324Y-112899724D01*
X166625322Y-112899731D01*
X166606593Y-113029996D01*
X160888029Y-113029996D01*
X160805312Y-112934536D01*
X160805311Y-112934535D01*
X160749951Y-112898958D01*
X160694591Y-112863380D01*
X160568307Y-112826300D01*
X160436693Y-112826300D01*
X160310411Y-112863379D01*
X160310407Y-112863381D01*
X160199688Y-112934535D01*
X160113499Y-113034002D01*
X160058824Y-113153724D01*
X160058822Y-113153731D01*
X160040093Y-113283996D01*
X139077700Y-113283996D01*
X139077700Y-110743996D01*
X141777593Y-110743996D01*
X141777593Y-110744003D01*
X141796322Y-110874268D01*
X141796324Y-110874275D01*
X141850998Y-110993996D01*
X141850999Y-110993997D01*
X141937188Y-111093464D01*
X142018938Y-111146002D01*
X142065431Y-111199658D01*
X142075534Y-111269932D01*
X142046041Y-111334513D01*
X142018938Y-111357998D01*
X141937188Y-111410535D01*
X141850999Y-111510002D01*
X141796324Y-111629724D01*
X141796322Y-111629731D01*
X141777593Y-111759996D01*
X141777593Y-111760003D01*
X141796322Y-111890268D01*
X141796324Y-111890275D01*
X141850998Y-112009996D01*
X141937188Y-112109464D01*
X142047909Y-112180620D01*
X142174193Y-112217700D01*
X142305807Y-112217700D01*
X142432091Y-112180620D01*
X142542812Y-112109464D01*
X142629002Y-112009996D01*
X142683676Y-111890275D01*
X142691379Y-111836700D01*
X142702407Y-111760003D01*
X142702407Y-111759996D01*
X142683677Y-111629731D01*
X142683676Y-111629730D01*
X142683676Y-111629725D01*
X142629002Y-111510004D01*
X142542812Y-111410536D01*
X142542811Y-111410535D01*
X142493735Y-111378996D01*
X165018593Y-111378996D01*
X165018593Y-111379003D01*
X165037322Y-111509268D01*
X165037324Y-111509275D01*
X165091998Y-111628996D01*
X165178188Y-111728464D01*
X165288909Y-111799620D01*
X165415193Y-111836700D01*
X165546807Y-111836700D01*
X165673091Y-111799620D01*
X165783812Y-111728464D01*
X165870002Y-111628996D01*
X165924676Y-111509275D01*
X165943407Y-111379000D01*
X165943407Y-111378996D01*
X165924677Y-111248731D01*
X165924676Y-111248730D01*
X165924676Y-111248725D01*
X165870002Y-111129004D01*
X165783812Y-111029536D01*
X165783811Y-111029535D01*
X165728451Y-110993958D01*
X165673091Y-110958380D01*
X165546807Y-110921300D01*
X165415193Y-110921300D01*
X165288911Y-110958379D01*
X165288907Y-110958381D01*
X165178188Y-111029535D01*
X165091999Y-111129002D01*
X165037324Y-111248724D01*
X165037322Y-111248731D01*
X165018593Y-111378996D01*
X142493735Y-111378996D01*
X142461061Y-111357998D01*
X142414568Y-111304342D01*
X142404464Y-111234069D01*
X142433957Y-111169488D01*
X142461061Y-111146002D01*
X142542812Y-111093464D01*
X142629002Y-110993996D01*
X142683676Y-110874275D01*
X142702407Y-110744000D01*
X142702407Y-110743996D01*
X142683677Y-110613731D01*
X142683676Y-110613730D01*
X142683676Y-110613725D01*
X142629002Y-110494004D01*
X142542812Y-110394536D01*
X142542811Y-110394535D01*
X142487451Y-110358958D01*
X142432091Y-110323380D01*
X142305807Y-110286300D01*
X142174193Y-110286300D01*
X142047911Y-110323379D01*
X142047907Y-110323381D01*
X141937188Y-110394535D01*
X141850999Y-110494002D01*
X141796324Y-110613724D01*
X141796322Y-110613731D01*
X141777593Y-110743996D01*
X139077700Y-110743996D01*
X139077700Y-109790996D01*
X155747593Y-109790996D01*
X155747593Y-109791003D01*
X155766322Y-109921268D01*
X155766324Y-109921275D01*
X155820998Y-110040996D01*
X155907188Y-110140464D01*
X156017909Y-110211620D01*
X156144193Y-110248700D01*
X156275807Y-110248700D01*
X156402091Y-110211620D01*
X156512812Y-110140464D01*
X156540079Y-110108996D01*
X165018593Y-110108996D01*
X165018593Y-110109003D01*
X165037322Y-110239268D01*
X165037324Y-110239275D01*
X165091998Y-110358996D01*
X165178188Y-110458464D01*
X165288909Y-110529620D01*
X165415193Y-110566700D01*
X165546807Y-110566700D01*
X165673091Y-110529620D01*
X165783812Y-110458464D01*
X165870002Y-110358996D01*
X165924676Y-110239275D01*
X165943407Y-110109000D01*
X165943407Y-110108996D01*
X165924677Y-109978731D01*
X165924676Y-109978730D01*
X165924676Y-109978725D01*
X165870002Y-109859004D01*
X165783812Y-109759536D01*
X165783811Y-109759535D01*
X165728451Y-109723958D01*
X165673091Y-109688380D01*
X165578902Y-109660724D01*
X165546807Y-109651300D01*
X165415193Y-109651300D01*
X165288911Y-109688379D01*
X165288907Y-109688381D01*
X165178188Y-109759535D01*
X165091999Y-109859002D01*
X165037324Y-109978724D01*
X165037322Y-109978731D01*
X165018593Y-110108996D01*
X156540079Y-110108996D01*
X156599002Y-110040996D01*
X156653676Y-109921275D01*
X156653953Y-109919344D01*
X156672407Y-109791003D01*
X156672407Y-109790996D01*
X156653677Y-109660731D01*
X156653676Y-109660730D01*
X156653676Y-109660725D01*
X156599002Y-109541004D01*
X156512812Y-109441536D01*
X156512811Y-109441535D01*
X156414780Y-109378535D01*
X156402091Y-109370380D01*
X156275807Y-109333300D01*
X156144193Y-109333300D01*
X156017911Y-109370379D01*
X156017907Y-109370381D01*
X155907188Y-109441535D01*
X155820999Y-109541002D01*
X155766324Y-109660724D01*
X155766322Y-109660731D01*
X155747593Y-109790996D01*
X139077700Y-109790996D01*
X139077700Y-106679996D01*
X149334593Y-106679996D01*
X149334593Y-106680003D01*
X149353322Y-106810268D01*
X149353324Y-106810275D01*
X149407998Y-106929996D01*
X149494188Y-107029464D01*
X149604909Y-107100620D01*
X149731193Y-107137700D01*
X149862807Y-107137700D01*
X149989091Y-107100620D01*
X150099812Y-107029464D01*
X150186002Y-106929996D01*
X150240676Y-106810275D01*
X150259407Y-106680000D01*
X150259407Y-106679996D01*
X150240677Y-106549731D01*
X150240676Y-106549730D01*
X150240676Y-106549725D01*
X150186002Y-106430004D01*
X150099812Y-106330536D01*
X150099811Y-106330535D01*
X150044451Y-106294958D01*
X149989091Y-106259380D01*
X149862807Y-106222300D01*
X149731193Y-106222300D01*
X149604911Y-106259379D01*
X149604907Y-106259381D01*
X149494188Y-106330535D01*
X149407999Y-106430002D01*
X149353324Y-106549724D01*
X149353322Y-106549731D01*
X149334593Y-106679996D01*
X139077700Y-106679996D01*
X139077700Y-102218275D01*
X139097702Y-102150154D01*
X139108477Y-102135761D01*
X139119361Y-102123200D01*
X139136002Y-102103996D01*
X139190676Y-101984275D01*
X139191198Y-101980642D01*
X139209407Y-101854003D01*
X139209407Y-101853996D01*
X139190677Y-101723731D01*
X139190676Y-101723726D01*
X139190676Y-101723725D01*
X139136002Y-101604004D01*
X139049812Y-101504536D01*
X139049811Y-101504535D01*
X138994451Y-101468958D01*
X138939091Y-101433380D01*
X138812807Y-101396300D01*
X138809170Y-101396300D01*
X138805678Y-101395274D01*
X138803886Y-101395017D01*
X138803923Y-101394759D01*
X138741049Y-101376298D01*
X138720075Y-101359395D01*
X138002814Y-100642134D01*
X138002802Y-100642120D01*
X137934054Y-100573372D01*
X137858650Y-100529838D01*
X137858648Y-100529837D01*
X137858646Y-100529836D01*
X137774538Y-100507300D01*
X137774537Y-100507300D01*
X129880570Y-100507300D01*
X129812449Y-100487298D01*
X129765956Y-100433642D01*
X129755852Y-100363368D01*
X129785346Y-100298788D01*
X129791462Y-100292217D01*
X130979681Y-99103997D01*
X130979690Y-99103991D01*
X131051627Y-99032054D01*
X131068155Y-99003426D01*
X131095164Y-98956646D01*
X131117700Y-98872538D01*
X131117700Y-96773996D01*
X161843593Y-96773996D01*
X161843593Y-96774003D01*
X161862322Y-96904268D01*
X161862324Y-96904275D01*
X161916998Y-97023996D01*
X161916999Y-97023997D01*
X162003188Y-97123464D01*
X162084938Y-97176002D01*
X162131431Y-97229658D01*
X162141534Y-97299932D01*
X162112041Y-97364513D01*
X162084938Y-97387998D01*
X162003188Y-97440535D01*
X161916999Y-97540002D01*
X161862324Y-97659724D01*
X161862322Y-97659731D01*
X161843593Y-97789996D01*
X161843593Y-97790003D01*
X161862322Y-97920268D01*
X161862324Y-97920275D01*
X161916998Y-98039996D01*
X162003188Y-98139464D01*
X162113909Y-98210620D01*
X162240193Y-98247700D01*
X162371807Y-98247700D01*
X162498091Y-98210620D01*
X162608812Y-98139464D01*
X162695002Y-98039996D01*
X162749676Y-97920275D01*
X162749953Y-97918344D01*
X162768407Y-97790003D01*
X162768407Y-97789996D01*
X162749677Y-97659731D01*
X162749676Y-97659730D01*
X162749676Y-97659725D01*
X162695002Y-97540004D01*
X162608812Y-97440536D01*
X162608811Y-97440535D01*
X162527061Y-97387998D01*
X162480568Y-97334342D01*
X162470464Y-97264069D01*
X162499957Y-97199488D01*
X162527061Y-97176002D01*
X162608812Y-97123464D01*
X162695002Y-97023996D01*
X162749676Y-96904275D01*
X162768407Y-96774000D01*
X162768407Y-96773996D01*
X167685593Y-96773996D01*
X167685593Y-96774003D01*
X167704322Y-96904268D01*
X167704324Y-96904275D01*
X167758998Y-97023996D01*
X167758999Y-97023997D01*
X167845188Y-97123464D01*
X167926938Y-97176002D01*
X167973431Y-97229658D01*
X167983534Y-97299932D01*
X167954041Y-97364513D01*
X167926938Y-97387998D01*
X167845188Y-97440535D01*
X167758999Y-97540002D01*
X167704324Y-97659724D01*
X167704322Y-97659731D01*
X167685593Y-97789996D01*
X167685593Y-97790003D01*
X167704322Y-97920268D01*
X167704324Y-97920275D01*
X167758998Y-98039996D01*
X167845188Y-98139464D01*
X167955909Y-98210620D01*
X168082193Y-98247700D01*
X168213807Y-98247700D01*
X168340091Y-98210620D01*
X168450812Y-98139464D01*
X168537002Y-98039996D01*
X168591676Y-97920275D01*
X168591953Y-97918344D01*
X168610407Y-97790003D01*
X168610407Y-97789996D01*
X168591677Y-97659731D01*
X168591676Y-97659730D01*
X168591676Y-97659725D01*
X168537002Y-97540004D01*
X168450812Y-97440536D01*
X168450811Y-97440535D01*
X168369061Y-97387998D01*
X168322568Y-97334342D01*
X168312464Y-97264069D01*
X168341957Y-97199488D01*
X168369061Y-97176002D01*
X168450812Y-97123464D01*
X168537002Y-97023996D01*
X168591676Y-96904275D01*
X168610407Y-96774000D01*
X168610407Y-96773996D01*
X168591677Y-96643731D01*
X168591676Y-96643730D01*
X168591676Y-96643725D01*
X168537002Y-96524004D01*
X168450812Y-96424536D01*
X168450811Y-96424535D01*
X168395451Y-96388958D01*
X168340091Y-96353380D01*
X168213807Y-96316300D01*
X168082193Y-96316300D01*
X167955911Y-96353379D01*
X167955907Y-96353381D01*
X167845188Y-96424535D01*
X167758999Y-96524002D01*
X167704324Y-96643724D01*
X167704322Y-96643731D01*
X167685593Y-96773996D01*
X162768407Y-96773996D01*
X162749677Y-96643731D01*
X162749676Y-96643730D01*
X162749676Y-96643725D01*
X162695002Y-96524004D01*
X162608812Y-96424536D01*
X162608811Y-96424535D01*
X162553451Y-96388958D01*
X162498091Y-96353380D01*
X162371807Y-96316300D01*
X162240193Y-96316300D01*
X162113911Y-96353379D01*
X162113907Y-96353381D01*
X162003188Y-96424535D01*
X161916999Y-96524002D01*
X161862324Y-96643724D01*
X161862322Y-96643731D01*
X161843593Y-96773996D01*
X131117700Y-96773996D01*
X131117700Y-95694996D01*
X134919593Y-95694996D01*
X134919593Y-95695003D01*
X134938322Y-95825268D01*
X134938324Y-95825275D01*
X134992998Y-95944996D01*
X135079188Y-96044464D01*
X135189909Y-96115620D01*
X135316193Y-96152700D01*
X135447807Y-96152700D01*
X135574091Y-96115620D01*
X135684812Y-96044464D01*
X135771002Y-95944996D01*
X135825676Y-95825275D01*
X135826339Y-95820663D01*
X135844407Y-95695003D01*
X135844407Y-95694996D01*
X135825677Y-95564731D01*
X135825676Y-95564730D01*
X135825676Y-95564725D01*
X135771002Y-95445004D01*
X135684812Y-95345536D01*
X135684811Y-95345535D01*
X135629451Y-95309958D01*
X135574091Y-95274380D01*
X135557498Y-95269508D01*
X135447807Y-95237300D01*
X135316193Y-95237300D01*
X135189911Y-95274379D01*
X135189907Y-95274381D01*
X135079188Y-95345535D01*
X134992999Y-95445002D01*
X134938324Y-95564724D01*
X134938322Y-95564731D01*
X134919593Y-95694996D01*
X131117700Y-95694996D01*
X131117700Y-93356700D01*
X131137702Y-93288579D01*
X131191358Y-93242086D01*
X131243700Y-93230700D01*
X131383807Y-93230700D01*
X131510091Y-93193620D01*
X131620812Y-93122464D01*
X131707002Y-93022996D01*
X131761676Y-92903275D01*
X131780407Y-92773000D01*
X131780407Y-92772996D01*
X141015593Y-92772996D01*
X141015593Y-92773003D01*
X141034322Y-92903268D01*
X141034324Y-92903275D01*
X141088998Y-93022996D01*
X141175188Y-93122464D01*
X141285909Y-93193620D01*
X141412193Y-93230700D01*
X141543807Y-93230700D01*
X141670091Y-93193620D01*
X141780812Y-93122464D01*
X141867002Y-93022996D01*
X141921676Y-92903275D01*
X141940407Y-92773000D01*
X141940407Y-92772996D01*
X141921677Y-92642731D01*
X141921676Y-92642730D01*
X141921676Y-92642725D01*
X141867002Y-92523004D01*
X141780812Y-92423536D01*
X141780811Y-92423535D01*
X141684814Y-92361842D01*
X141670091Y-92352380D01*
X141661975Y-92349997D01*
X141543807Y-92315300D01*
X141412193Y-92315300D01*
X141285911Y-92352379D01*
X141285907Y-92352381D01*
X141175188Y-92423535D01*
X141088999Y-92523002D01*
X141034324Y-92642724D01*
X141034322Y-92642731D01*
X141015593Y-92772996D01*
X131780407Y-92772996D01*
X131761677Y-92642731D01*
X131761676Y-92642730D01*
X131761676Y-92642725D01*
X131707002Y-92523004D01*
X131620812Y-92423536D01*
X131620811Y-92423535D01*
X131620812Y-92423535D01*
X131608303Y-92415497D01*
X131561809Y-92361842D01*
X131551704Y-92291568D01*
X131581197Y-92226987D01*
X131587313Y-92220417D01*
X132367734Y-91439996D01*
X159049593Y-91439996D01*
X159049593Y-91440003D01*
X159068322Y-91570268D01*
X159068324Y-91570275D01*
X159122998Y-91689996D01*
X159209188Y-91789464D01*
X159319909Y-91860620D01*
X159446193Y-91897700D01*
X159577807Y-91897700D01*
X159704091Y-91860620D01*
X159814812Y-91789464D01*
X159901002Y-91689996D01*
X159955676Y-91570275D01*
X159974407Y-91440000D01*
X159974407Y-91439996D01*
X159955677Y-91309731D01*
X159955676Y-91309730D01*
X159955676Y-91309725D01*
X159901002Y-91190004D01*
X159814812Y-91090536D01*
X159814811Y-91090535D01*
X159741633Y-91043507D01*
X159704091Y-91019380D01*
X159577807Y-90982300D01*
X159446193Y-90982300D01*
X159319911Y-91019379D01*
X159319907Y-91019381D01*
X159209188Y-91090535D01*
X159122999Y-91190002D01*
X159068324Y-91309724D01*
X159068322Y-91309731D01*
X159049593Y-91439996D01*
X132367734Y-91439996D01*
X136826127Y-86981605D01*
X136888439Y-86947579D01*
X136915222Y-86944700D01*
X137743993Y-86944700D01*
X137812114Y-86964702D01*
X137920909Y-87034620D01*
X138047193Y-87071700D01*
X138178807Y-87071700D01*
X138305091Y-87034620D01*
X138415812Y-86963464D01*
X138502002Y-86863996D01*
X138556676Y-86744275D01*
X138568553Y-86661663D01*
X138590322Y-86613996D01*
X141015593Y-86613996D01*
X141015593Y-86614003D01*
X141034322Y-86744268D01*
X141034324Y-86744274D01*
X141034324Y-86744275D01*
X141088998Y-86863996D01*
X141175188Y-86963464D01*
X141285909Y-87034620D01*
X141412193Y-87071700D01*
X141543807Y-87071700D01*
X141670091Y-87034620D01*
X141780812Y-86963464D01*
X141867002Y-86863996D01*
X141921676Y-86744275D01*
X141921953Y-86742344D01*
X141940407Y-86614003D01*
X141940407Y-86613996D01*
X141921677Y-86483731D01*
X141921676Y-86483730D01*
X141921676Y-86483725D01*
X141867002Y-86364004D01*
X141780812Y-86264536D01*
X141780811Y-86264535D01*
X141699240Y-86212113D01*
X141670091Y-86193380D01*
X141543807Y-86156300D01*
X141412193Y-86156300D01*
X141285911Y-86193379D01*
X141285907Y-86193381D01*
X141175188Y-86264535D01*
X141088999Y-86364002D01*
X141034324Y-86483724D01*
X141034322Y-86483731D01*
X141015593Y-86613996D01*
X138590322Y-86613996D01*
X138598045Y-86597086D01*
X138604161Y-86590517D01*
X141916395Y-83278285D01*
X141978707Y-83244259D01*
X142005490Y-83241380D01*
X149407595Y-83241380D01*
X149475716Y-83261382D01*
X149522209Y-83315038D01*
X149532312Y-83385308D01*
X149531445Y-83391343D01*
X149501945Y-83455921D01*
X149495824Y-83462494D01*
X147981923Y-84976396D01*
X147919613Y-85010420D01*
X147892830Y-85013300D01*
X144228462Y-85013300D01*
X144144357Y-85035835D01*
X144144349Y-85035838D01*
X144068946Y-85079372D01*
X144038160Y-85110158D01*
X144007374Y-85140945D01*
X144007372Y-85140947D01*
X140711425Y-88436895D01*
X140649113Y-88470921D01*
X140622330Y-88473800D01*
X140618693Y-88473800D01*
X140492411Y-88510879D01*
X140492407Y-88510881D01*
X140381688Y-88582035D01*
X140295499Y-88681502D01*
X140240824Y-88801224D01*
X140240822Y-88801231D01*
X140222093Y-88931496D01*
X140222093Y-88931503D01*
X140240822Y-89061768D01*
X140240824Y-89061774D01*
X140240824Y-89061775D01*
X140295498Y-89181496D01*
X140381688Y-89280964D01*
X140492409Y-89352120D01*
X140618693Y-89389200D01*
X140750307Y-89389200D01*
X140876591Y-89352120D01*
X140987312Y-89280964D01*
X141073502Y-89181496D01*
X141128176Y-89061775D01*
X141140053Y-88979163D01*
X141169545Y-88914586D01*
X141175661Y-88908017D01*
X143469683Y-86613996D01*
X144380593Y-86613996D01*
X144380593Y-86614003D01*
X144399322Y-86744268D01*
X144399324Y-86744274D01*
X144399324Y-86744275D01*
X144453998Y-86863996D01*
X144540188Y-86963464D01*
X144650909Y-87034620D01*
X144777193Y-87071700D01*
X144908807Y-87071700D01*
X145035091Y-87034620D01*
X145145812Y-86963464D01*
X145232002Y-86863996D01*
X145286676Y-86744275D01*
X145286953Y-86742344D01*
X145305407Y-86614003D01*
X145305407Y-86613996D01*
X163430593Y-86613996D01*
X163430593Y-86614003D01*
X163449322Y-86744268D01*
X163449324Y-86744274D01*
X163449324Y-86744275D01*
X163503998Y-86863996D01*
X163590188Y-86963464D01*
X163700909Y-87034620D01*
X163827193Y-87071700D01*
X163958807Y-87071700D01*
X164085091Y-87034620D01*
X164195812Y-86963464D01*
X164282002Y-86863996D01*
X164336676Y-86744275D01*
X164336953Y-86742344D01*
X164355407Y-86614003D01*
X164355407Y-86613996D01*
X164336677Y-86483731D01*
X164336676Y-86483730D01*
X164336676Y-86483725D01*
X164282002Y-86364004D01*
X164195812Y-86264536D01*
X164195811Y-86264535D01*
X164114240Y-86212113D01*
X164085091Y-86193380D01*
X163958807Y-86156300D01*
X163827193Y-86156300D01*
X163700911Y-86193379D01*
X163700907Y-86193381D01*
X163590188Y-86264535D01*
X163503999Y-86364002D01*
X163449324Y-86483724D01*
X163449322Y-86483731D01*
X163430593Y-86613996D01*
X145305407Y-86613996D01*
X145286677Y-86483731D01*
X145286676Y-86483730D01*
X145286676Y-86483725D01*
X145232002Y-86364004D01*
X145145812Y-86264536D01*
X145145811Y-86264535D01*
X145064240Y-86212113D01*
X145035091Y-86193380D01*
X144908807Y-86156300D01*
X144777193Y-86156300D01*
X144650911Y-86193379D01*
X144650907Y-86193381D01*
X144540188Y-86264535D01*
X144453999Y-86364002D01*
X144399324Y-86483724D01*
X144399322Y-86483731D01*
X144380593Y-86613996D01*
X143469683Y-86613996D01*
X144372075Y-85711605D01*
X144434387Y-85677579D01*
X144461170Y-85674700D01*
X148125536Y-85674700D01*
X148125537Y-85674700D01*
X148125538Y-85674700D01*
X148209646Y-85652164D01*
X148266228Y-85619496D01*
X148285054Y-85608627D01*
X148356991Y-85536690D01*
X148356997Y-85536681D01*
X148524182Y-85369496D01*
X157271593Y-85369496D01*
X157271593Y-85369503D01*
X157290322Y-85499768D01*
X157290324Y-85499775D01*
X157344998Y-85619496D01*
X157431188Y-85718964D01*
X157541909Y-85790120D01*
X157668193Y-85827200D01*
X157799807Y-85827200D01*
X157926091Y-85790120D01*
X158036812Y-85718964D01*
X158123002Y-85619496D01*
X158177676Y-85499775D01*
X158177953Y-85497844D01*
X158196407Y-85369503D01*
X158196407Y-85369496D01*
X158177677Y-85239231D01*
X158177676Y-85239230D01*
X158177676Y-85239225D01*
X158123002Y-85119504D01*
X158036812Y-85020036D01*
X158036811Y-85020035D01*
X157968905Y-84976395D01*
X157926091Y-84948880D01*
X157799807Y-84911800D01*
X157668193Y-84911800D01*
X157541911Y-84948879D01*
X157541907Y-84948881D01*
X157431188Y-85020035D01*
X157344999Y-85119502D01*
X157290324Y-85239224D01*
X157290322Y-85239231D01*
X157271593Y-85369496D01*
X148524182Y-85369496D01*
X149960077Y-83933602D01*
X150022387Y-83899579D01*
X150049170Y-83896700D01*
X150052807Y-83896700D01*
X150179091Y-83859620D01*
X150289812Y-83788464D01*
X150376002Y-83688996D01*
X150430676Y-83569275D01*
X150446974Y-83455921D01*
X150449407Y-83439003D01*
X150449407Y-83438996D01*
X150441688Y-83385312D01*
X150451791Y-83315038D01*
X150498284Y-83261382D01*
X150566404Y-83241380D01*
X165130980Y-83241380D01*
X165199101Y-83261382D01*
X165245594Y-83315038D01*
X165256980Y-83367380D01*
X165256980Y-85161376D01*
X165279319Y-85244747D01*
X165279515Y-85245480D01*
X165279518Y-85245488D01*
X165323052Y-85320892D01*
X165391800Y-85389640D01*
X165391814Y-85389652D01*
X171273395Y-91271233D01*
X171307421Y-91333545D01*
X171310300Y-91360328D01*
X171310300Y-101489724D01*
X171290298Y-101557845D01*
X171279524Y-101572236D01*
X171252000Y-101603999D01*
X171197324Y-101723724D01*
X171197322Y-101723731D01*
X171178593Y-101853996D01*
X171178593Y-101854003D01*
X171197322Y-101984268D01*
X171197324Y-101984275D01*
X171251998Y-102103996D01*
X171338188Y-102203464D01*
X171448909Y-102274620D01*
X171575193Y-102311700D01*
X171706807Y-102311700D01*
X171833091Y-102274620D01*
X171943812Y-102203464D01*
X172030002Y-102103996D01*
X172084676Y-101984275D01*
X172085198Y-101980642D01*
X172103407Y-101854003D01*
X172103407Y-101853996D01*
X172084677Y-101723731D01*
X172084676Y-101723726D01*
X172084676Y-101723725D01*
X172030002Y-101604004D01*
X172030000Y-101604002D01*
X172029999Y-101603999D01*
X172002476Y-101572236D01*
X171972982Y-101507656D01*
X171971700Y-101489724D01*
X171971700Y-91127622D01*
X171971700Y-91127620D01*
X171949164Y-91043512D01*
X171935231Y-91019379D01*
X171905627Y-90968103D01*
X171839666Y-90902142D01*
X171839643Y-90902121D01*
X167149635Y-86212113D01*
X167115609Y-86149801D01*
X167120674Y-86078986D01*
X167163221Y-86022150D01*
X167170597Y-86017028D01*
X167180812Y-86010464D01*
X167267002Y-85910996D01*
X167279810Y-85882948D01*
X167326297Y-85829297D01*
X167394417Y-85809292D01*
X167462539Y-85829292D01*
X167483517Y-85846197D01*
X175166715Y-93529395D01*
X175200741Y-93591707D01*
X175203620Y-93618490D01*
X175203620Y-95111300D01*
X175183618Y-95179421D01*
X175129962Y-95225914D01*
X175077620Y-95237300D01*
X174940193Y-95237300D01*
X174813911Y-95274379D01*
X174813907Y-95274381D01*
X174703188Y-95345535D01*
X174616999Y-95445002D01*
X174562324Y-95564724D01*
X174562322Y-95564731D01*
X174543593Y-95694996D01*
X174543593Y-95695003D01*
X174562322Y-95825268D01*
X174562324Y-95825275D01*
X174616998Y-95944996D01*
X174616999Y-95944997D01*
X174644523Y-95976761D01*
X174674017Y-96041342D01*
X174675300Y-96059275D01*
X174675300Y-101489724D01*
X174655298Y-101557845D01*
X174644524Y-101572236D01*
X174617000Y-101603999D01*
X174562324Y-101723724D01*
X174562322Y-101723731D01*
X174550446Y-101806331D01*
X174520953Y-101870912D01*
X174514826Y-101877493D01*
X174243127Y-102149192D01*
X174243125Y-102149194D01*
X174221040Y-102171279D01*
X174181552Y-102210766D01*
X174138018Y-102286169D01*
X174138015Y-102286177D01*
X174130902Y-102312725D01*
X174115480Y-102370282D01*
X174115480Y-107496718D01*
X174124232Y-107529381D01*
X174138015Y-107580822D01*
X174138018Y-107580830D01*
X174181552Y-107656234D01*
X174250300Y-107724982D01*
X174250314Y-107724994D01*
X174514824Y-107989504D01*
X174548850Y-108051816D01*
X174550446Y-108060667D01*
X174562322Y-108143268D01*
X174562324Y-108143275D01*
X174616998Y-108262996D01*
X174703188Y-108362464D01*
X174813909Y-108433620D01*
X174940193Y-108470700D01*
X175071807Y-108470700D01*
X175198091Y-108433620D01*
X175308812Y-108362464D01*
X175395002Y-108262996D01*
X175449676Y-108143275D01*
X175458735Y-108080268D01*
X175468407Y-108013003D01*
X175468407Y-108012996D01*
X175449677Y-107882731D01*
X175449676Y-107882730D01*
X175449676Y-107882725D01*
X175395002Y-107763004D01*
X175308812Y-107663536D01*
X175308811Y-107663535D01*
X175210780Y-107600535D01*
X175198091Y-107592380D01*
X175158741Y-107580826D01*
X175071807Y-107555300D01*
X175068170Y-107555300D01*
X175064678Y-107554274D01*
X175062886Y-107554017D01*
X175062923Y-107553759D01*
X175000049Y-107535298D01*
X174979075Y-107518395D01*
X174813785Y-107353105D01*
X174779759Y-107290793D01*
X174776880Y-107264010D01*
X174776880Y-105517200D01*
X174796882Y-105449079D01*
X174850538Y-105402586D01*
X174902880Y-105391200D01*
X175040307Y-105391200D01*
X175166591Y-105354120D01*
X175277312Y-105282964D01*
X175363502Y-105183496D01*
X175418176Y-105063775D01*
X175436907Y-104933500D01*
X175436907Y-104933496D01*
X175418177Y-104803231D01*
X175418176Y-104803230D01*
X175418176Y-104803225D01*
X175363502Y-104683504D01*
X175277312Y-104584036D01*
X175277311Y-104584035D01*
X175221951Y-104548458D01*
X175166591Y-104512880D01*
X175040307Y-104475800D01*
X174908693Y-104475800D01*
X174902880Y-104475800D01*
X174834759Y-104455798D01*
X174788266Y-104402142D01*
X174776880Y-104349800D01*
X174776880Y-103250996D01*
X176258593Y-103250996D01*
X176258593Y-103251003D01*
X176277322Y-103381268D01*
X176277324Y-103381275D01*
X176331998Y-103500996D01*
X176418188Y-103600464D01*
X176528909Y-103671620D01*
X176655193Y-103708700D01*
X176786807Y-103708700D01*
X176913091Y-103671620D01*
X177023812Y-103600464D01*
X177110002Y-103500996D01*
X177164676Y-103381275D01*
X177183407Y-103251000D01*
X177183407Y-103250996D01*
X177164677Y-103120731D01*
X177164676Y-103120730D01*
X177164676Y-103120725D01*
X177110002Y-103001004D01*
X177023812Y-102901536D01*
X177023811Y-102901535D01*
X176968451Y-102865958D01*
X176913091Y-102830380D01*
X176786807Y-102793300D01*
X176655193Y-102793300D01*
X176528911Y-102830379D01*
X176528907Y-102830381D01*
X176418188Y-102901535D01*
X176331999Y-103001002D01*
X176277324Y-103120724D01*
X176277322Y-103120731D01*
X176258593Y-103250996D01*
X174776880Y-103250996D01*
X174776880Y-102602990D01*
X174796882Y-102534869D01*
X174813785Y-102513895D01*
X174979075Y-102348605D01*
X175041387Y-102314579D01*
X175068170Y-102311700D01*
X175071807Y-102311700D01*
X175198091Y-102274620D01*
X175308812Y-102203464D01*
X175395002Y-102103996D01*
X175449676Y-101984275D01*
X175450198Y-101980642D01*
X175468407Y-101854003D01*
X175468407Y-101853996D01*
X175449677Y-101723731D01*
X175449676Y-101723726D01*
X175449676Y-101723725D01*
X175395002Y-101604004D01*
X175395000Y-101604002D01*
X175394999Y-101603999D01*
X175367476Y-101572236D01*
X175337982Y-101507656D01*
X175336700Y-101489724D01*
X175336700Y-99591570D01*
X175356702Y-99523449D01*
X175410358Y-99476956D01*
X175480632Y-99466852D01*
X175545212Y-99496346D01*
X175551795Y-99502475D01*
X177879824Y-101830504D01*
X177913850Y-101892816D01*
X177915446Y-101901667D01*
X177927322Y-101984268D01*
X177927324Y-101984275D01*
X177981998Y-102103996D01*
X178068188Y-102203464D01*
X178178909Y-102274620D01*
X178305193Y-102311700D01*
X178436807Y-102311700D01*
X178563091Y-102274620D01*
X178673812Y-102203464D01*
X178760002Y-102103996D01*
X178814676Y-101984275D01*
X178815198Y-101980642D01*
X178833407Y-101854003D01*
X178833407Y-101853996D01*
X178814677Y-101723731D01*
X178814676Y-101723726D01*
X178814676Y-101723725D01*
X178760002Y-101604004D01*
X178673812Y-101504536D01*
X178673811Y-101504535D01*
X178618451Y-101468958D01*
X178563091Y-101433380D01*
X178436807Y-101396300D01*
X178433170Y-101396300D01*
X178429678Y-101395274D01*
X178427886Y-101395017D01*
X178427923Y-101394759D01*
X178365049Y-101376298D01*
X178344075Y-101359395D01*
X175901925Y-98917245D01*
X175867899Y-98854933D01*
X175865020Y-98828150D01*
X175865020Y-93385784D01*
X175865020Y-93385782D01*
X175842484Y-93301674D01*
X175838053Y-93294000D01*
X175798947Y-93226265D01*
X175732986Y-93160304D01*
X175732963Y-93160283D01*
X166672775Y-84100095D01*
X166638749Y-84037783D01*
X166643814Y-83966968D01*
X166672772Y-83921906D01*
X166836999Y-83757679D01*
X166837009Y-83757672D01*
X166908947Y-83685734D01*
X166925475Y-83657106D01*
X166952484Y-83610326D01*
X166975020Y-83526218D01*
X166975020Y-83184996D01*
X171749593Y-83184996D01*
X171749593Y-83185003D01*
X171768322Y-83315268D01*
X171768324Y-83315275D01*
X171822998Y-83434996D01*
X171909188Y-83534464D01*
X172019909Y-83605620D01*
X172146193Y-83642700D01*
X172277807Y-83642700D01*
X172404091Y-83605620D01*
X172514812Y-83534464D01*
X172601002Y-83434996D01*
X172655676Y-83315275D01*
X172660992Y-83278300D01*
X172674407Y-83185003D01*
X172674407Y-83184996D01*
X172655677Y-83054731D01*
X172655676Y-83054730D01*
X172655676Y-83054725D01*
X172601002Y-82935004D01*
X172514812Y-82835536D01*
X172514811Y-82835535D01*
X172453948Y-82796421D01*
X172404091Y-82764380D01*
X172277807Y-82727300D01*
X172146193Y-82727300D01*
X172019911Y-82764379D01*
X172019907Y-82764381D01*
X171909188Y-82835535D01*
X171822999Y-82935002D01*
X171768324Y-83054724D01*
X171768322Y-83054731D01*
X171749593Y-83184996D01*
X166975020Y-83184996D01*
X166975020Y-82350624D01*
X166960383Y-82295996D01*
X168701593Y-82295996D01*
X168701593Y-82296003D01*
X168720322Y-82426268D01*
X168720324Y-82426275D01*
X168774998Y-82545996D01*
X168861188Y-82645464D01*
X168971909Y-82716620D01*
X169098193Y-82753700D01*
X169229807Y-82753700D01*
X169356091Y-82716620D01*
X169466812Y-82645464D01*
X169553002Y-82545996D01*
X169607676Y-82426275D01*
X169616773Y-82363004D01*
X169626407Y-82296003D01*
X169626407Y-82295996D01*
X169607677Y-82165731D01*
X169607676Y-82165730D01*
X169607676Y-82165725D01*
X169553002Y-82046004D01*
X169466812Y-81946536D01*
X169466811Y-81946535D01*
X169411451Y-81910958D01*
X169356091Y-81875380D01*
X169229807Y-81838300D01*
X169098193Y-81838300D01*
X168971911Y-81875379D01*
X168971907Y-81875381D01*
X168861188Y-81946535D01*
X168774999Y-82046002D01*
X168720324Y-82165724D01*
X168720322Y-82165731D01*
X168701593Y-82295996D01*
X166960383Y-82295996D01*
X166952484Y-82266516D01*
X166944016Y-82251849D01*
X166908947Y-82191107D01*
X166842986Y-82125146D01*
X166842963Y-82125125D01*
X165801972Y-81084134D01*
X165801960Y-81084120D01*
X165733212Y-81015372D01*
X165657808Y-80971838D01*
X165657806Y-80971837D01*
X165657804Y-80971836D01*
X165624812Y-80962996D01*
X166415593Y-80962996D01*
X166415593Y-80963003D01*
X166434322Y-81093268D01*
X166434324Y-81093275D01*
X166488998Y-81212996D01*
X166575188Y-81312464D01*
X166685909Y-81383620D01*
X166812193Y-81420700D01*
X166943807Y-81420700D01*
X167070091Y-81383620D01*
X167180812Y-81312464D01*
X167267002Y-81212996D01*
X167321676Y-81093275D01*
X167334364Y-81005031D01*
X167340407Y-80963003D01*
X167340407Y-80962996D01*
X167321677Y-80832731D01*
X167321676Y-80832730D01*
X167321676Y-80832725D01*
X167267002Y-80713004D01*
X167180812Y-80613536D01*
X167180811Y-80613535D01*
X167125451Y-80577958D01*
X167070091Y-80542380D01*
X166943807Y-80505300D01*
X166812193Y-80505300D01*
X166685911Y-80542379D01*
X166685907Y-80542381D01*
X166575188Y-80613535D01*
X166488999Y-80713002D01*
X166434324Y-80832724D01*
X166434322Y-80832731D01*
X166415593Y-80962996D01*
X165624812Y-80962996D01*
X165573696Y-80949300D01*
X162536022Y-80949300D01*
X162467901Y-80929298D01*
X162421408Y-80875642D01*
X162411304Y-80805368D01*
X162440798Y-80740788D01*
X162500524Y-80702404D01*
X162505654Y-80700897D01*
X162561091Y-80684620D01*
X162671812Y-80613464D01*
X162758002Y-80513996D01*
X162812676Y-80394275D01*
X162822676Y-80324724D01*
X162831407Y-80264003D01*
X162831407Y-80263996D01*
X162812677Y-80133731D01*
X162812676Y-80133730D01*
X162812676Y-80133725D01*
X162758002Y-80014004D01*
X162671812Y-79914536D01*
X162671811Y-79914535D01*
X162616451Y-79878958D01*
X162561091Y-79843380D01*
X162434807Y-79806300D01*
X162303193Y-79806300D01*
X162176911Y-79843379D01*
X162176907Y-79843381D01*
X162066188Y-79914535D01*
X161979999Y-80014002D01*
X161925324Y-80133724D01*
X161925322Y-80133731D01*
X161906593Y-80263996D01*
X161906593Y-80264003D01*
X161925322Y-80394268D01*
X161925324Y-80394275D01*
X161979998Y-80513996D01*
X162066188Y-80613464D01*
X162176909Y-80684620D01*
X162230092Y-80700235D01*
X162237476Y-80702404D01*
X162297202Y-80740787D01*
X162326695Y-80805368D01*
X162316592Y-80875642D01*
X162270099Y-80929298D01*
X162201978Y-80949300D01*
X141931213Y-80949300D01*
X141863092Y-80929298D01*
X141816599Y-80875642D01*
X141806495Y-80805368D01*
X141835989Y-80740788D01*
X141835989Y-80740787D01*
X141841655Y-80734247D01*
X141867002Y-80704996D01*
X141921676Y-80585275D01*
X141927843Y-80542381D01*
X141940407Y-80455003D01*
X141940407Y-80454996D01*
X141921677Y-80324731D01*
X141921676Y-80324730D01*
X141921676Y-80324725D01*
X141867002Y-80205004D01*
X141780812Y-80105536D01*
X141780811Y-80105535D01*
X141710423Y-80060300D01*
X141670091Y-80034380D01*
X141543807Y-79997300D01*
X141412193Y-79997300D01*
X141285911Y-80034379D01*
X141285907Y-80034381D01*
X141175188Y-80105535D01*
X141088999Y-80205002D01*
X141034324Y-80324724D01*
X141034322Y-80324731D01*
X141015593Y-80454996D01*
X141015593Y-80455003D01*
X141034322Y-80585268D01*
X141034324Y-80585275D01*
X141088998Y-80704996D01*
X141088999Y-80704997D01*
X141120011Y-80740787D01*
X141149504Y-80805368D01*
X141139401Y-80875642D01*
X141092908Y-80929298D01*
X141024787Y-80949300D01*
X139973461Y-80949300D01*
X139889356Y-80971835D01*
X139889348Y-80971838D01*
X139813945Y-81015372D01*
X139783159Y-81046158D01*
X139752373Y-81076945D01*
X139752371Y-81076947D01*
X137218989Y-83610330D01*
X134709924Y-86119395D01*
X134647612Y-86153421D01*
X134620829Y-86156300D01*
X134617192Y-86156300D01*
X134490910Y-86193379D01*
X134490906Y-86193381D01*
X134382113Y-86263298D01*
X134313992Y-86283300D01*
X133334304Y-86283300D01*
X133250199Y-86305835D01*
X133250191Y-86305838D01*
X133174788Y-86349372D01*
X133144002Y-86380158D01*
X133113216Y-86410945D01*
X133113214Y-86410947D01*
X121653947Y-97870214D01*
X121653945Y-97870216D01*
X121623158Y-97901002D01*
X121592372Y-97931788D01*
X121548838Y-98007191D01*
X121548835Y-98007199D01*
X121526300Y-98091304D01*
X121526300Y-101489724D01*
X121506298Y-101557845D01*
X121495524Y-101572236D01*
X121468000Y-101603999D01*
X121413324Y-101723724D01*
X121413322Y-101723731D01*
X121394593Y-101853996D01*
X120485314Y-101853996D01*
X120485314Y-94648066D01*
X120505316Y-94579945D01*
X120522219Y-94558971D01*
X126174376Y-88906814D01*
X126174383Y-88906807D01*
X126179853Y-88897333D01*
X126224942Y-88819235D01*
X126236623Y-88775642D01*
X126251115Y-88721561D01*
X126251115Y-88620440D01*
X126251115Y-88612723D01*
X126251114Y-88612705D01*
X126251114Y-86613996D01*
X127490593Y-86613996D01*
X127490593Y-86614003D01*
X127509322Y-86744268D01*
X127509324Y-86744274D01*
X127509324Y-86744275D01*
X127563998Y-86863996D01*
X127650188Y-86963464D01*
X127760909Y-87034620D01*
X127887193Y-87071700D01*
X128018807Y-87071700D01*
X128145091Y-87034620D01*
X128255812Y-86963464D01*
X128342002Y-86863996D01*
X128396676Y-86744275D01*
X128396953Y-86742344D01*
X128415407Y-86614003D01*
X128415407Y-86613996D01*
X130855593Y-86613996D01*
X130855593Y-86614003D01*
X130874322Y-86744268D01*
X130874324Y-86744274D01*
X130874324Y-86744275D01*
X130928998Y-86863996D01*
X131015188Y-86963464D01*
X131125909Y-87034620D01*
X131252193Y-87071700D01*
X131383807Y-87071700D01*
X131510091Y-87034620D01*
X131620812Y-86963464D01*
X131707002Y-86863996D01*
X131761676Y-86744275D01*
X131761953Y-86742344D01*
X131780407Y-86614003D01*
X131780407Y-86613996D01*
X131761677Y-86483731D01*
X131761676Y-86483730D01*
X131761676Y-86483725D01*
X131707002Y-86364004D01*
X131620812Y-86264536D01*
X131620811Y-86264535D01*
X131539240Y-86212113D01*
X131510091Y-86193380D01*
X131383807Y-86156300D01*
X131252193Y-86156300D01*
X131125911Y-86193379D01*
X131125907Y-86193381D01*
X131015188Y-86264535D01*
X130928999Y-86364002D01*
X130874324Y-86483724D01*
X130874322Y-86483731D01*
X130855593Y-86613996D01*
X128415407Y-86613996D01*
X128396677Y-86483731D01*
X128396676Y-86483730D01*
X128396676Y-86483725D01*
X128342002Y-86364004D01*
X128255812Y-86264536D01*
X128255811Y-86264535D01*
X128174240Y-86212113D01*
X128145091Y-86193380D01*
X128018807Y-86156300D01*
X127887193Y-86156300D01*
X127760911Y-86193379D01*
X127760907Y-86193381D01*
X127650188Y-86264535D01*
X127563999Y-86364002D01*
X127509324Y-86483724D01*
X127509322Y-86483731D01*
X127490593Y-86613996D01*
X126251114Y-86613996D01*
X126251114Y-83534496D01*
X130887093Y-83534496D01*
X130887093Y-83534503D01*
X130905822Y-83664768D01*
X130905824Y-83664775D01*
X130960498Y-83784496D01*
X131046688Y-83883964D01*
X131157409Y-83955120D01*
X131283693Y-83992200D01*
X131415307Y-83992200D01*
X131541591Y-83955120D01*
X131652312Y-83883964D01*
X131738502Y-83784496D01*
X131793176Y-83664775D01*
X131801005Y-83610322D01*
X131811907Y-83534503D01*
X131811907Y-83534496D01*
X131793177Y-83404231D01*
X131793176Y-83404230D01*
X131793176Y-83404225D01*
X131738502Y-83284504D01*
X131652312Y-83185036D01*
X131652311Y-83185035D01*
X131596951Y-83149458D01*
X131541591Y-83113880D01*
X131541097Y-83113735D01*
X131415307Y-83076800D01*
X131283693Y-83076800D01*
X131157411Y-83113879D01*
X131157407Y-83113881D01*
X131046688Y-83185035D01*
X130960499Y-83284502D01*
X130905824Y-83404224D01*
X130905822Y-83404231D01*
X130887093Y-83534496D01*
X126251114Y-83534496D01*
X126251114Y-80517996D01*
X130855593Y-80517996D01*
X130855593Y-80518003D01*
X130874322Y-80648268D01*
X130874324Y-80648275D01*
X130928998Y-80767996D01*
X131015188Y-80867464D01*
X131125909Y-80938620D01*
X131252193Y-80975700D01*
X131383807Y-80975700D01*
X131510091Y-80938620D01*
X131620812Y-80867464D01*
X131707002Y-80767996D01*
X131761676Y-80648275D01*
X131770735Y-80585268D01*
X131780407Y-80518003D01*
X131780407Y-80517996D01*
X131761677Y-80387731D01*
X131761676Y-80387730D01*
X131761676Y-80387725D01*
X131707002Y-80268004D01*
X131620812Y-80168536D01*
X131620811Y-80168535D01*
X131522780Y-80105535D01*
X131510091Y-80097380D01*
X131383807Y-80060300D01*
X131252193Y-80060300D01*
X131125911Y-80097379D01*
X131125907Y-80097381D01*
X131015188Y-80168535D01*
X130928999Y-80268002D01*
X130874324Y-80387724D01*
X130874322Y-80387731D01*
X130855593Y-80517996D01*
X126251114Y-80517996D01*
X126251114Y-78739999D01*
X129458255Y-78739999D01*
X129458255Y-78740000D01*
X129478349Y-78892635D01*
X129478350Y-78892637D01*
X129537266Y-79034873D01*
X129630987Y-79157013D01*
X129753127Y-79250734D01*
X129895363Y-79309650D01*
X130048000Y-79329745D01*
X130200637Y-79309650D01*
X130342873Y-79250734D01*
X130465013Y-79157013D01*
X130558734Y-79034873D01*
X130617650Y-78892637D01*
X130637745Y-78740000D01*
X130637745Y-78739999D01*
X131998255Y-78739999D01*
X131998255Y-78740000D01*
X132018349Y-78892635D01*
X132018350Y-78892637D01*
X132077266Y-79034873D01*
X132170987Y-79157013D01*
X132293127Y-79250734D01*
X132435363Y-79309650D01*
X132588000Y-79329745D01*
X132740637Y-79309650D01*
X132882873Y-79250734D01*
X133005013Y-79157013D01*
X133098734Y-79034873D01*
X133157650Y-78892637D01*
X133177745Y-78740000D01*
X133177745Y-78739999D01*
X134538255Y-78739999D01*
X134538255Y-78740000D01*
X134558349Y-78892635D01*
X134558350Y-78892637D01*
X134617266Y-79034873D01*
X134710987Y-79157013D01*
X134833127Y-79250734D01*
X134975363Y-79309650D01*
X135128000Y-79329745D01*
X135280637Y-79309650D01*
X135422873Y-79250734D01*
X135545013Y-79157013D01*
X135638734Y-79034873D01*
X135697650Y-78892637D01*
X135717745Y-78740000D01*
X135717745Y-78739999D01*
X136183438Y-78739999D01*
X136183438Y-78740000D01*
X136203532Y-78892635D01*
X136203533Y-78892637D01*
X136262449Y-79034873D01*
X136356170Y-79157013D01*
X136478310Y-79250734D01*
X136620546Y-79309650D01*
X136773183Y-79329745D01*
X136925820Y-79309650D01*
X137068056Y-79250734D01*
X137190196Y-79157013D01*
X137283917Y-79034873D01*
X137342833Y-78892637D01*
X137362928Y-78740000D01*
X137362927Y-78739996D01*
X160256593Y-78739996D01*
X160256593Y-78740003D01*
X160275322Y-78870268D01*
X160275324Y-78870275D01*
X160329998Y-78989996D01*
X160416188Y-79089464D01*
X160526909Y-79160620D01*
X160653193Y-79197700D01*
X160784807Y-79197700D01*
X160911091Y-79160620D01*
X161021812Y-79089464D01*
X161108002Y-78989996D01*
X161162676Y-78870275D01*
X161181407Y-78740000D01*
X161181407Y-78739999D01*
X161181407Y-78739996D01*
X161906593Y-78739996D01*
X161906593Y-78740003D01*
X161925322Y-78870268D01*
X161925324Y-78870275D01*
X161979998Y-78989996D01*
X162066188Y-79089464D01*
X162176909Y-79160620D01*
X162303193Y-79197700D01*
X162434807Y-79197700D01*
X162561091Y-79160620D01*
X162671812Y-79089464D01*
X162758002Y-78989996D01*
X162812676Y-78870275D01*
X162831407Y-78740000D01*
X162831407Y-78739999D01*
X162831407Y-78739996D01*
X162812677Y-78609731D01*
X162812676Y-78609730D01*
X162812676Y-78609725D01*
X162758002Y-78490004D01*
X162671812Y-78390536D01*
X162671811Y-78390535D01*
X162616451Y-78354958D01*
X162561091Y-78319380D01*
X162434807Y-78282300D01*
X162303193Y-78282300D01*
X162176911Y-78319379D01*
X162176907Y-78319381D01*
X162066188Y-78390535D01*
X161979999Y-78490002D01*
X161925324Y-78609724D01*
X161925322Y-78609731D01*
X161906593Y-78739996D01*
X161181407Y-78739996D01*
X161162677Y-78609731D01*
X161162676Y-78609730D01*
X161162676Y-78609725D01*
X161108002Y-78490004D01*
X161021812Y-78390536D01*
X161021811Y-78390535D01*
X160966451Y-78354958D01*
X160911091Y-78319380D01*
X160784807Y-78282300D01*
X160653193Y-78282300D01*
X160526911Y-78319379D01*
X160526907Y-78319381D01*
X160416188Y-78390535D01*
X160329999Y-78490002D01*
X160275324Y-78609724D01*
X160275322Y-78609731D01*
X160256593Y-78739996D01*
X137362927Y-78739996D01*
X137342833Y-78587364D01*
X137302505Y-78490002D01*
X137283917Y-78445128D01*
X137190196Y-78322987D01*
X137068056Y-78229266D01*
X136925820Y-78170350D01*
X136925818Y-78170349D01*
X136773183Y-78150255D01*
X136620547Y-78170349D01*
X136478312Y-78229265D01*
X136478304Y-78229270D01*
X136356169Y-78322986D01*
X136262453Y-78445121D01*
X136262448Y-78445129D01*
X136203532Y-78587364D01*
X136183438Y-78739999D01*
X135717745Y-78739999D01*
X135717744Y-78739996D01*
X135697650Y-78587364D01*
X135657322Y-78490002D01*
X135638734Y-78445128D01*
X135545013Y-78322987D01*
X135422873Y-78229266D01*
X135280637Y-78170350D01*
X135280635Y-78170349D01*
X135128000Y-78150255D01*
X134975364Y-78170349D01*
X134833129Y-78229265D01*
X134833121Y-78229270D01*
X134710986Y-78322986D01*
X134617270Y-78445121D01*
X134617265Y-78445129D01*
X134558349Y-78587364D01*
X134538255Y-78739999D01*
X133177745Y-78739999D01*
X133177744Y-78739996D01*
X133157650Y-78587364D01*
X133117322Y-78490002D01*
X133098734Y-78445128D01*
X133005013Y-78322987D01*
X132882873Y-78229266D01*
X132740637Y-78170350D01*
X132740635Y-78170349D01*
X132588000Y-78150255D01*
X132435364Y-78170349D01*
X132293129Y-78229265D01*
X132293121Y-78229270D01*
X132170986Y-78322986D01*
X132077270Y-78445121D01*
X132077265Y-78445129D01*
X132018349Y-78587364D01*
X131998255Y-78739999D01*
X130637745Y-78739999D01*
X130637744Y-78739996D01*
X130617650Y-78587364D01*
X130577322Y-78490002D01*
X130558734Y-78445128D01*
X130465013Y-78322987D01*
X130342873Y-78229266D01*
X130200637Y-78170350D01*
X130200635Y-78170349D01*
X130048000Y-78150255D01*
X129895364Y-78170349D01*
X129753129Y-78229265D01*
X129753121Y-78229270D01*
X129630986Y-78322986D01*
X129537270Y-78445121D01*
X129537265Y-78445129D01*
X129478349Y-78587364D01*
X129458255Y-78739999D01*
X126251114Y-78739999D01*
X126251114Y-77954241D01*
X126271116Y-77886120D01*
X126324772Y-77839627D01*
X126377114Y-77828241D01*
X137246031Y-77828241D01*
X137246034Y-77828241D01*
X137343708Y-77802069D01*
X137431280Y-77751510D01*
X138152759Y-77030029D01*
X138215070Y-76996006D01*
X138285885Y-77001070D01*
X138342721Y-77043617D01*
X138366774Y-77102674D01*
X138368349Y-77114633D01*
X138368350Y-77114637D01*
X138427266Y-77256873D01*
X138520987Y-77379013D01*
X138643127Y-77472734D01*
X138785363Y-77531650D01*
X138938000Y-77551745D01*
X139090637Y-77531650D01*
X139232873Y-77472734D01*
X139355013Y-77379013D01*
X139448734Y-77256873D01*
X139507650Y-77114637D01*
X139527745Y-76962000D01*
X139507650Y-76809363D01*
X139448734Y-76667128D01*
X139355013Y-76544987D01*
X139232873Y-76451266D01*
X139232871Y-76451265D01*
X139090633Y-76392348D01*
X139078674Y-76390774D01*
X139013748Y-76362050D01*
X138974659Y-76302783D01*
X138973816Y-76231792D01*
X139006028Y-76176760D01*
X139744792Y-75437996D01*
X148381593Y-75437996D01*
X148381593Y-75438003D01*
X148400322Y-75568268D01*
X148400324Y-75568275D01*
X148454998Y-75687996D01*
X148541188Y-75787464D01*
X148651909Y-75858620D01*
X148778193Y-75895700D01*
X148909807Y-75895700D01*
X149036091Y-75858620D01*
X149146812Y-75787464D01*
X149233002Y-75687996D01*
X149237386Y-75678395D01*
X149283877Y-75624740D01*
X149351997Y-75604736D01*
X149420118Y-75624736D01*
X149466611Y-75678390D01*
X149470998Y-75687996D01*
X149557188Y-75787464D01*
X149667909Y-75858620D01*
X149794193Y-75895700D01*
X149925807Y-75895700D01*
X150052091Y-75858620D01*
X150162812Y-75787464D01*
X150249002Y-75687996D01*
X150253386Y-75678395D01*
X150299877Y-75624740D01*
X150367997Y-75604736D01*
X150436118Y-75624736D01*
X150482611Y-75678390D01*
X150486998Y-75687996D01*
X150573188Y-75787464D01*
X150683909Y-75858620D01*
X150810193Y-75895700D01*
X150941807Y-75895700D01*
X151068091Y-75858620D01*
X151178812Y-75787464D01*
X151265002Y-75687996D01*
X151319676Y-75568275D01*
X151338407Y-75438000D01*
X151338407Y-75437996D01*
X151319677Y-75307731D01*
X151319676Y-75307730D01*
X151319676Y-75307725D01*
X151265002Y-75188004D01*
X151178812Y-75088536D01*
X151178811Y-75088535D01*
X151123451Y-75052958D01*
X151068091Y-75017380D01*
X150941807Y-74980300D01*
X150810193Y-74980300D01*
X150683911Y-75017379D01*
X150683907Y-75017381D01*
X150573188Y-75088535D01*
X150486999Y-75188002D01*
X150486998Y-75188003D01*
X150486998Y-75188004D01*
X150482612Y-75197606D01*
X150436121Y-75251261D01*
X150368000Y-75271263D01*
X150299880Y-75251261D01*
X150253387Y-75197606D01*
X150249002Y-75188004D01*
X150162812Y-75088536D01*
X150162811Y-75088535D01*
X150107451Y-75052958D01*
X150052091Y-75017380D01*
X149925807Y-74980300D01*
X149794193Y-74980300D01*
X149667911Y-75017379D01*
X149667907Y-75017381D01*
X149557188Y-75088535D01*
X149470999Y-75188002D01*
X149470998Y-75188003D01*
X149470998Y-75188004D01*
X149466612Y-75197606D01*
X149420121Y-75251261D01*
X149352000Y-75271263D01*
X149283880Y-75251261D01*
X149237387Y-75197606D01*
X149233002Y-75188004D01*
X149146812Y-75088536D01*
X149146811Y-75088535D01*
X149091451Y-75052958D01*
X149036091Y-75017380D01*
X148909807Y-74980300D01*
X148778193Y-74980300D01*
X148651911Y-75017379D01*
X148651907Y-75017381D01*
X148541188Y-75088535D01*
X148454999Y-75188002D01*
X148400324Y-75307724D01*
X148400322Y-75307731D01*
X148381593Y-75437996D01*
X139744792Y-75437996D01*
X140805574Y-74377215D01*
X140867885Y-74343190D01*
X140938701Y-74348255D01*
X140995536Y-74390802D01*
X141019385Y-74448379D01*
X141034322Y-74552268D01*
X141034324Y-74552275D01*
X141088998Y-74671996D01*
X141175188Y-74771464D01*
X141285909Y-74842620D01*
X141412193Y-74879700D01*
X141543807Y-74879700D01*
X141670091Y-74842620D01*
X141780812Y-74771464D01*
X141867002Y-74671996D01*
X141921676Y-74552275D01*
X141921953Y-74550344D01*
X141940407Y-74422003D01*
X141940407Y-74421996D01*
X141921677Y-74291731D01*
X141921676Y-74291730D01*
X141921676Y-74291725D01*
X141867002Y-74172004D01*
X141780812Y-74072536D01*
X141780811Y-74072535D01*
X141725451Y-74036958D01*
X141670091Y-74001380D01*
X141543807Y-73964300D01*
X141522680Y-73964300D01*
X141454559Y-73944298D01*
X141408066Y-73890642D01*
X141397962Y-73820368D01*
X141427456Y-73755788D01*
X141433585Y-73749205D01*
X143083444Y-72099346D01*
X143145756Y-72065320D01*
X143172539Y-72062441D01*
X157109218Y-72062441D01*
X157177339Y-72082443D01*
G37*
%TD.AperFunction*%
%TA.AperFunction,Conductor*%
G36*
X198792686Y-117306870D02*
G01*
X198849522Y-117349417D01*
X198874333Y-117415937D01*
X198874654Y-117424926D01*
X198874654Y-130249676D01*
X198854652Y-130317797D01*
X198800996Y-130364290D01*
X198730722Y-130374394D01*
X198666142Y-130344900D01*
X198659559Y-130338771D01*
X193318619Y-124997831D01*
X193284593Y-124935519D01*
X193281714Y-124908736D01*
X193281714Y-122765866D01*
X193301716Y-122697745D01*
X193318619Y-122676771D01*
X198659559Y-117335831D01*
X198721871Y-117301805D01*
X198792686Y-117306870D01*
G37*
%TD.AperFunction*%
%TA.AperFunction,Conductor*%
G36*
X101836006Y-117329702D02*
G01*
X101842589Y-117335831D01*
X107158129Y-122651371D01*
X107192155Y-122713683D01*
X107195034Y-122740466D01*
X107195034Y-124934136D01*
X107175032Y-125002257D01*
X107158129Y-125023231D01*
X101842589Y-130338771D01*
X101780277Y-130372797D01*
X101709462Y-130367732D01*
X101652626Y-130325185D01*
X101627815Y-130258665D01*
X101627494Y-130249676D01*
X101627494Y-117424926D01*
X101647496Y-117356805D01*
X101701152Y-117310312D01*
X101771426Y-117300208D01*
X101836006Y-117329702D01*
G37*
%TD.AperFunction*%
%TA.AperFunction,Conductor*%
G36*
X198792686Y-73314070D02*
G01*
X198849522Y-73356617D01*
X198874333Y-73423137D01*
X198874654Y-73432126D01*
X198874654Y-86231476D01*
X198854652Y-86299597D01*
X198800996Y-86346090D01*
X198730722Y-86356194D01*
X198666142Y-86326700D01*
X198659559Y-86320571D01*
X193318619Y-80979631D01*
X193284593Y-80917319D01*
X193281714Y-80890536D01*
X193281714Y-78773066D01*
X193301716Y-78704945D01*
X193318619Y-78683971D01*
X198659559Y-73343031D01*
X198721871Y-73309005D01*
X198792686Y-73314070D01*
G37*
%TD.AperFunction*%
%TA.AperFunction,Conductor*%
G36*
X101836006Y-73336902D02*
G01*
X101842589Y-73343031D01*
X107158129Y-78658571D01*
X107192155Y-78720883D01*
X107195034Y-78747666D01*
X107195034Y-80915936D01*
X107175032Y-80984057D01*
X107158129Y-81005031D01*
X101842589Y-86320571D01*
X101780277Y-86354597D01*
X101709462Y-86349532D01*
X101652626Y-86306985D01*
X101627815Y-86240465D01*
X101627494Y-86231476D01*
X101627494Y-73432126D01*
X101647496Y-73364005D01*
X101701152Y-73317512D01*
X101771426Y-73307408D01*
X101836006Y-73336902D01*
G37*
%TD.AperFunction*%
%TA.AperFunction,Conductor*%
G36*
X178711411Y-53228483D02*
G01*
X178757904Y-53282139D01*
X178768008Y-53352413D01*
X178738514Y-53416993D01*
X178732385Y-53423576D01*
X173395304Y-58760656D01*
X173332992Y-58794682D01*
X173306209Y-58797561D01*
X171188738Y-58797561D01*
X171120617Y-58777559D01*
X171099643Y-58760656D01*
X165762564Y-53423576D01*
X165728538Y-53361264D01*
X165733603Y-53290449D01*
X165776150Y-53233613D01*
X165842670Y-53208802D01*
X165851659Y-53208481D01*
X178643290Y-53208481D01*
X178711411Y-53228483D01*
G37*
%TD.AperFunction*%
%TA.AperFunction,Conductor*%
G36*
X134718611Y-53228483D02*
G01*
X134765104Y-53282139D01*
X134775208Y-53352413D01*
X134745714Y-53416993D01*
X134739585Y-53423576D01*
X129427904Y-58735256D01*
X129365592Y-58769282D01*
X129338809Y-58772161D01*
X127170538Y-58772161D01*
X127102417Y-58752159D01*
X127081443Y-58735256D01*
X121769764Y-53423576D01*
X121735738Y-53361264D01*
X121740803Y-53290449D01*
X121783350Y-53233613D01*
X121849870Y-53208802D01*
X121858859Y-53208481D01*
X134650490Y-53208481D01*
X134718611Y-53228483D01*
G37*
%TD.AperFunction*%
%TD*%
M02*
