M48
; DRILL file {KiCad 8.0.5} date 2025-02-27T20:43:28-0500
; FORMAT={-:-/ absolute / inch / decimal}
; #@! TF.CreationDate,2025-02-27T20:43:28-05:00
; #@! TF.GenerationSoftware,Kicad,Pcbnew,8.0.5
; #@! TF.FileFunction,Plated,1,4,PTH
FMAT,2
INCH
; #@! TA.AperFunction,Plated,PTH,ViaDrill
T1C0.0100
; #@! TA.AperFunction,Plated,PTH,ViaDrill
T2C0.0150
; #@! TA.AperFunction,Plated,PTH,ComponentDrill
T3C0.0150
; #@! TA.AperFunction,Plated,PTH,ComponentDrill
T4C0.1260
%
G90
G05
T1
X4.0495Y-4.6705
X4.76Y-4.18
X4.7975Y-4.01
X4.83Y-4.1
X4.83Y-4.22
X4.8625Y-4.01
X4.93Y-3.7675
X4.93Y-4.01
X4.93Y-4.25
X4.9988Y-3.7688
X5.03Y-3.92
X5.0375Y-3.41
X5.0375Y-4.61
X5.04Y-3.6505
X5.06Y-3.7695
X5.0625Y-3.97
X5.07Y-3.5
X5.07Y-4.7
X5.1Y-4.85
X5.11Y-4.32
X5.14Y-4.61
X5.1688Y-3.5312
X5.17Y-3.17
X5.17Y-3.41
X5.17Y-3.6525
X5.1712Y-3.2888
X5.1975Y-4.01
X5.2Y-4.2505
X5.23Y-4.1
X5.23Y-4.61
X5.24Y-2.13
X5.2625Y-4.01
X5.27Y-3.32
X5.27Y-4.52
X5.3Y-4.85
X5.3025Y-3.41
X5.3025Y-4.61
X5.33Y-3.7675
X5.33Y-4.01
X5.33Y-4.2525
X5.37Y-4.36
X5.37Y-4.4
X5.3975Y-4.01
X5.43Y-3.92
X5.4375Y-3.41
X5.44Y-3.6505
X5.46Y-3.7695
X5.4625Y-4.01
X5.47Y-3.5
X5.5388Y-3.5012
X5.57Y-2.93
X5.57Y-3.1675
X5.57Y-3.41
X5.57Y-3.6525
X5.6Y-4.36
X5.6Y-4.4
X5.67Y-3.32
X5.6875Y-4.64
X5.7Y-3.1695
X5.7025Y-3.41
X5.72Y-4.8425
X5.7548Y-4.3
X5.82Y-3.4105
X5.8254Y-4.5275
X5.8304Y-4.3205
X5.845Y-4.63
X5.86Y-2.97
X5.89Y-4.63
X5.8919Y-4.07
X5.8975Y-4.2
X5.8975Y-4.26
X5.8975Y-4.32
X5.9Y-2.97
X5.9Y-3.96
X5.905Y-3.285
X5.91Y-4.75
X5.92Y-4.887
X5.9205Y-5.119
X5.94Y-2.97
X5.98Y-4.53
X6.03Y-4.36
X6.07Y-3.23
X6.07Y-3.4125
X6.07Y-4.6575
X6.0879Y-5.1401
X6.14Y-4.09
X6.14Y-4.15
X6.15Y-4.3225
X6.2Y-2.86
X6.21Y-3.361
X6.21Y-4.3225
X6.21Y-4.57
X6.2675Y-3.44
X6.28Y-3.6
X6.2821Y-5.9115
X6.3Y-3.9426
X6.319Y-4.46
X6.3275Y-3.1
X6.3405Y-4.2
X6.3425Y-4.14
X6.3425Y-4.32
X6.39Y-3.81
X6.39Y-3.85
X6.3925Y-3.1
X6.3925Y-3.16
X6.4474Y-4.0
X6.4525Y-3.41
X6.4525Y-4.57
X6.48Y-3.085
X6.515Y-4.335
X6.515Y-4.385
X6.5181Y-4.11
X6.5181Y-4.24
X6.54Y-3.2525
X6.54Y-3.3075
X6.545Y-3.085
X6.57Y-3.1875
X6.57Y-3.3725
X6.57Y-5.89
X6.5775Y-4.45
X6.61Y-3.085
X6.62Y-3.81
X6.62Y-3.85
X6.66Y-3.24
X6.66Y-3.3405
X6.69Y-3.18
X6.7575Y-4.01
X6.76Y-4.2505
X6.78Y-3.2075
X6.78Y-3.275
X6.79Y-4.1
X6.8515Y-3.28
X6.8888Y-4.1312
X6.89Y-3.7675
X6.89Y-4.01
X6.89Y-4.2525
X6.9575Y-4.065
X6.99Y-3.92
X7.02Y-3.7695
X7.0225Y-4.01
X7.07Y-4.04
X7.79Y-3.35
T2
X5.02Y-3.1
X5.12Y-3.1
X5.22Y-3.1
X5.32Y-3.1
X5.3848Y-3.1
X5.47Y-3.03
T3
X4.0256Y-3.143
X4.0256Y-4.8753
X4.051Y-3.0817
X4.051Y-3.2042
X4.051Y-4.814
X4.051Y-4.9365
X4.1122Y-3.0564
X4.1122Y-3.2296
X4.1122Y-4.7887
X4.1122Y-4.9619
X4.1735Y-3.0817
X4.1735Y-3.2042
X4.1735Y-4.814
X4.1735Y-4.9365
X4.1989Y-3.143
X4.1989Y-4.8753
X4.9626Y-2.206
X4.9626Y-5.8123
X4.988Y-2.1447
X4.988Y-2.2672
X4.988Y-5.751
X4.988Y-5.8735
X5.0493Y-2.1194
X5.0493Y-2.2926
X5.0493Y-5.7257
X5.0493Y-5.8989
X5.1105Y-2.1447
X5.1105Y-2.2672
X5.1105Y-5.751
X5.1105Y-5.8735
X5.1359Y-2.206
X5.1359Y-5.8123
X6.6949Y-2.206
X6.6949Y-5.8123
X6.7203Y-2.1447
X6.7203Y-2.2672
X6.7203Y-5.751
X6.7203Y-5.8735
X6.7815Y-2.1194
X6.7815Y-2.2926
X6.7815Y-5.7257
X6.7815Y-5.8989
X6.8428Y-2.1447
X6.8428Y-2.2672
X6.8428Y-5.751
X6.8428Y-5.8735
X6.8682Y-2.206
X6.8682Y-5.8123
X7.6319Y-3.143
X7.6319Y-4.8753
X7.6573Y-3.0817
X7.6573Y-3.2042
X7.6573Y-4.814
X7.6573Y-4.9365
X7.7185Y-3.0564
X7.7185Y-3.2296
X7.7185Y-4.7887
X7.7185Y-4.9619
X7.7798Y-3.0817
X7.7798Y-3.2042
X7.7798Y-4.814
X7.7798Y-4.9365
X7.8052Y-3.143
X7.8052Y-4.8753
T4
X4.1122Y-3.143
X4.1122Y-4.8753
X5.0493Y-2.206
X5.0493Y-5.8123
X6.7815Y-2.206
X6.7815Y-5.8123
X7.7185Y-3.143
X7.7185Y-4.8753
M30
